0
SECTION
2
HEADER
9
$INSUNITS
70
4
9
$ACADVER
1
AC1014
9
$HANDSEED
5
FFFF
0
ENDSEC
0
SECTION
2
TABLES
0
TABLE
2
VPORT
5
8
100
AcDbSymbolTable
0
ENDTAB
0
TABLE
2
LTYPE
5
5
100
AcDbSymbolTable
0
LTYPE
5
14
100
AcDbSymbolTableRecord
100
AcDbLinetypeTableRecord
2
BYBLOCK
70
0
0
LTYPE
5
15
100
AcDbSymbolTableRecord
100
AcDbLinetypeTableRecord
2
BYLAYER
70
0
0
ENDTAB
0
TABLE
2
LAYER
5
2
100
AcDbSymbolTable
70
2
0
LAYER
5
50
100
AcDbSymbolTableRecord
100
AcDbLayerTableRecord
2
0
70
0
6
CONTINUOUS
0
ENDTAB
0
TABLE
2
STYLE
5
3
100
AcDbSymbolTable
70
1
0
STYLE
5
11
100
AcDbSymbolTableRecord
100
AcDbTextStyleTableRecord
2
STANDARD
70
0
0
ENDTAB
0
TABLE
2
VIEW
5
6
100
AcDbSymbolTable
70
0
0
ENDTAB
0
TABLE
2
UCS
5
7
100
AcDbSymbolTable
70
0
0
ENDTAB
0
TABLE
2
APPID
5
9
100
AcDbSymbolTable
70
2
0
APPID
5
12
100
AcDbSymbolTableRecord
100
AcDbRegAppTableRecord
2
ACAD
70
0
0
ENDTAB
0
TABLE
2
DIMSTYLE
5
A
100
AcDbSymbolTable
70
1
0
ENDTAB
0
TABLE
2
BLOCK_RECORD
5
1
100
AcDbSymbolTable
70
1
0
BLOCK_RECORD
5
1F
100
AcDbSymbolTableRecord
100
AcDbBlockTableRecord
2
*MODEL_SPACE
0
BLOCK_RECORD
5
1B
100
AcDbSymbolTableRecord
100
AcDbBlockTableRecord
2
*PAPER_SPACE
0
ENDTAB
0
ENDSEC
0
SECTION
2
BLOCKS
0
BLOCK
5
20
100
AcDbEntity
100
AcDbBlockBegin
2
*MODEL_SPACE
0
ENDBLK
5
21
100
AcDbEntity
100
AcDbBlockEnd
0
BLOCK
5
1C
100
AcDbEntity
100
AcDbBlockBegin
2
*PAPER_SPACE
0
ENDBLK
5
1D
100
AcDbEntity
100
AcDbBlockEnd
0
ENDSEC
0
SECTION
2
ENTITIES
0
CIRCLE
5
100
100
AcDbEntity
8
0
100
AcDbCircle
10
66.705497938569948
20
60.314430337586195
30
0
40
0.90000000000000735
210
-6.1629758220391561e-33
220
-5.7212958599615915e-49
230
1
0
CIRCLE
5
101
100
AcDbEntity
8
0
100
AcDbCircle
10
49.488622059341523
20
30.228274369641287
30
0
40
1.6999999999999993
210
6.1629758220391547e-33
220
3.081487911019578e-33
230
1
0
CIRCLE
5
102
100
AcDbEntity
8
0
100
AcDbCircle
10
63.983746363447615
20
69.379572513502396
30
0
40
1.6999999999999993
210
6.1629758220391547e-33
220
3.081487911019578e-33
230
1
0
CIRCLE
5
103
100
AcDbEntity
8
0
100
AcDbCircle
10
75.188327502963489
20
57.25149824904701
30
0
40
1.6999999999999993
210
6.1629758220391547e-33
220
3.081487911019578e-33
230
1
0
CIRCLE
5
104
100
AcDbEntity
8
0
100
AcDbCircle
10
36.610770447079254
20
42.747258701987889
30
0
40
1.7000000000000037
210
-0
220
0
230
1
0
CIRCLE
5
105
100
AcDbEntity
8
0
100
AcDbCircle
10
66.705497938569962
20
38.914430337586225
30
0
40
0.90000000000000735
210
-6.1629758220391561e-33
220
-5.7212958599615915e-49
230
1
0
CIRCLE
5
106
100
AcDbEntity
8
0
100
AcDbCircle
10
45.30549793856995
20
60.314430337586188
30
0
40
0.90000000000000735
210
-6.1629758220391561e-33
220
-5.7212958599615915e-49
230
1
0
CIRCLE
5
107
100
AcDbEntity
8
0
100
AcDbCircle
10
63.988622059341523
20
30.228274369641287
30
0
40
1.6999999999999993
210
6.1629758220391547e-33
220
3.081487911019578e-33
230
1
0
CIRCLE
5
108
100
AcDbEntity
8
0
100
AcDbCircle
10
49.487917699950685
20
69.373873333462356
30
0
40
1.6999999999999993
210
6.1629758220391547e-33
220
3.081487911019578e-33
230
1
0
CIRCLE
5
109
100
AcDbEntity
8
0
100
AcDbCircle
10
75.188327502963489
20
42.751498249047032
30
0
40
1.6999999999999993
210
6.1629758220391547e-33
220
3.081487911019578e-33
230
1
0
CIRCLE
5
110
100
AcDbEntity
8
0
100
AcDbCircle
10
36.610770447079254
20
57.247258701987896
30
0
40
1.6999999999999993
210
6.1629758220391547e-33
220
3.081487911019578e-33
230
1
0
CIRCLE
5
111
100
AcDbEntity
8
0
100
AcDbCircle
10
45.305497938569957
20
38.914430337586225
30
0
40
0.90000000000000735
210
-6.1629758220391561e-33
220
-5.7212958599615915e-49
230
1
0
LWPOLYLINE
5
112
100
AcDbEntity
8
0
100
AcDbPolyline
90
8
70
1
43
0.0
10
10.793986436892776
20
95.082544240148252
42
0.4142135623730937
10
8.7939864368927587
20
93.082544240148309
10
8.7939864368921334
20
6.9125442401482751
42
0.41421356237309553
10
10.793986436892119
20
4.9125442401482546
10
102.68398643689213
20
4.9125442401475965
42
0.4142135623731022
10
104.68398643689214
20
6.9125442401475823
10
104.68398643689277
20
93.082544240147598
42
0.41421356237309503
10
102.68398643689279
20
95.082544240147598
0
CIRCLE
5
113
100
AcDbEntity
8
0
100
AcDbCircle
10
13.8739864368927
20
87.462544240148233
30
0
40
1.5900000000000003
210
-2.2066345446521201e-47
220
-3.0814879110195774e-33
230
1
0
CIRCLE
5
114
100
AcDbEntity
8
0
100
AcDbCircle
10
13.873986436892171
20
13.802544240148233
30
0
40
1.5900000000000003
210
-2.2066345446521201e-47
220
-3.0814879110195774e-33
230
1
0
CIRCLE
5
115
100
AcDbEntity
8
0
100
AcDbCircle
10
99.603986436892711
20
90.002544240147614
30
0
40
1.590000000000007
210
-2.2066345446521211e-47
220
-3.0814879110195774e-33
230
1
0
CIRCLE
5
116
100
AcDbEntity
8
0
100
AcDbCircle
10
99.603986436892143
20
9.9925442401476179
30
0
40
1.590000000000007
210
-2.2066345446521211e-47
220
-3.0814879110195774e-33
230
1
0
CIRCLE
5
117
100
AcDbEntity
8
0
100
AcDbCircle
10
13.8739864368927
20
87.462544240148233
30
0
40
1.5900000000000039
210
0
220
0
230
1
0
CIRCLE
5
118
100
AcDbEntity
8
0
100
AcDbCircle
10
99.603986436892711
20
90.002544240147614
30
0
40
1.5900000000000145
210
0
220
0
230
1
0
CIRCLE
5
119
100
AcDbEntity
8
0
100
AcDbCircle
10
63.983746363447615
20
69.379572513502396
30
0
40
1.7000000000000006
210
0
220
0
230
1
0
CIRCLE
5
120
100
AcDbEntity
8
0
100
AcDbCircle
10
49.487917699950685
20
69.373873333462356
30
0
40
1.7000000000000015
210
0
220
0
230
1
0
CIRCLE
5
121
100
AcDbEntity
8
0
100
AcDbCircle
10
36.610770447079254
20
57.247258701987896
30
0
40
1.6999999999999993
210
0
220
0
230
1
0
CIRCLE
5
122
100
AcDbEntity
8
0
100
AcDbCircle
10
45.30549793856995
20
60.314430337586188
30
0
40
0.90000000000000746
210
0
220
0
230
1
0
CIRCLE
5
123
100
AcDbEntity
8
0
100
AcDbCircle
10
66.705497938569948
20
60.314430337586195
30
0
40
0.90000000000000746
210
0
220
0
230
1
0
CIRCLE
5
124
100
AcDbEntity
8
0
100
AcDbCircle
10
75.188327502963489
20
57.25149824904701
30
0
40
1.6999999999999993
210
0
220
0
230
1
0
CIRCLE
5
125
100
AcDbEntity
8
0
100
AcDbCircle
10
75.188327502963489
20
42.751498249047032
30
0
40
1.6999999999999966
210
0
220
0
230
1
0
CIRCLE
5
126
100
AcDbEntity
8
0
100
AcDbCircle
10
66.705497938569962
20
38.914430337586225
30
0
40
0.90000000000000746
210
0
220
0
230
1
0
CIRCLE
5
127
100
AcDbEntity
8
0
100
AcDbCircle
10
45.305497938569957
20
38.914430337586225
30
0
40
0.90000000000000746
210
0
220
0
230
1
0
CIRCLE
5
128
100
AcDbEntity
8
0
100
AcDbCircle
10
36.610770447079254
20
42.747258701987889
30
0
40
1.7000000000000013
210
0
220
0
230
1
0
CIRCLE
5
129
100
AcDbEntity
8
0
100
AcDbCircle
10
13.873986436892171
20
13.802544240148233
30
0
40
1.5900000000000001
210
0
220
0
230
1
0
CIRCLE
5
130
100
AcDbEntity
8
0
100
AcDbCircle
10
99.603986436892143
20
9.9925442401476179
30
0
40
1.590000000000007
210
0
220
0
230
1
0
LWPOLYLINE
5
131
100
AcDbEntity
8
0
100
AcDbPolyline
90
8
70
1
43
0.0
10
10.793986436892769
20
95.082544240148252
10
102.68398643689275
20
95.082544240147598
42
-0.41421356237308982
10
104.68398643689278
20
93.08254424014757
10
104.68398643689214
20
6.9125442401475823
42
-0.4142135623730957
10
102.68398643689213
20
4.9125442401476027
10
10.793986436892155
20
4.9125442401482546
42
-0.41421356237309426
10
8.7939864368921334
20
6.9125442401482697
10
8.7939864368927605
20
93.08254424014828
42
-0.41421356237309992
0
CIRCLE
5
132
100
AcDbEntity
8
0
100
AcDbCircle
10
49.488622059341523
20
30.228274369641287
30
0
40
1.6999999999999993
210
0
220
0
230
1
0
CIRCLE
5
133
100
AcDbEntity
8
0
100
AcDbCircle
10
63.988622059341523
20
30.228274369641287
30
0
40
1.6999999999999993
210
0
220
0
230
1
0
ENDSEC
0
SECTION
2
OBJECTS
0
DICTIONARY
5
C
100
AcDbDictionary
3
ACAD_GROUP
350
D
3
ACAD_MLINESTYLE
350
17
0
DICTIONARY
5
D
100
AcDbDictionary
0
DICTIONARY
5
1A
330
C
100
AcDbDictionary
0
DICTIONARY
5
17
100
AcDbDictionary
0
ENDSEC
0
EOF
