<?xml version="1.0" standalone="no"?>
 <!DOCTYPE svg PUBLIC "-//W3C//DTD SVG 1.1//EN" 
 "http://www.w3.org/Graphics/SVG/1.1/DTD/svg11.dtd"> 
<svg xmlns="http://www.w3.org/2000/svg" version="1.1" 
    width="10.6934cm" height="8.5852cm" viewBox="0 0 42100 33800">
<title>SVG Picture created as xpanel-Edge_Cuts.svg date 2020/05/05 10:32:30 </title>
  <desc>Picture generated by PCBNEW </desc>
<g style="fill:#000000; fill-opacity:1;stroke:#000000; stroke-opacity:1;
stroke-linecap:round; stroke-linejoin:round;"
 transform="translate(0 0) scale(1 1)">
</g>
<g style="fill:#000000; fill-opacity:0.0; 
stroke:#000000; stroke-width:-0.000393701; stroke-opacity:1; 
stroke-linecap:round; stroke-linejoin:round;">
</g>
<g style="fill:#C8A339; fill-opacity:0.0; 
stroke:#C8A339; stroke-width:-0.000393701; stroke-opacity:1; 
stroke-linecap:round; stroke-linejoin:round;">
</g>
<g style="fill:#C8A339; fill-opacity:0.0; 
stroke:#C8A339; stroke-width:19.685; stroke-opacity:1; 
stroke-linecap:round; stroke-linejoin:round;">
<path d="M30517 16506
L30517 16746
" />
<path d="M29893 17370
L29893 20599
" />
<path d="M30517.8 16506.3 A324.331 324.331 0.0 0 0 30193.4 16182" />
<path d="M30193.4 17070.6 A324.331 324.331 0.0 0 0 30517.8 16746.3" />
<path d="M30193.4 17070.6 A300 300 0.0 0 0 29893.4 17370.6" />
<path d="M29893.4 15882 A300 300 0.0 0 0 30193.4 16182" />
<path d="M27850.4 12161.9 A420 420 0.0 0 0 27430.4 12581.9" />
<path d="M29893.4 12581.9 A420 420 0.0 0 0 29473.4 12161.9" />
<path d="M27430.4 20599.4 A420 420 0.0 0 0 27850.4 21019.4" />
<path d="M29473.4 21019.4 A420 420 0.0 0 0 29893.4 20599.4" />
<path d="M27850 21019
L29473 21019
" />
<path d="M29893 15881
L29893 12581
" />
<path d="M29473 12161
L27850 12161
" />
<path d="M27430 20599
L27430 12581
" />
</g>
<g style="fill:#C8A339; fill-opacity:0.0; 
stroke:#C8A339; stroke-width:70; stroke-opacity:1; 
stroke-linecap:round; stroke-linejoin:round;">
<path d="M2053 2651
L2053 842
" />
<path d="M2453 3051
L2053 2651
" />
<path d="M2453 12151
L2453 3051
" />
<path d="M2453 12151
L2053 12551
" />
<path d="M2053 12551
L2053 20701
" />
<path d="M2453 21102
L2053 20701
" />
<path d="M2453 21102
L2453 30201
" />
<path d="M2453 30201
L2053 30602
" />
<path d="M2053 32338
L2053 30602
" />
<path d="M41423 2650
L41423 842
" />
<path d="M41423 2650
L41023 3050
" />
<path d="M41423 12550
L41023 12150
" />
<path d="M41023 12150
L41023 3050
" />
<path d="M2053.4 32338.7 A393.701 393.701 0.0 0 0 2447.1 32732.4" />
<path d="M2447.1 448.906 A393.701 393.701 0.0 0 0 2053.4 842.606" />
<path d="M41029.7 32732.4 A393.701 393.701 0.0 0 0 41423.4 32338.7" />
<path d="M41423.5 842.606 A393.701 393.701 0.0 0 0 41029.8 448.906" />
<path d="M41423 32338
L41423 30602
" />
<path d="M41423 20702
L41023 21102
" />
<path d="M41023 30201
L41023 21102
" />
<path d="M41423 30602
L41023 30201
" />
<path d="M2447 448
L41029 448
" />
<path d="M41423 12550
L41423 20702
" />
<path d="M41029 32732
L2447 32732
" />
<g >
</g>
<g >
</g>
<g >
</g>
<g >
</g>
<g >
</g>
<g >
</g>
<g >
</g>
<g >
</g>
<g >
</g>
<g >
</g>
<g >
</g>
<g >
</g>
<g >
</g>
<g >
</g>
<g >
</g>
<g >
</g>
<g >
</g>
<g >
</g>
<g >
</g>
<g >
</g>
<g >
</g>
<g >
</g>
<g >
</g>
<g >
</g>
<g >
</g>
<g >
</g>
<g >
</g>
<g >
</g>
<g >
</g>
<g >
</g>
<g >
</g>
<g >
</g>
<g >
</g>
<g >
</g>
<g >
</g>
<g >
</g>
<g >
</g>
<g >
</g>
<g >
</g>
<g >
</g>
<g >
</g>
<g >
</g>
<g >
</g>
<g >
</g>
<g >
</g>
<g >
</g>
<g >
</g>
<g >
</g>
<g >
</g>
<g >
</g>
<g >
</g>
<g >
</g>
<g >
</g>
<g >
</g>
<g >
</g>
<g >
</g>
</g> 
</svg>
