M48
; DRILL file {KiCad 7.0.7} date Tue Oct 10 18:21:30 2023
; FORMAT={-:-/ absolute / inch / decimal}
; #@! TF.CreationDate,2023-10-10T18:21:30-04:00
; #@! TF.GenerationSoftware,Kicad,Pcbnew,7.0.7
; #@! TF.FileFunction,Plated,1,2,PTH
FMAT,2
INCH
; #@! TA.AperFunction,Plated,PTH,ViaDrill
T1C0.0150
; #@! TA.AperFunction,Plated,PTH,ComponentDrill
T2C0.0197
; #@! TA.AperFunction,Plated,PTH,ComponentDrill
T3C0.0276
; #@! TA.AperFunction,Plated,PTH,ComponentDrill
T4C0.0394
; #@! TA.AperFunction,Plated,PTH,ComponentDrill
T5C0.0472
; #@! TA.AperFunction,Plated,PTH,ComponentDrill
T6C0.1260
%
G90
G05
T1
X2.16Y-4.64
X2.16Y-4.7
X2.16Y-4.76
X2.23Y-4.64
X2.23Y-4.7
X2.23Y-4.76
X2.3Y-4.64
X2.3Y-4.7
X2.3Y-4.76
X2.37Y-4.64
X2.37Y-4.7
X2.37Y-4.76
X3.789Y-2.542
X3.79Y-2.81
X4.6325Y-3.7725
X5.16Y-3.535
X5.16Y-3.57
X5.16Y-3.605
X5.19Y-3.535
X5.19Y-3.57
X5.19Y-3.605
X5.22Y-3.535
X5.22Y-3.57
X5.22Y-3.605
X5.545Y-3.675
X5.545Y-3.73
X5.545Y-3.785
X5.58Y-5.02
X5.58Y-5.11
X5.58Y-5.2
X5.63Y-3.675
X5.63Y-3.73
X5.63Y-3.785
X5.64Y-5.02
X5.64Y-5.11
X5.64Y-5.2
X5.71Y-5.02
X5.71Y-5.11
X5.71Y-5.2
X5.72Y-3.675
X5.72Y-3.73
X5.72Y-3.785
X5.77Y-5.02
X5.77Y-5.11
X5.77Y-5.2
X5.805Y-3.675
X5.805Y-3.73
X5.805Y-3.785
T2
X3.99Y-2.98
T3
X3.79Y-3.69
X3.99Y-3.69
T4
X2.29Y-3.075
X5.593Y-2.975
X5.675Y-4.775
X5.755Y-2.975
T5
X4.1402Y-2.56
X4.143Y-2.87
X4.292Y-2.56
X4.2948Y-2.87
X4.523Y-2.87
X4.5252Y-2.56
X4.6748Y-2.87
X4.677Y-2.56
T6
X2.2945Y-2.3185
X2.2945Y-5.4681
X5.6695Y-2.4681
X5.6695Y-5.3681
T0
M30
