%TF.GenerationSoftware,KiCad,Pcbnew,7.0.7*%
%TF.CreationDate,2023-10-10T18:21:33-04:00*%
%TF.ProjectId,batteryboard,62617474-6572-4796-926f-6172642e6b69,rev?*%
%TF.SameCoordinates,Original*%
%TF.FileFunction,Soldermask,Top*%
%TF.FilePolarity,Negative*%
%FSLAX46Y46*%
G04 Gerber Fmt 4.6, Leading zero omitted, Abs format (unit mm)*
G04 Created by KiCad (PCBNEW 7.0.7) date 2023-10-10 18:21:33*
%MOMM*%
%LPD*%
G01*
G04 APERTURE LIST*
G04 Aperture macros list*
%AMRoundRect*
0 Rectangle with rounded corners*
0 $1 Rounding radius*
0 $2 $3 $4 $5 $6 $7 $8 $9 X,Y pos of 4 corners*
0 Add a 4 corners polygon primitive as box body*
4,1,4,$2,$3,$4,$5,$6,$7,$8,$9,$2,$3,0*
0 Add four circle primitives for the rounded corners*
1,1,$1+$1,$2,$3*
1,1,$1+$1,$4,$5*
1,1,$1+$1,$6,$7*
1,1,$1+$1,$8,$9*
0 Add four rect primitives between the rounded corners*
20,1,$1+$1,$2,$3,$4,$5,0*
20,1,$1+$1,$4,$5,$6,$7,0*
20,1,$1+$1,$6,$7,$8,$9,0*
20,1,$1+$1,$8,$9,$2,$3,0*%
G04 Aperture macros list end*
%ADD10C,0.175000*%
%ADD11C,0.102600*%
%ADD12RoundRect,0.050800X-3.670000X3.175000X-3.670000X-3.175000X3.670000X-3.175000X3.670000X3.175000X0*%
%ADD13RoundRect,0.050800X0.500000X-0.300000X0.500000X0.300000X-0.500000X0.300000X-0.500000X-0.300000X0*%
%ADD14RoundRect,0.050800X3.670000X-3.175000X3.670000X3.175000X-3.670000X3.175000X-3.670000X-3.175000X0*%
%ADD15RoundRect,0.269550X-0.256250X0.218750X-0.256250X-0.218750X0.256250X-0.218750X0.256250X0.218750X0*%
%ADD16RoundRect,0.269550X0.218750X0.256250X-0.218750X0.256250X-0.218750X-0.256250X0.218750X-0.256250X0*%
%ADD17RoundRect,0.269550X0.256250X-0.218750X0.256250X0.218750X-0.256250X0.218750X-0.256250X-0.218750X0*%
%ADD18RoundRect,0.200800X-0.825000X-0.150000X0.825000X-0.150000X0.825000X0.150000X-0.825000X0.150000X0*%
%ADD19RoundRect,0.200800X0.825000X0.150000X-0.825000X0.150000X-0.825000X-0.150000X0.825000X-0.150000X0*%
%ADD20RoundRect,0.300800X1.425000X-0.425000X1.425000X0.425000X-1.425000X0.425000X-1.425000X-0.425000X0*%
%ADD21C,1.500000*%
%ADD22C,2.101600*%
%ADD23RoundRect,0.300800X0.250000X1.500000X-0.250000X1.500000X-0.250000X-1.500000X0.250000X-1.500000X0*%
%ADD24RoundRect,0.300801X0.499999X1.449999X-0.499999X1.449999X-0.499999X-1.449999X0.499999X-1.449999X0*%
%ADD25RoundRect,0.063500X1.016000X1.016000X-1.016000X1.016000X-1.016000X-1.016000X1.016000X-1.016000X0*%
%ADD26C,2.159000*%
%ADD27RoundRect,0.063500X-1.016000X-1.016000X1.016000X-1.016000X1.016000X1.016000X-1.016000X1.016000X0*%
%ADD28RoundRect,0.050800X-0.425000X-0.425000X0.425000X-0.425000X0.425000X0.425000X-0.425000X0.425000X0*%
%ADD29C,1.501600*%
%ADD30O,1.501600X1.501600*%
%ADD31RoundRect,0.300800X-0.250000X-2.499999X0.250000X-2.499999X0.250000X2.499999X-0.250000X2.499999X0*%
%ADD32RoundRect,0.300800X-0.550000X-1.250000X0.550000X-1.250000X0.550000X1.250000X-0.550000X1.250000X0*%
%ADD33C,4.601600*%
%TA.AperFunction,Profile*%
%ADD34C,0.150000*%
%TD*%
G04 APERTURE END LIST*
D10*
X110741019Y-97759746D02*
X110741019Y-98459746D01*
X110741019Y-98126413D02*
X110341019Y-98126413D01*
X110341019Y-97759746D02*
X110341019Y-98459746D01*
X109874353Y-98459746D02*
X109741019Y-98459746D01*
X109741019Y-98459746D02*
X109674353Y-98426413D01*
X109674353Y-98426413D02*
X109607686Y-98359746D01*
X109607686Y-98359746D02*
X109574353Y-98226413D01*
X109574353Y-98226413D02*
X109574353Y-97993080D01*
X109574353Y-97993080D02*
X109607686Y-97859746D01*
X109607686Y-97859746D02*
X109674353Y-97793080D01*
X109674353Y-97793080D02*
X109741019Y-97759746D01*
X109741019Y-97759746D02*
X109874353Y-97759746D01*
X109874353Y-97759746D02*
X109941019Y-97793080D01*
X109941019Y-97793080D02*
X110007686Y-97859746D01*
X110007686Y-97859746D02*
X110041019Y-97993080D01*
X110041019Y-97993080D02*
X110041019Y-98226413D01*
X110041019Y-98226413D02*
X110007686Y-98359746D01*
X110007686Y-98359746D02*
X109941019Y-98426413D01*
X109941019Y-98426413D02*
X109874353Y-98459746D01*
X108941020Y-97759746D02*
X109274353Y-97759746D01*
X109274353Y-97759746D02*
X109274353Y-98459746D01*
X108374353Y-97759746D02*
X108707686Y-97759746D01*
X108707686Y-97759746D02*
X108707686Y-98459746D01*
X108141019Y-97759746D02*
X108141019Y-98459746D01*
X107807686Y-97759746D02*
X107807686Y-98459746D01*
X107807686Y-98459746D02*
X107641019Y-98459746D01*
X107641019Y-98459746D02*
X107541019Y-98426413D01*
X107541019Y-98426413D02*
X107474353Y-98359746D01*
X107474353Y-98359746D02*
X107441019Y-98293080D01*
X107441019Y-98293080D02*
X107407686Y-98159746D01*
X107407686Y-98159746D02*
X107407686Y-98059746D01*
X107407686Y-98059746D02*
X107441019Y-97926413D01*
X107441019Y-97926413D02*
X107474353Y-97859746D01*
X107474353Y-97859746D02*
X107541019Y-97793080D01*
X107541019Y-97793080D02*
X107641019Y-97759746D01*
X107641019Y-97759746D02*
X107807686Y-97759746D01*
X107141019Y-97959746D02*
X106807686Y-97959746D01*
X107207686Y-97759746D02*
X106974353Y-98459746D01*
X106974353Y-98459746D02*
X106741019Y-97759746D01*
X106374353Y-98093080D02*
X106374353Y-97759746D01*
X106607686Y-98459746D02*
X106374353Y-98093080D01*
X106374353Y-98093080D02*
X106141019Y-98459746D01*
D11*
X128717400Y-121844800D03*
X73517400Y-137844800D03*
X65187400Y-121844800D03*
D12*
X144117400Y-129844800D03*
X58117400Y-129844800D03*
D13*
X113789000Y-90744000D03*
X113789000Y-91694000D03*
X113789000Y-92644000D03*
X116589000Y-92644000D03*
X116589000Y-91694000D03*
X116589000Y-90744000D03*
D11*
X73542800Y-117194600D03*
X128742800Y-101194600D03*
X137072800Y-117194600D03*
D14*
X58142800Y-109194600D03*
X144142800Y-109194600D03*
D15*
X120523000Y-90906500D03*
X120523000Y-92481500D03*
X118745000Y-90906500D03*
X118745000Y-92481500D03*
X115570000Y-94208500D03*
X115570000Y-95783500D03*
D16*
X128613000Y-82677000D03*
X127038000Y-82677000D03*
X123850500Y-93281500D03*
X122275500Y-93281500D03*
D17*
X118745000Y-95783500D03*
X118745000Y-94208500D03*
D18*
X109412000Y-83312000D03*
X109412000Y-84582000D03*
X109412000Y-85852000D03*
X109412000Y-87122000D03*
X114362000Y-87122000D03*
X114362000Y-85852000D03*
X114362000Y-84582000D03*
X114362000Y-83312000D03*
D19*
X123633000Y-87122000D03*
X123633000Y-85852000D03*
X123633000Y-84582000D03*
X123633000Y-83312000D03*
X118683000Y-83312000D03*
X118683000Y-84582000D03*
X118683000Y-85852000D03*
X118683000Y-87122000D03*
D15*
X113792000Y-94208500D03*
X113792000Y-95783500D03*
D20*
X128587500Y-90720500D03*
X128587500Y-84920500D03*
D21*
X56007000Y-142494000D03*
X55118000Y-56261000D03*
X147193000Y-56261000D03*
D22*
X144145000Y-121285000D03*
X58166000Y-78105000D03*
X142062200Y-75565000D03*
X146177000Y-75565000D03*
D23*
X96250000Y-68763000D03*
X94250000Y-68763000D03*
D24*
X98600000Y-63013000D03*
X91900000Y-63013000D03*
D25*
X109016800Y-65024000D03*
D26*
X105161200Y-65024000D03*
D27*
X105232200Y-72898000D03*
D26*
X109087800Y-72898000D03*
D25*
X118795800Y-65024000D03*
D26*
X114940200Y-65024000D03*
D27*
X114884200Y-72898000D03*
D26*
X118739800Y-72898000D03*
D28*
X101346000Y-75692000D03*
D29*
X101346000Y-93726000D03*
D30*
X96266000Y-93726000D03*
D31*
X94250000Y-67759200D03*
X96250000Y-67759200D03*
D32*
X91850000Y-65509200D03*
X98650000Y-65509200D03*
D33*
X144005300Y-136349900D03*
X58280300Y-58889900D03*
X58280300Y-138889900D03*
X144005300Y-62689900D03*
D11*
X73517400Y-80569800D03*
X128717400Y-96569800D03*
X137047400Y-80569800D03*
X128742800Y-137844800D03*
X73542800Y-121844800D03*
X65212800Y-137844800D03*
X128742800Y-117194600D03*
X73542800Y-101194600D03*
X65212800Y-117194600D03*
X73517400Y-59919600D03*
X128717400Y-75919600D03*
X137047400Y-59919600D03*
D34*
X53200300Y-141979900D02*
G75*
G03*
X55200300Y-143979900I2000000J0D01*
G01*
X147085300Y-143979900D02*
G75*
G03*
X149085300Y-141979900I0J2000000D01*
G01*
X149085300Y-55809900D02*
G75*
G03*
X147085300Y-53809900I-2000000J0D01*
G01*
X53200300Y-55809900D02*
X53200300Y-141979900D01*
X55200300Y-53809900D02*
G75*
G03*
X53200300Y-55809900I0J-2000000D01*
G01*
X55200300Y-143979900D02*
X64039500Y-143979900D01*
X149085300Y-141979900D02*
X149085300Y-55809900D01*
X137210800Y-143002000D02*
X65074800Y-143002000D01*
X64039500Y-143979900D02*
X65074800Y-143002000D01*
X147085300Y-143979900D02*
X138246100Y-143979900D01*
X65074800Y-54845200D02*
X64096900Y-53809900D01*
X137210800Y-54845200D02*
X65074800Y-54845200D01*
X137210800Y-54845200D02*
X138188700Y-53809900D01*
X147085300Y-53809900D02*
X138188700Y-53809900D01*
X64096900Y-53809900D02*
X55200300Y-53809900D01*
X138246100Y-143979900D02*
X137210800Y-143002000D01*
M02*
