%TF.GenerationSoftware,KiCad,Pcbnew,7.0.7*%
%TF.CreationDate,2023-10-10T18:21:33-04:00*%
%TF.ProjectId,batteryboard,62617474-6572-4796-926f-6172642e6b69,rev?*%
%TF.SameCoordinates,Original*%
%TF.FileFunction,Copper,L1,Top*%
%TF.FilePolarity,Positive*%
%FSLAX46Y46*%
G04 Gerber Fmt 4.6, Leading zero omitted, Abs format (unit mm)*
G04 Created by KiCad (PCBNEW 7.0.7) date 2023-10-10 18:21:33*
%MOMM*%
%LPD*%
G01*
G04 APERTURE LIST*
G04 Aperture macros list*
%AMRoundRect*
0 Rectangle with rounded corners*
0 $1 Rounding radius*
0 $2 $3 $4 $5 $6 $7 $8 $9 X,Y pos of 4 corners*
0 Add a 4 corners polygon primitive as box body*
4,1,4,$2,$3,$4,$5,$6,$7,$8,$9,$2,$3,0*
0 Add four circle primitives for the rounded corners*
1,1,$1+$1,$2,$3*
1,1,$1+$1,$4,$5*
1,1,$1+$1,$6,$7*
1,1,$1+$1,$8,$9*
0 Add four rect primitives between the rounded corners*
20,1,$1+$1,$2,$3,$4,$5,0*
20,1,$1+$1,$4,$5,$6,$7,0*
20,1,$1+$1,$6,$7,$8,$9,0*
20,1,$1+$1,$8,$9,$2,$3,0*%
G04 Aperture macros list end*
%TA.AperFunction,SMDPad,CuDef*%
%ADD10R,7.340000X6.350000*%
%TD*%
%TA.AperFunction,SMDPad,CuDef*%
%ADD11R,1.000000X0.600000*%
%TD*%
%TA.AperFunction,SMDPad,CuDef*%
%ADD12RoundRect,0.218750X-0.256250X0.218750X-0.256250X-0.218750X0.256250X-0.218750X0.256250X0.218750X0*%
%TD*%
%TA.AperFunction,SMDPad,CuDef*%
%ADD13RoundRect,0.218750X0.218750X0.256250X-0.218750X0.256250X-0.218750X-0.256250X0.218750X-0.256250X0*%
%TD*%
%TA.AperFunction,SMDPad,CuDef*%
%ADD14RoundRect,0.218750X0.256250X-0.218750X0.256250X0.218750X-0.256250X0.218750X-0.256250X-0.218750X0*%
%TD*%
%TA.AperFunction,SMDPad,CuDef*%
%ADD15RoundRect,0.150000X-0.825000X-0.150000X0.825000X-0.150000X0.825000X0.150000X-0.825000X0.150000X0*%
%TD*%
%TA.AperFunction,SMDPad,CuDef*%
%ADD16RoundRect,0.150000X0.825000X0.150000X-0.825000X0.150000X-0.825000X-0.150000X0.825000X-0.150000X0*%
%TD*%
%TA.AperFunction,SMDPad,CuDef*%
%ADD17RoundRect,0.250000X1.425000X-0.425000X1.425000X0.425000X-1.425000X0.425000X-1.425000X-0.425000X0*%
%TD*%
%TA.AperFunction,SMDPad,CuDef*%
%ADD18C,0.750000*%
%TD*%
%TA.AperFunction,ComponentPad*%
%ADD19C,2.000000*%
%TD*%
%TA.AperFunction,SMDPad,CuDef*%
%ADD20RoundRect,0.250000X0.250000X1.500000X-0.250000X1.500000X-0.250000X-1.500000X0.250000X-1.500000X0*%
%TD*%
%TA.AperFunction,SMDPad,CuDef*%
%ADD21RoundRect,0.250001X0.499999X1.449999X-0.499999X1.449999X-0.499999X-1.449999X0.499999X-1.449999X0*%
%TD*%
%TA.AperFunction,ComponentPad*%
%ADD22R,2.032000X2.032000*%
%TD*%
%TA.AperFunction,ComponentPad*%
%ADD23C,2.032000*%
%TD*%
%TA.AperFunction,ComponentPad*%
%ADD24R,0.850000X0.850000*%
%TD*%
%TA.AperFunction,ComponentPad*%
%ADD25C,1.400000*%
%TD*%
%TA.AperFunction,ComponentPad*%
%ADD26O,1.400000X1.400000*%
%TD*%
%TA.AperFunction,SMDPad,CuDef*%
%ADD27RoundRect,0.250000X-0.250000X-2.499999X0.250000X-2.499999X0.250000X2.499999X-0.250000X2.499999X0*%
%TD*%
%TA.AperFunction,SMDPad,CuDef*%
%ADD28RoundRect,0.250000X-0.550000X-1.250000X0.550000X-1.250000X0.550000X1.250000X-0.550000X1.250000X0*%
%TD*%
%TA.AperFunction,ComponentPad*%
%ADD29C,4.500000*%
%TD*%
%TA.AperFunction,ViaPad*%
%ADD30C,0.584200*%
%TD*%
%TA.AperFunction,Conductor*%
%ADD31C,0.279400*%
%TD*%
%TA.AperFunction,Conductor*%
%ADD32C,0.508000*%
%TD*%
%TA.AperFunction,Conductor*%
%ADD33C,0.609600*%
%TD*%
%TA.AperFunction,Profile*%
%ADD34C,0.150000*%
%TD*%
G04 APERTURE END LIST*
D10*
X144117400Y-129844800D03*
X58117400Y-129844800D03*
D11*
X113789000Y-90744000D03*
X113789000Y-91694000D03*
X113789000Y-92644000D03*
X116589000Y-92644000D03*
X116589000Y-91694000D03*
X116589000Y-90744000D03*
D10*
X58142800Y-109194600D03*
X144142800Y-109194600D03*
D12*
X120523000Y-90906500D03*
X120523000Y-92481500D03*
X118745000Y-90906500D03*
X118745000Y-92481500D03*
X115570000Y-94208500D03*
X115570000Y-95783500D03*
D13*
X128613000Y-82677000D03*
X127038000Y-82677000D03*
X123850500Y-93281500D03*
X122275500Y-93281500D03*
D14*
X118745000Y-95783500D03*
X118745000Y-94208500D03*
D15*
X109412000Y-83312000D03*
X109412000Y-84582000D03*
X109412000Y-85852000D03*
X109412000Y-87122000D03*
X114362000Y-87122000D03*
X114362000Y-85852000D03*
X114362000Y-84582000D03*
X114362000Y-83312000D03*
D16*
X123633000Y-87122000D03*
X123633000Y-85852000D03*
X123633000Y-84582000D03*
X123633000Y-83312000D03*
X118683000Y-83312000D03*
X118683000Y-84582000D03*
X118683000Y-85852000D03*
X118683000Y-87122000D03*
D12*
X113792000Y-94208500D03*
X113792000Y-95783500D03*
D17*
X128587500Y-90720500D03*
X128587500Y-84920500D03*
D18*
X56007000Y-142494000D03*
X55118000Y-56261000D03*
X147193000Y-56261000D03*
D19*
X144145000Y-121285000D03*
X58166000Y-78105000D03*
X142062200Y-75565000D03*
X146177000Y-75565000D03*
D20*
X96250000Y-68763000D03*
X94250000Y-68763000D03*
D21*
X98600000Y-63013000D03*
X91900000Y-63013000D03*
D22*
X109016800Y-65024000D03*
D23*
X105161200Y-65024000D03*
D22*
X105232200Y-72898000D03*
D23*
X109087800Y-72898000D03*
D22*
X118795800Y-65024000D03*
D23*
X114940200Y-65024000D03*
D22*
X114884200Y-72898000D03*
D23*
X118739800Y-72898000D03*
D24*
X101346000Y-75692000D03*
D25*
X101346000Y-93726000D03*
D26*
X96266000Y-93726000D03*
D27*
X94250000Y-67759200D03*
X96250000Y-67759200D03*
D28*
X91850000Y-65509200D03*
X98650000Y-65509200D03*
D29*
X144005300Y-136349900D03*
X58280300Y-58889900D03*
X58280300Y-138889900D03*
X144005300Y-62689900D03*
D30*
X143256000Y-129794000D03*
X146558000Y-129794000D03*
X145034000Y-129794000D03*
X141732000Y-129794000D03*
X146558000Y-132080000D03*
X141732000Y-132080000D03*
X143256000Y-132080000D03*
X145034000Y-132080000D03*
X131826000Y-90678000D03*
X132588000Y-90678000D03*
X131064000Y-90678000D03*
X131826000Y-91567000D03*
X131064000Y-91567000D03*
X132588000Y-91567000D03*
X131826000Y-89789000D03*
X141732000Y-127508000D03*
X146558000Y-127508000D03*
X132588000Y-89789000D03*
X131064000Y-89789000D03*
X143256000Y-127508000D03*
X145034000Y-127508000D03*
X54864000Y-119380000D03*
X58420000Y-119380000D03*
X56642000Y-119380000D03*
X60198000Y-119380000D03*
X60198000Y-120904000D03*
X58420000Y-120904000D03*
X54864000Y-120904000D03*
X56642000Y-120904000D03*
X56642000Y-117856000D03*
X58420000Y-117856000D03*
X54864000Y-117856000D03*
X60198000Y-117856000D03*
X117665498Y-95821500D03*
X140843000Y-94742000D03*
X143002000Y-94742000D03*
X145288000Y-94742000D03*
X147447000Y-94742000D03*
X145288000Y-96139000D03*
X140843000Y-96139000D03*
X143002000Y-96139000D03*
X147447000Y-96139000D03*
X147447000Y-93345000D03*
X145288000Y-93345000D03*
X140843000Y-93345000D03*
X96266000Y-71374000D03*
X96240600Y-64566800D03*
X143002000Y-93345000D03*
D31*
X119761000Y-91694000D02*
X120523000Y-92456000D01*
X122275500Y-93281500D02*
X121323000Y-93281500D01*
X116589000Y-91694000D02*
X119761000Y-91694000D01*
X121323000Y-93281500D02*
X120523000Y-92481500D01*
X120523000Y-92456000D02*
X120523000Y-92481500D01*
X120294500Y-90678000D02*
X120523000Y-90906500D01*
X115570000Y-94208500D02*
X115570000Y-90983600D01*
X118745000Y-90678000D02*
X120294500Y-90678000D01*
X128401500Y-90906500D02*
X128587500Y-90720500D01*
X115809600Y-90744000D02*
X116589000Y-90744000D01*
X115570000Y-90983600D02*
X115809600Y-90744000D01*
X116655000Y-90678000D02*
X118745000Y-90678000D01*
X116589000Y-90744000D02*
X116655000Y-90678000D01*
X118745000Y-90906500D02*
X118745000Y-90678000D01*
X120523000Y-90906500D02*
X128401500Y-90906500D01*
X116589000Y-92644000D02*
X118582500Y-92644000D01*
X118745000Y-92481500D02*
X118745000Y-94208500D01*
X118582500Y-92644000D02*
X118745000Y-92481500D01*
D32*
X93218000Y-68763000D02*
X95128200Y-68763000D01*
D31*
X118745000Y-95783500D02*
X117703498Y-95783500D01*
X117703498Y-95783500D02*
X117665498Y-95821500D01*
D33*
X96250000Y-68763000D02*
X96250000Y-64576200D01*
X139954000Y-92456000D02*
X140843000Y-93345000D01*
X96250000Y-71358000D02*
X96266000Y-71374000D01*
X96250000Y-68763000D02*
X96250000Y-71358000D01*
X123850500Y-93281500D02*
X139954000Y-93281500D01*
X96250000Y-64576200D02*
X96240600Y-64566800D01*
D31*
X113792000Y-94361000D02*
X115214500Y-95783500D01*
X113792000Y-94208500D02*
X113792000Y-94361000D01*
X115214500Y-95783500D02*
X115570000Y-95783500D01*
X113789000Y-94205500D02*
X113792000Y-94208500D01*
X113789000Y-92644000D02*
X113789000Y-94205500D01*
D33*
X128613000Y-82677000D02*
X128613000Y-84895000D01*
X128613000Y-84895000D02*
X128587500Y-84920500D01*
D31*
X120523000Y-88392000D02*
X119761000Y-89154000D01*
X121285000Y-83439000D02*
X120523000Y-84201000D01*
X123506000Y-83439000D02*
X121285000Y-83439000D01*
X113980000Y-90744000D02*
X113789000Y-90744000D01*
X123633000Y-83312000D02*
X123506000Y-83439000D01*
X120523000Y-84201000D02*
X120523000Y-88392000D01*
X119761000Y-89154000D02*
X115570000Y-89154000D01*
X115570000Y-89154000D02*
X113980000Y-90744000D01*
X110998000Y-87122000D02*
X109412000Y-87122000D01*
X111569500Y-87693500D02*
X110998000Y-87122000D01*
X113789000Y-91694000D02*
X113009600Y-91694000D01*
X113009600Y-91694000D02*
X111569500Y-90253900D01*
X111569500Y-90253900D02*
X111569500Y-87693500D01*
%TA.AperFunction,Conductor*%
G36*
X133069138Y-89425593D02*
G01*
X133094858Y-89470142D01*
X133096000Y-89483200D01*
X133096000Y-92126800D01*
X133078407Y-92175138D01*
X133033858Y-92200858D01*
X133020800Y-92202000D01*
X126567200Y-92202000D01*
X126518862Y-92184407D01*
X126493142Y-92139858D01*
X126492000Y-92126800D01*
X126492000Y-90974500D01*
X126658501Y-90974500D01*
X126658501Y-91193715D01*
X126664953Y-91253736D01*
X126664954Y-91253741D01*
X126715598Y-91389520D01*
X126715602Y-91389527D01*
X126802452Y-91505547D01*
X126918472Y-91592397D01*
X126918479Y-91592401D01*
X127054256Y-91643044D01*
X127054266Y-91643047D01*
X127114291Y-91649499D01*
X128333500Y-91649499D01*
X128333500Y-90974500D01*
X128841500Y-90974500D01*
X128841500Y-91649499D01*
X130060700Y-91649499D01*
X130060715Y-91649498D01*
X130120736Y-91643046D01*
X130120741Y-91643045D01*
X130256520Y-91592401D01*
X130256527Y-91592397D01*
X130372547Y-91505547D01*
X130459397Y-91389527D01*
X130459401Y-91389520D01*
X130510044Y-91253743D01*
X130510047Y-91253733D01*
X130516499Y-91193714D01*
X130516500Y-91193703D01*
X130516500Y-90974500D01*
X128841500Y-90974500D01*
X128333500Y-90974500D01*
X126658501Y-90974500D01*
X126492000Y-90974500D01*
X126492000Y-90466500D01*
X126658500Y-90466500D01*
X128333500Y-90466500D01*
X128333500Y-89791500D01*
X128841500Y-89791500D01*
X128841500Y-90466500D01*
X130516499Y-90466500D01*
X130516499Y-90247299D01*
X130516498Y-90247284D01*
X130510046Y-90187263D01*
X130510045Y-90187258D01*
X130459401Y-90051479D01*
X130459397Y-90051472D01*
X130372547Y-89935452D01*
X130256527Y-89848602D01*
X130256520Y-89848598D01*
X130120743Y-89797955D01*
X130120733Y-89797952D01*
X130060714Y-89791500D01*
X128841500Y-89791500D01*
X128333500Y-89791500D01*
X127114299Y-89791500D01*
X127114284Y-89791501D01*
X127054263Y-89797953D01*
X127054258Y-89797954D01*
X126918479Y-89848598D01*
X126918472Y-89848602D01*
X126802452Y-89935452D01*
X126715602Y-90051472D01*
X126715598Y-90051479D01*
X126664955Y-90187256D01*
X126664952Y-90187266D01*
X126658500Y-90247285D01*
X126658500Y-90466500D01*
X126492000Y-90466500D01*
X126492000Y-89483200D01*
X126509593Y-89434862D01*
X126554142Y-89409142D01*
X126567200Y-89408000D01*
X133020800Y-89408000D01*
X133069138Y-89425593D01*
G37*
%TD.AperFunction*%
%TA.AperFunction,Conductor*%
G36*
X137133138Y-54938293D02*
G01*
X137158858Y-54982842D01*
X137160000Y-54995900D01*
X137160000Y-58808900D01*
X137142407Y-58857238D01*
X137097858Y-58882958D01*
X137084800Y-58884100D01*
X136996524Y-58884100D01*
X136844408Y-58899082D01*
X136649210Y-58958295D01*
X136469333Y-59054442D01*
X136469323Y-59054448D01*
X136311648Y-59183848D01*
X136182248Y-59341523D01*
X136182242Y-59341533D01*
X136086095Y-59521410D01*
X136026882Y-59716608D01*
X136006890Y-59919600D01*
X136026882Y-60122591D01*
X136086095Y-60317789D01*
X136182242Y-60497666D01*
X136182248Y-60497676D01*
X136311648Y-60655352D01*
X136469324Y-60784752D01*
X136469330Y-60784755D01*
X136469333Y-60784757D01*
X136649210Y-60880904D01*
X136649211Y-60880904D01*
X136649214Y-60880906D01*
X136844407Y-60940117D01*
X136996532Y-60955100D01*
X136996538Y-60955100D01*
X137084800Y-60955100D01*
X137133138Y-60972693D01*
X137158858Y-61017242D01*
X137160000Y-61030300D01*
X137160000Y-64008000D01*
X142494000Y-68339756D01*
X148934600Y-68339756D01*
X148982938Y-68357349D01*
X149008658Y-68401898D01*
X149009800Y-68414956D01*
X149009800Y-84249367D01*
X148992207Y-84297705D01*
X148947658Y-84323425D01*
X148934600Y-84324567D01*
X139769539Y-84324567D01*
X139758229Y-84325061D01*
X139739534Y-84326695D01*
X139728271Y-84327929D01*
X139728270Y-84327929D01*
X139632398Y-84360472D01*
X139587844Y-84386195D01*
X139526267Y-84435615D01*
X139473742Y-84522175D01*
X139473738Y-84522185D01*
X139456149Y-84570512D01*
X139456149Y-84570514D01*
X139440500Y-84659262D01*
X139440500Y-92748600D01*
X139422907Y-92796938D01*
X139378358Y-92822658D01*
X139365300Y-92823800D01*
X124424540Y-92823800D01*
X124376202Y-92806207D01*
X124371376Y-92801784D01*
X124288193Y-92718601D01*
X124286199Y-92717626D01*
X124176761Y-92664124D01*
X124104532Y-92653600D01*
X124104522Y-92653600D01*
X123596478Y-92653600D01*
X123596467Y-92653600D01*
X123524238Y-92664124D01*
X123412804Y-92718602D01*
X123325102Y-92806304D01*
X123270624Y-92917738D01*
X123260100Y-92989967D01*
X123260100Y-93573032D01*
X123270624Y-93645261D01*
X123325102Y-93756695D01*
X123412804Y-93844397D01*
X123412805Y-93844397D01*
X123412807Y-93844399D01*
X123490207Y-93882238D01*
X123524238Y-93898875D01*
X123596467Y-93909399D01*
X123596475Y-93909399D01*
X123596478Y-93909400D01*
X123596480Y-93909400D01*
X124104520Y-93909400D01*
X124104522Y-93909400D01*
X124104524Y-93909399D01*
X124104532Y-93909399D01*
X124159298Y-93901419D01*
X124176762Y-93898875D01*
X124288193Y-93844399D01*
X124371366Y-93761225D01*
X124417985Y-93739486D01*
X124424540Y-93739200D01*
X139365300Y-93739200D01*
X139413638Y-93756793D01*
X139439358Y-93801342D01*
X139440500Y-93814400D01*
X139440500Y-113216528D01*
X139440994Y-113227838D01*
X139442628Y-113246533D01*
X139443862Y-113257795D01*
X139443862Y-113257796D01*
X139476405Y-113353668D01*
X139476407Y-113353672D01*
X139476408Y-113353674D01*
X139502128Y-113398223D01*
X139551548Y-113459799D01*
X139638110Y-113512325D01*
X139686448Y-113529918D01*
X139775195Y-113545566D01*
X139775196Y-113545567D01*
X148934600Y-113545567D01*
X148982938Y-113563160D01*
X149008658Y-113607709D01*
X149009800Y-113620767D01*
X149009800Y-133020800D01*
X148992207Y-133069138D01*
X148947658Y-133094858D01*
X148934600Y-133096000D01*
X148015500Y-133096000D01*
X147967162Y-133078407D01*
X147941442Y-133033858D01*
X147940300Y-133020800D01*
X147940299Y-126654744D01*
X147940299Y-126654743D01*
X147931428Y-126610142D01*
X147897634Y-126559566D01*
X147847058Y-126525772D01*
X147847056Y-126525771D01*
X147802457Y-126516900D01*
X140432344Y-126516900D01*
X140432342Y-126516901D01*
X140387740Y-126525772D01*
X140337167Y-126559564D01*
X140303372Y-126610142D01*
X140303371Y-126610143D01*
X140294500Y-126654742D01*
X140294500Y-133034855D01*
X140294501Y-133034857D01*
X140303372Y-133079459D01*
X140330426Y-133119948D01*
X140342653Y-133169914D01*
X140319902Y-133216049D01*
X140316475Y-133219134D01*
X137160000Y-135890000D01*
X137160000Y-142851300D01*
X137142407Y-142899638D01*
X137097858Y-142925358D01*
X137084800Y-142926500D01*
X65157755Y-142926500D01*
X65109417Y-142908907D01*
X65083697Y-142864358D01*
X65082555Y-142851300D01*
X65082555Y-138955385D01*
X65100148Y-138907047D01*
X65144697Y-138881327D01*
X65160086Y-138880362D01*
X65160086Y-138880300D01*
X65161077Y-138880300D01*
X65161460Y-138880276D01*
X65161917Y-138880298D01*
X65161932Y-138880300D01*
X65161946Y-138880300D01*
X65263662Y-138880300D01*
X65263668Y-138880300D01*
X65415793Y-138865317D01*
X65610986Y-138806106D01*
X65790876Y-138709952D01*
X65948552Y-138580552D01*
X66077952Y-138422876D01*
X66174106Y-138242986D01*
X66233317Y-138047793D01*
X66253310Y-137844805D01*
X71536854Y-137844805D01*
X71557011Y-138126646D01*
X71557014Y-138126669D01*
X71617076Y-138402773D01*
X71715834Y-138667554D01*
X71832003Y-138880300D01*
X71851259Y-138915564D01*
X72020603Y-139141782D01*
X72020605Y-139141784D01*
X72020608Y-139141788D01*
X72220411Y-139341591D01*
X72220414Y-139341593D01*
X72220418Y-139341597D01*
X72446636Y-139510941D01*
X72446638Y-139510942D01*
X72694645Y-139646365D01*
X72694646Y-139646365D01*
X72694651Y-139646368D01*
X72959416Y-139745120D01*
X72959420Y-139745121D01*
X72959426Y-139745123D01*
X73222098Y-139802263D01*
X73235539Y-139805187D01*
X73446847Y-139820300D01*
X73446849Y-139820300D01*
X73587951Y-139820300D01*
X73587953Y-139820300D01*
X73799261Y-139805187D01*
X73881993Y-139787189D01*
X74075373Y-139745123D01*
X74075376Y-139745121D01*
X74075384Y-139745120D01*
X74340149Y-139646368D01*
X74588164Y-139510941D01*
X74814382Y-139341597D01*
X75014197Y-139141782D01*
X75183541Y-138915564D01*
X75318968Y-138667549D01*
X75417720Y-138402784D01*
X75417721Y-138402776D01*
X75417723Y-138402773D01*
X75477785Y-138126669D01*
X75477787Y-138126661D01*
X75497946Y-137844805D01*
X126762254Y-137844805D01*
X126782411Y-138126646D01*
X126782414Y-138126669D01*
X126842476Y-138402773D01*
X126941234Y-138667554D01*
X127057403Y-138880300D01*
X127076659Y-138915564D01*
X127246003Y-139141782D01*
X127246005Y-139141784D01*
X127246008Y-139141788D01*
X127445811Y-139341591D01*
X127445814Y-139341593D01*
X127445818Y-139341597D01*
X127672036Y-139510941D01*
X127672038Y-139510942D01*
X127920045Y-139646365D01*
X127920046Y-139646365D01*
X127920051Y-139646368D01*
X128184816Y-139745120D01*
X128184820Y-139745121D01*
X128184826Y-139745123D01*
X128447498Y-139802263D01*
X128460939Y-139805187D01*
X128672247Y-139820300D01*
X128672249Y-139820300D01*
X128813351Y-139820300D01*
X128813353Y-139820300D01*
X129024661Y-139805187D01*
X129107393Y-139787189D01*
X129300773Y-139745123D01*
X129300776Y-139745121D01*
X129300784Y-139745120D01*
X129565549Y-139646368D01*
X129813564Y-139510941D01*
X130039782Y-139341597D01*
X130239597Y-139141782D01*
X130408941Y-138915564D01*
X130544368Y-138667549D01*
X130643120Y-138402784D01*
X130643121Y-138402776D01*
X130643123Y-138402773D01*
X130703185Y-138126669D01*
X130703187Y-138126661D01*
X130723346Y-137844800D01*
X130703187Y-137562939D01*
X130677881Y-137446610D01*
X130643123Y-137286826D01*
X130643121Y-137286820D01*
X130643120Y-137286816D01*
X130544368Y-137022051D01*
X130408941Y-136774036D01*
X130239597Y-136547818D01*
X130239593Y-136547814D01*
X130239591Y-136547811D01*
X130039788Y-136348008D01*
X130039784Y-136348005D01*
X130039782Y-136348003D01*
X129813564Y-136178659D01*
X129813562Y-136178658D01*
X129813561Y-136178657D01*
X129565554Y-136043234D01*
X129300773Y-135944476D01*
X129024669Y-135884414D01*
X129024646Y-135884411D01*
X128841591Y-135871319D01*
X128813353Y-135869300D01*
X128672247Y-135869300D01*
X128645777Y-135871193D01*
X128460953Y-135884411D01*
X128460930Y-135884414D01*
X128184826Y-135944476D01*
X127920045Y-136043234D01*
X127672038Y-136178657D01*
X127445811Y-136348008D01*
X127246008Y-136547811D01*
X127076657Y-136774038D01*
X126941234Y-137022045D01*
X126842476Y-137286826D01*
X126782414Y-137562930D01*
X126782411Y-137562953D01*
X126762254Y-137844794D01*
X126762254Y-137844805D01*
X75497946Y-137844805D01*
X75497946Y-137844800D01*
X75477787Y-137562939D01*
X75452481Y-137446610D01*
X75417723Y-137286826D01*
X75417721Y-137286820D01*
X75417720Y-137286816D01*
X75318968Y-137022051D01*
X75183541Y-136774036D01*
X75014197Y-136547818D01*
X75014193Y-136547814D01*
X75014191Y-136547811D01*
X74814388Y-136348008D01*
X74814384Y-136348005D01*
X74814382Y-136348003D01*
X74588164Y-136178659D01*
X74588162Y-136178658D01*
X74588161Y-136178657D01*
X74340154Y-136043234D01*
X74075373Y-135944476D01*
X73799269Y-135884414D01*
X73799246Y-135884411D01*
X73616191Y-135871319D01*
X73587953Y-135869300D01*
X73446847Y-135869300D01*
X73420377Y-135871193D01*
X73235553Y-135884411D01*
X73235530Y-135884414D01*
X72959426Y-135944476D01*
X72694645Y-136043234D01*
X72446638Y-136178657D01*
X72220411Y-136348008D01*
X72020608Y-136547811D01*
X71851257Y-136774038D01*
X71715834Y-137022045D01*
X71617076Y-137286826D01*
X71557014Y-137562930D01*
X71557011Y-137562953D01*
X71536854Y-137844794D01*
X71536854Y-137844805D01*
X66253310Y-137844805D01*
X66253310Y-137844800D01*
X66233317Y-137641807D01*
X66174106Y-137446614D01*
X66088697Y-137286826D01*
X66077957Y-137266733D01*
X66077951Y-137266723D01*
X65948552Y-137109048D01*
X65790876Y-136979648D01*
X65790866Y-136979642D01*
X65610989Y-136883495D01*
X65610990Y-136883495D01*
X65415790Y-136824282D01*
X65415791Y-136824282D01*
X65263675Y-136809300D01*
X65263668Y-136809300D01*
X65161932Y-136809300D01*
X65161919Y-136809300D01*
X65161428Y-136809324D01*
X65161350Y-136809300D01*
X65160086Y-136809300D01*
X65160086Y-136808908D01*
X65112289Y-136794113D01*
X65084424Y-136750874D01*
X65082555Y-136734214D01*
X65082555Y-135636000D01*
X65082554Y-135635999D01*
X62935018Y-133296842D01*
X62915289Y-133249339D01*
X62926124Y-133206977D01*
X62964258Y-133144134D01*
X62981851Y-133095796D01*
X62997500Y-133007044D01*
X62997500Y-121844800D01*
X64146890Y-121844800D01*
X64166882Y-122047791D01*
X64226095Y-122242989D01*
X64322242Y-122422866D01*
X64322248Y-122422876D01*
X64451648Y-122580552D01*
X64609324Y-122709952D01*
X64609330Y-122709955D01*
X64609333Y-122709957D01*
X64789210Y-122806104D01*
X64789211Y-122806104D01*
X64789214Y-122806106D01*
X64984407Y-122865317D01*
X65136532Y-122880300D01*
X65136538Y-122880300D01*
X65238262Y-122880300D01*
X65238268Y-122880300D01*
X65390393Y-122865317D01*
X65585586Y-122806106D01*
X65765476Y-122709952D01*
X65923152Y-122580552D01*
X66052552Y-122422876D01*
X66148706Y-122242986D01*
X66207917Y-122047793D01*
X66227910Y-121844805D01*
X71562254Y-121844805D01*
X71582411Y-122126646D01*
X71582414Y-122126669D01*
X71642476Y-122402773D01*
X71741234Y-122667554D01*
X71857403Y-122880300D01*
X71876659Y-122915564D01*
X72046003Y-123141782D01*
X72046005Y-123141784D01*
X72046008Y-123141788D01*
X72245811Y-123341591D01*
X72245814Y-123341593D01*
X72245818Y-123341597D01*
X72472036Y-123510941D01*
X72472038Y-123510942D01*
X72720045Y-123646365D01*
X72720046Y-123646365D01*
X72720051Y-123646368D01*
X72984816Y-123745120D01*
X72984820Y-123745121D01*
X72984826Y-123745123D01*
X73247498Y-123802263D01*
X73260939Y-123805187D01*
X73472247Y-123820300D01*
X73472249Y-123820300D01*
X73613351Y-123820300D01*
X73613353Y-123820300D01*
X73824661Y-123805187D01*
X73907393Y-123787189D01*
X74100773Y-123745123D01*
X74100776Y-123745121D01*
X74100784Y-123745120D01*
X74365549Y-123646368D01*
X74613564Y-123510941D01*
X74839782Y-123341597D01*
X75039597Y-123141782D01*
X75208941Y-122915564D01*
X75344368Y-122667549D01*
X75443120Y-122402784D01*
X75443121Y-122402776D01*
X75443123Y-122402773D01*
X75503185Y-122126669D01*
X75503187Y-122126661D01*
X75523346Y-121844805D01*
X126736854Y-121844805D01*
X126757011Y-122126646D01*
X126757014Y-122126669D01*
X126817076Y-122402773D01*
X126915834Y-122667554D01*
X127032003Y-122880300D01*
X127051259Y-122915564D01*
X127220603Y-123141782D01*
X127220605Y-123141784D01*
X127220608Y-123141788D01*
X127420411Y-123341591D01*
X127420414Y-123341593D01*
X127420418Y-123341597D01*
X127646636Y-123510941D01*
X127646638Y-123510942D01*
X127894645Y-123646365D01*
X127894646Y-123646365D01*
X127894651Y-123646368D01*
X128159416Y-123745120D01*
X128159420Y-123745121D01*
X128159426Y-123745123D01*
X128422098Y-123802263D01*
X128435539Y-123805187D01*
X128646847Y-123820300D01*
X128646849Y-123820300D01*
X128787951Y-123820300D01*
X128787953Y-123820300D01*
X128999261Y-123805187D01*
X129081993Y-123787189D01*
X129275373Y-123745123D01*
X129275376Y-123745121D01*
X129275384Y-123745120D01*
X129540149Y-123646368D01*
X129788164Y-123510941D01*
X130014382Y-123341597D01*
X130214197Y-123141782D01*
X130383541Y-122915564D01*
X130518968Y-122667549D01*
X130617720Y-122402784D01*
X130617721Y-122402776D01*
X130617723Y-122402773D01*
X130677785Y-122126669D01*
X130677787Y-122126661D01*
X130697946Y-121844800D01*
X130687823Y-121703267D01*
X130677788Y-121562953D01*
X130677787Y-121562939D01*
X130663608Y-121497760D01*
X130617723Y-121286826D01*
X130617721Y-121286820D01*
X130617720Y-121286816D01*
X130617043Y-121285002D01*
X142987161Y-121285002D01*
X143006875Y-121497752D01*
X143006876Y-121497760D01*
X143065344Y-121703251D01*
X143065350Y-121703267D01*
X143160582Y-121894520D01*
X143289343Y-122065027D01*
X143289346Y-122065030D01*
X143447243Y-122208973D01*
X143628903Y-122321453D01*
X143628905Y-122321453D01*
X143628907Y-122321455D01*
X143828142Y-122398639D01*
X144038168Y-122437900D01*
X144038172Y-122437900D01*
X144251828Y-122437900D01*
X144251832Y-122437900D01*
X144461858Y-122398639D01*
X144661093Y-122321455D01*
X144842754Y-122208975D01*
X145000653Y-122065031D01*
X145129415Y-121894524D01*
X145224653Y-121703260D01*
X145283125Y-121497752D01*
X145302839Y-121285000D01*
X145301146Y-121266733D01*
X145298215Y-121235102D01*
X145283125Y-121072248D01*
X145283123Y-121072242D01*
X145283123Y-121072239D01*
X145224655Y-120866748D01*
X145224653Y-120866740D01*
X145203512Y-120824283D01*
X145129417Y-120675479D01*
X145000656Y-120504972D01*
X145000653Y-120504969D01*
X144842756Y-120361026D01*
X144661096Y-120248546D01*
X144461858Y-120171361D01*
X144461857Y-120171361D01*
X144251832Y-120132100D01*
X144038168Y-120132100D01*
X143870147Y-120163508D01*
X143828141Y-120171361D01*
X143628904Y-120248546D01*
X143628903Y-120248546D01*
X143447243Y-120361026D01*
X143289346Y-120504969D01*
X143289343Y-120504972D01*
X143160582Y-120675479D01*
X143065350Y-120866732D01*
X143065344Y-120866748D01*
X143006876Y-121072239D01*
X143006875Y-121072247D01*
X142987161Y-121284997D01*
X142987161Y-121285002D01*
X130617043Y-121285002D01*
X130518968Y-121022051D01*
X130383541Y-120774036D01*
X130214197Y-120547818D01*
X130214193Y-120547814D01*
X130214191Y-120547811D01*
X130014388Y-120348008D01*
X130014384Y-120348005D01*
X130014382Y-120348003D01*
X129788164Y-120178659D01*
X129788162Y-120178658D01*
X129788161Y-120178657D01*
X129540154Y-120043234D01*
X129275373Y-119944476D01*
X128999269Y-119884414D01*
X128999246Y-119884411D01*
X128816191Y-119871319D01*
X128787953Y-119869300D01*
X128646847Y-119869300D01*
X128620377Y-119871193D01*
X128435553Y-119884411D01*
X128435530Y-119884414D01*
X128159426Y-119944476D01*
X127894645Y-120043234D01*
X127646638Y-120178657D01*
X127420411Y-120348008D01*
X127220608Y-120547811D01*
X127051257Y-120774038D01*
X126915834Y-121022045D01*
X126817076Y-121286826D01*
X126757014Y-121562930D01*
X126757011Y-121562953D01*
X126736854Y-121844794D01*
X126736854Y-121844805D01*
X75523346Y-121844805D01*
X75523346Y-121844800D01*
X75513223Y-121703267D01*
X75503188Y-121562953D01*
X75503187Y-121562939D01*
X75489008Y-121497760D01*
X75443123Y-121286826D01*
X75443121Y-121286820D01*
X75443120Y-121286816D01*
X75344368Y-121022051D01*
X75208941Y-120774036D01*
X75039597Y-120547818D01*
X75039593Y-120547814D01*
X75039591Y-120547811D01*
X74839788Y-120348008D01*
X74839784Y-120348005D01*
X74839782Y-120348003D01*
X74613564Y-120178659D01*
X74613562Y-120178658D01*
X74613561Y-120178657D01*
X74365554Y-120043234D01*
X74100773Y-119944476D01*
X73824669Y-119884414D01*
X73824646Y-119884411D01*
X73641591Y-119871319D01*
X73613353Y-119869300D01*
X73472247Y-119869300D01*
X73445777Y-119871193D01*
X73260953Y-119884411D01*
X73260930Y-119884414D01*
X72984826Y-119944476D01*
X72720045Y-120043234D01*
X72472038Y-120178657D01*
X72245811Y-120348008D01*
X72046008Y-120547811D01*
X71876657Y-120774038D01*
X71741234Y-121022045D01*
X71642476Y-121286826D01*
X71582414Y-121562930D01*
X71582411Y-121562953D01*
X71562254Y-121844794D01*
X71562254Y-121844805D01*
X66227910Y-121844805D01*
X66227910Y-121844800D01*
X66207917Y-121641807D01*
X66148706Y-121446614D01*
X66063297Y-121286826D01*
X66052557Y-121266733D01*
X66052551Y-121266723D01*
X65923152Y-121109048D01*
X65765476Y-120979648D01*
X65765466Y-120979642D01*
X65585589Y-120883495D01*
X65585590Y-120883495D01*
X65390390Y-120824282D01*
X65390391Y-120824282D01*
X65238275Y-120809300D01*
X65238268Y-120809300D01*
X65136532Y-120809300D01*
X65136524Y-120809300D01*
X64984408Y-120824282D01*
X64789210Y-120883495D01*
X64609333Y-120979642D01*
X64609323Y-120979648D01*
X64451648Y-121109048D01*
X64322248Y-121266723D01*
X64322242Y-121266733D01*
X64226095Y-121446610D01*
X64166882Y-121641808D01*
X64146890Y-121844800D01*
X62997500Y-121844800D01*
X62997500Y-117194600D01*
X64172290Y-117194600D01*
X64174474Y-117216776D01*
X64192282Y-117397591D01*
X64251495Y-117592789D01*
X64347642Y-117772666D01*
X64347648Y-117772676D01*
X64477048Y-117930352D01*
X64634724Y-118059752D01*
X64634730Y-118059755D01*
X64634733Y-118059757D01*
X64814610Y-118155904D01*
X64814611Y-118155904D01*
X64814614Y-118155906D01*
X65009807Y-118215117D01*
X65161932Y-118230100D01*
X65161938Y-118230100D01*
X65263662Y-118230100D01*
X65263668Y-118230100D01*
X65415793Y-118215117D01*
X65610986Y-118155906D01*
X65790876Y-118059752D01*
X65948552Y-117930352D01*
X66077952Y-117772676D01*
X66174106Y-117592786D01*
X66233317Y-117397593D01*
X66253310Y-117194605D01*
X71562254Y-117194605D01*
X71582411Y-117476446D01*
X71582414Y-117476469D01*
X71642476Y-117752573D01*
X71741234Y-118017354D01*
X71857403Y-118230100D01*
X71876659Y-118265364D01*
X72046003Y-118491582D01*
X72046005Y-118491584D01*
X72046008Y-118491588D01*
X72245811Y-118691391D01*
X72245814Y-118691393D01*
X72245818Y-118691397D01*
X72472036Y-118860741D01*
X72472038Y-118860742D01*
X72720045Y-118996165D01*
X72720046Y-118996165D01*
X72720051Y-118996168D01*
X72984816Y-119094920D01*
X72984820Y-119094921D01*
X72984826Y-119094923D01*
X73247498Y-119152063D01*
X73260939Y-119154987D01*
X73472247Y-119170100D01*
X73472249Y-119170100D01*
X73613351Y-119170100D01*
X73613353Y-119170100D01*
X73824661Y-119154987D01*
X73907393Y-119136989D01*
X74100773Y-119094923D01*
X74100776Y-119094921D01*
X74100784Y-119094920D01*
X74365549Y-118996168D01*
X74613564Y-118860741D01*
X74839782Y-118691397D01*
X75039597Y-118491582D01*
X75208941Y-118265364D01*
X75344368Y-118017349D01*
X75443120Y-117752584D01*
X75443121Y-117752576D01*
X75443123Y-117752573D01*
X75503185Y-117476469D01*
X75503187Y-117476461D01*
X75523346Y-117194605D01*
X126762254Y-117194605D01*
X126782411Y-117476446D01*
X126782414Y-117476469D01*
X126842476Y-117752573D01*
X126941234Y-118017354D01*
X127057403Y-118230100D01*
X127076659Y-118265364D01*
X127246003Y-118491582D01*
X127246005Y-118491584D01*
X127246008Y-118491588D01*
X127445811Y-118691391D01*
X127445814Y-118691393D01*
X127445818Y-118691397D01*
X127672036Y-118860741D01*
X127672038Y-118860742D01*
X127920045Y-118996165D01*
X127920046Y-118996165D01*
X127920051Y-118996168D01*
X128184816Y-119094920D01*
X128184820Y-119094921D01*
X128184826Y-119094923D01*
X128447498Y-119152063D01*
X128460939Y-119154987D01*
X128672247Y-119170100D01*
X128672249Y-119170100D01*
X128813351Y-119170100D01*
X128813353Y-119170100D01*
X129024661Y-119154987D01*
X129107393Y-119136989D01*
X129300773Y-119094923D01*
X129300776Y-119094921D01*
X129300784Y-119094920D01*
X129565549Y-118996168D01*
X129813564Y-118860741D01*
X130039782Y-118691397D01*
X130239597Y-118491582D01*
X130408941Y-118265364D01*
X130544368Y-118017349D01*
X130643120Y-117752584D01*
X130643121Y-117752576D01*
X130643123Y-117752573D01*
X130703185Y-117476469D01*
X130703187Y-117476461D01*
X130723346Y-117194600D01*
X136032290Y-117194600D01*
X136052282Y-117397591D01*
X136111495Y-117592789D01*
X136207642Y-117772666D01*
X136207648Y-117772676D01*
X136337048Y-117930352D01*
X136494724Y-118059752D01*
X136494730Y-118059755D01*
X136494733Y-118059757D01*
X136674610Y-118155904D01*
X136674611Y-118155904D01*
X136674614Y-118155906D01*
X136869807Y-118215117D01*
X137021932Y-118230100D01*
X137021938Y-118230100D01*
X137123662Y-118230100D01*
X137123668Y-118230100D01*
X137275793Y-118215117D01*
X137470986Y-118155906D01*
X137650876Y-118059752D01*
X137808552Y-117930352D01*
X137937952Y-117772676D01*
X138034106Y-117592786D01*
X138093317Y-117397593D01*
X138113310Y-117194600D01*
X138093317Y-116991607D01*
X138034106Y-116796414D01*
X137948697Y-116636626D01*
X137937957Y-116616533D01*
X137937951Y-116616523D01*
X137808552Y-116458848D01*
X137650876Y-116329448D01*
X137650866Y-116329442D01*
X137470989Y-116233295D01*
X137470990Y-116233295D01*
X137275790Y-116174082D01*
X137275791Y-116174082D01*
X137123675Y-116159100D01*
X137123668Y-116159100D01*
X137021932Y-116159100D01*
X137021924Y-116159100D01*
X136869808Y-116174082D01*
X136674610Y-116233295D01*
X136494733Y-116329442D01*
X136494723Y-116329448D01*
X136337048Y-116458848D01*
X136207648Y-116616523D01*
X136207642Y-116616533D01*
X136111495Y-116796410D01*
X136052282Y-116991608D01*
X136032290Y-117194600D01*
X130723346Y-117194600D01*
X130703187Y-116912739D01*
X130677881Y-116796410D01*
X130643123Y-116636626D01*
X130643121Y-116636620D01*
X130643120Y-116636616D01*
X130544368Y-116371851D01*
X130408941Y-116123836D01*
X130239597Y-115897618D01*
X130239593Y-115897614D01*
X130239591Y-115897611D01*
X130039788Y-115697808D01*
X130039784Y-115697805D01*
X130039782Y-115697803D01*
X129813564Y-115528459D01*
X129813562Y-115528458D01*
X129813561Y-115528457D01*
X129565554Y-115393034D01*
X129300773Y-115294276D01*
X129024669Y-115234214D01*
X129024646Y-115234211D01*
X128841591Y-115221119D01*
X128813353Y-115219100D01*
X128672247Y-115219100D01*
X128645777Y-115220993D01*
X128460953Y-115234211D01*
X128460930Y-115234214D01*
X128184826Y-115294276D01*
X127920045Y-115393034D01*
X127672038Y-115528457D01*
X127445811Y-115697808D01*
X127246008Y-115897611D01*
X127076657Y-116123838D01*
X126941234Y-116371845D01*
X126842476Y-116636626D01*
X126782414Y-116912730D01*
X126782411Y-116912753D01*
X126762254Y-117194594D01*
X126762254Y-117194605D01*
X75523346Y-117194605D01*
X75523346Y-117194600D01*
X75503187Y-116912739D01*
X75477881Y-116796410D01*
X75443123Y-116636626D01*
X75443121Y-116636620D01*
X75443120Y-116636616D01*
X75344368Y-116371851D01*
X75208941Y-116123836D01*
X75039597Y-115897618D01*
X75039593Y-115897614D01*
X75039591Y-115897611D01*
X74839788Y-115697808D01*
X74839784Y-115697805D01*
X74839782Y-115697803D01*
X74613564Y-115528459D01*
X74613562Y-115528458D01*
X74613561Y-115528457D01*
X74365554Y-115393034D01*
X74100773Y-115294276D01*
X73824669Y-115234214D01*
X73824646Y-115234211D01*
X73641591Y-115221119D01*
X73613353Y-115219100D01*
X73472247Y-115219100D01*
X73445777Y-115220993D01*
X73260953Y-115234211D01*
X73260930Y-115234214D01*
X72984826Y-115294276D01*
X72720045Y-115393034D01*
X72472038Y-115528457D01*
X72245811Y-115697808D01*
X72046008Y-115897611D01*
X71876657Y-116123838D01*
X71741234Y-116371845D01*
X71642476Y-116636626D01*
X71582414Y-116912730D01*
X71582411Y-116912753D01*
X71562254Y-117194594D01*
X71562254Y-117194605D01*
X66253310Y-117194605D01*
X66253310Y-117194600D01*
X66233317Y-116991607D01*
X66174106Y-116796414D01*
X66088697Y-116636626D01*
X66077957Y-116616533D01*
X66077951Y-116616523D01*
X65948552Y-116458848D01*
X65790876Y-116329448D01*
X65790866Y-116329442D01*
X65610989Y-116233295D01*
X65610990Y-116233295D01*
X65415790Y-116174082D01*
X65415791Y-116174082D01*
X65263675Y-116159100D01*
X65263668Y-116159100D01*
X65161932Y-116159100D01*
X65161924Y-116159100D01*
X65009808Y-116174082D01*
X64814610Y-116233295D01*
X64634733Y-116329442D01*
X64634723Y-116329448D01*
X64477048Y-116458848D01*
X64347648Y-116616523D01*
X64347642Y-116616533D01*
X64251495Y-116796410D01*
X64192282Y-116991608D01*
X64172290Y-117194599D01*
X64172290Y-117194600D01*
X62997500Y-117194600D01*
X62997500Y-104971540D01*
X62997006Y-104960230D01*
X62997006Y-104960229D01*
X62995372Y-104941534D01*
X62994754Y-104935902D01*
X62994138Y-104930272D01*
X62961592Y-104834393D01*
X62935872Y-104789844D01*
X62886452Y-104728268D01*
X62886451Y-104728267D01*
X62799891Y-104675742D01*
X62799881Y-104675738D01*
X62751553Y-104658149D01*
X62662804Y-104642500D01*
X62662800Y-104642500D01*
X53415200Y-104642500D01*
X53366862Y-104624907D01*
X53341142Y-104580358D01*
X53340000Y-104567300D01*
X53340000Y-101194605D01*
X71562254Y-101194605D01*
X71582411Y-101476446D01*
X71582414Y-101476469D01*
X71642476Y-101752573D01*
X71741234Y-102017354D01*
X71876657Y-102265361D01*
X71876659Y-102265364D01*
X72046003Y-102491582D01*
X72046005Y-102491584D01*
X72046008Y-102491588D01*
X72245811Y-102691391D01*
X72245814Y-102691393D01*
X72245818Y-102691397D01*
X72472036Y-102860741D01*
X72472038Y-102860742D01*
X72720045Y-102996165D01*
X72720046Y-102996165D01*
X72720051Y-102996168D01*
X72984816Y-103094920D01*
X72984820Y-103094921D01*
X72984826Y-103094923D01*
X73247498Y-103152063D01*
X73260939Y-103154987D01*
X73472247Y-103170100D01*
X73472249Y-103170100D01*
X73613351Y-103170100D01*
X73613353Y-103170100D01*
X73824661Y-103154987D01*
X73907393Y-103136989D01*
X74100773Y-103094923D01*
X74100776Y-103094921D01*
X74100784Y-103094920D01*
X74365549Y-102996168D01*
X74613564Y-102860741D01*
X74839782Y-102691397D01*
X75039597Y-102491582D01*
X75208941Y-102265364D01*
X75344368Y-102017349D01*
X75443120Y-101752584D01*
X75443121Y-101752576D01*
X75443123Y-101752573D01*
X75503185Y-101476469D01*
X75503187Y-101476461D01*
X75523346Y-101194605D01*
X126762254Y-101194605D01*
X126782411Y-101476446D01*
X126782414Y-101476469D01*
X126842476Y-101752573D01*
X126941234Y-102017354D01*
X127076657Y-102265361D01*
X127076659Y-102265364D01*
X127246003Y-102491582D01*
X127246005Y-102491584D01*
X127246008Y-102491588D01*
X127445811Y-102691391D01*
X127445814Y-102691393D01*
X127445818Y-102691397D01*
X127672036Y-102860741D01*
X127672038Y-102860742D01*
X127920045Y-102996165D01*
X127920046Y-102996165D01*
X127920051Y-102996168D01*
X128184816Y-103094920D01*
X128184820Y-103094921D01*
X128184826Y-103094923D01*
X128447498Y-103152063D01*
X128460939Y-103154987D01*
X128672247Y-103170100D01*
X128672249Y-103170100D01*
X128813351Y-103170100D01*
X128813353Y-103170100D01*
X129024661Y-103154987D01*
X129107393Y-103136989D01*
X129300773Y-103094923D01*
X129300776Y-103094921D01*
X129300784Y-103094920D01*
X129565549Y-102996168D01*
X129813564Y-102860741D01*
X130039782Y-102691397D01*
X130239597Y-102491582D01*
X130408941Y-102265364D01*
X130544368Y-102017349D01*
X130643120Y-101752584D01*
X130643121Y-101752576D01*
X130643123Y-101752573D01*
X130703185Y-101476469D01*
X130703187Y-101476461D01*
X130723346Y-101194600D01*
X130703187Y-100912739D01*
X130700263Y-100899298D01*
X130643123Y-100636626D01*
X130643121Y-100636620D01*
X130643120Y-100636616D01*
X130544368Y-100371851D01*
X130408941Y-100123836D01*
X130239597Y-99897618D01*
X130239593Y-99897614D01*
X130239591Y-99897611D01*
X130039788Y-99697808D01*
X130039784Y-99697805D01*
X130039782Y-99697803D01*
X129813564Y-99528459D01*
X129813562Y-99528458D01*
X129813561Y-99528457D01*
X129565554Y-99393034D01*
X129300773Y-99294276D01*
X129024669Y-99234214D01*
X129024646Y-99234211D01*
X128841591Y-99221119D01*
X128813353Y-99219100D01*
X128672247Y-99219100D01*
X128645777Y-99220993D01*
X128460953Y-99234211D01*
X128460930Y-99234214D01*
X128184826Y-99294276D01*
X127920045Y-99393034D01*
X127672038Y-99528457D01*
X127445811Y-99697808D01*
X127246008Y-99897611D01*
X127076657Y-100123838D01*
X126941234Y-100371845D01*
X126842476Y-100636626D01*
X126782414Y-100912730D01*
X126782411Y-100912753D01*
X126762254Y-101194594D01*
X126762254Y-101194605D01*
X75523346Y-101194605D01*
X75523346Y-101194600D01*
X75503187Y-100912739D01*
X75500263Y-100899298D01*
X75443123Y-100636626D01*
X75443121Y-100636620D01*
X75443120Y-100636616D01*
X75344368Y-100371851D01*
X75208941Y-100123836D01*
X75039597Y-99897618D01*
X75039593Y-99897614D01*
X75039591Y-99897611D01*
X74839788Y-99697808D01*
X74839784Y-99697805D01*
X74839782Y-99697803D01*
X74613564Y-99528459D01*
X74613562Y-99528458D01*
X74613561Y-99528457D01*
X74365554Y-99393034D01*
X74100773Y-99294276D01*
X73824669Y-99234214D01*
X73824646Y-99234211D01*
X73641591Y-99221119D01*
X73613353Y-99219100D01*
X73472247Y-99219100D01*
X73445777Y-99220993D01*
X73260953Y-99234211D01*
X73260930Y-99234214D01*
X72984826Y-99294276D01*
X72720045Y-99393034D01*
X72472038Y-99528457D01*
X72245811Y-99697808D01*
X72046008Y-99897611D01*
X71876657Y-100123838D01*
X71741234Y-100371845D01*
X71642476Y-100636626D01*
X71582414Y-100912730D01*
X71582411Y-100912753D01*
X71562254Y-101194594D01*
X71562254Y-101194605D01*
X53340000Y-101194605D01*
X53340000Y-96569805D01*
X126736854Y-96569805D01*
X126757011Y-96851646D01*
X126757014Y-96851669D01*
X126817076Y-97127773D01*
X126915834Y-97392554D01*
X127051257Y-97640561D01*
X127051259Y-97640564D01*
X127220603Y-97866782D01*
X127220605Y-97866784D01*
X127220608Y-97866788D01*
X127420411Y-98066591D01*
X127420414Y-98066593D01*
X127420418Y-98066597D01*
X127646636Y-98235941D01*
X127646638Y-98235942D01*
X127894645Y-98371365D01*
X127894646Y-98371365D01*
X127894651Y-98371368D01*
X128159416Y-98470120D01*
X128159420Y-98470121D01*
X128159426Y-98470123D01*
X128422098Y-98527263D01*
X128435539Y-98530187D01*
X128646847Y-98545300D01*
X128646849Y-98545300D01*
X128787951Y-98545300D01*
X128787953Y-98545300D01*
X128999261Y-98530187D01*
X129081993Y-98512189D01*
X129275373Y-98470123D01*
X129275376Y-98470121D01*
X129275384Y-98470120D01*
X129540149Y-98371368D01*
X129788164Y-98235941D01*
X130014382Y-98066597D01*
X130214197Y-97866782D01*
X130383541Y-97640564D01*
X130518968Y-97392549D01*
X130617720Y-97127784D01*
X130617721Y-97127776D01*
X130617723Y-97127773D01*
X130677785Y-96851669D01*
X130677787Y-96851661D01*
X130697946Y-96569800D01*
X130683147Y-96362888D01*
X130677788Y-96287953D01*
X130677787Y-96287939D01*
X130663268Y-96221195D01*
X130617723Y-96011826D01*
X130617721Y-96011820D01*
X130617720Y-96011816D01*
X130518968Y-95747051D01*
X130426898Y-95578439D01*
X130383542Y-95499038D01*
X130383541Y-95499036D01*
X130214197Y-95272818D01*
X130214193Y-95272814D01*
X130214191Y-95272811D01*
X130014388Y-95073008D01*
X130014384Y-95073005D01*
X130014382Y-95073003D01*
X129788164Y-94903659D01*
X129788162Y-94903658D01*
X129788161Y-94903657D01*
X129540154Y-94768234D01*
X129275373Y-94669476D01*
X128999269Y-94609414D01*
X128999246Y-94609411D01*
X128816191Y-94596319D01*
X128787953Y-94594300D01*
X128646847Y-94594300D01*
X128620377Y-94596193D01*
X128435553Y-94609411D01*
X128435530Y-94609414D01*
X128159426Y-94669476D01*
X127894645Y-94768234D01*
X127646638Y-94903657D01*
X127420411Y-95073008D01*
X127220608Y-95272811D01*
X127051257Y-95499038D01*
X126915834Y-95747045D01*
X126817076Y-96011826D01*
X126757014Y-96287930D01*
X126757011Y-96287953D01*
X126736854Y-96569794D01*
X126736854Y-96569805D01*
X53340000Y-96569805D01*
X53340000Y-96037500D01*
X113164604Y-96037500D01*
X113175110Y-96109616D01*
X113175111Y-96109619D01*
X113229512Y-96220899D01*
X113317100Y-96308487D01*
X113428381Y-96362888D01*
X113500517Y-96373399D01*
X113500528Y-96373400D01*
X113538000Y-96373400D01*
X113538000Y-96037500D01*
X114046000Y-96037500D01*
X114046000Y-96373400D01*
X114083472Y-96373400D01*
X114083482Y-96373399D01*
X114155617Y-96362888D01*
X114155619Y-96362888D01*
X114266899Y-96308487D01*
X114354487Y-96220899D01*
X114408888Y-96109619D01*
X114408889Y-96109616D01*
X114419396Y-96037500D01*
X114046000Y-96037500D01*
X113538000Y-96037500D01*
X113164604Y-96037500D01*
X53340000Y-96037500D01*
X53340000Y-95529500D01*
X113164604Y-95529500D01*
X113538000Y-95529500D01*
X113538000Y-95193600D01*
X113500517Y-95193600D01*
X113428382Y-95204111D01*
X113428380Y-95204111D01*
X113317100Y-95258512D01*
X113229512Y-95346100D01*
X113175111Y-95457380D01*
X113175110Y-95457383D01*
X113164604Y-95529500D01*
X53340000Y-95529500D01*
X53340000Y-93980000D01*
X95452264Y-93980000D01*
X95483006Y-94074614D01*
X95572595Y-94229788D01*
X95692493Y-94362947D01*
X95692494Y-94362948D01*
X95837452Y-94468266D01*
X96001140Y-94541144D01*
X96012000Y-94543452D01*
X96012000Y-94114176D01*
X96029593Y-94065838D01*
X96074142Y-94040118D01*
X96111618Y-94043051D01*
X96207595Y-94076000D01*
X96207596Y-94076000D01*
X96295002Y-94076000D01*
X96295005Y-94076000D01*
X96316481Y-94072416D01*
X96381213Y-94061615D01*
X96381214Y-94061614D01*
X96381216Y-94061614D01*
X96409009Y-94046572D01*
X96459893Y-94039039D01*
X96503716Y-94065976D01*
X96520000Y-94112709D01*
X96520000Y-94543452D01*
X96530859Y-94541144D01*
X96694547Y-94468266D01*
X96839505Y-94362948D01*
X96839506Y-94362947D01*
X96959404Y-94229788D01*
X97048993Y-94074614D01*
X97079736Y-93980000D01*
X96651878Y-93980000D01*
X96603540Y-93962407D01*
X96577820Y-93917858D01*
X96583011Y-93874593D01*
X96609982Y-93813108D01*
X96617200Y-93726000D01*
X100488402Y-93726000D01*
X100507142Y-93904301D01*
X100507142Y-93904303D01*
X100507143Y-93904305D01*
X100562545Y-94074817D01*
X100652189Y-94230083D01*
X100652192Y-94230086D01*
X100652193Y-94230088D01*
X100772156Y-94363322D01*
X100917199Y-94468701D01*
X100917200Y-94468701D01*
X100917201Y-94468702D01*
X101080988Y-94541624D01*
X101256357Y-94578900D01*
X101256359Y-94578900D01*
X101435641Y-94578900D01*
X101435643Y-94578900D01*
X101611012Y-94541624D01*
X101774799Y-94468702D01*
X101823147Y-94433574D01*
X101919843Y-94363322D01*
X102039806Y-94230088D01*
X102039811Y-94230083D01*
X102129455Y-94074817D01*
X102184857Y-93904305D01*
X102203598Y-93726000D01*
X102184857Y-93547695D01*
X102129455Y-93377183D01*
X102039811Y-93221917D01*
X102039806Y-93221911D01*
X101919843Y-93088677D01*
X101774800Y-92983298D01*
X101611015Y-92910377D01*
X101611013Y-92910376D01*
X101611012Y-92910376D01*
X101435643Y-92873100D01*
X101256357Y-92873100D01*
X101080988Y-92910376D01*
X101080987Y-92910376D01*
X101080984Y-92910377D01*
X100917199Y-92983298D01*
X100772156Y-93088677D01*
X100652193Y-93221911D01*
X100652190Y-93221915D01*
X100652189Y-93221917D01*
X100609040Y-93296652D01*
X100562545Y-93377182D01*
X100507142Y-93547698D01*
X100488402Y-93726000D01*
X96617200Y-93726000D01*
X96619628Y-93696698D01*
X96590953Y-93583462D01*
X96590951Y-93583459D01*
X96588449Y-93577754D01*
X96591353Y-93576480D01*
X96582431Y-93538187D01*
X96605691Y-93492306D01*
X96653001Y-93472111D01*
X96657089Y-93472000D01*
X97079736Y-93472000D01*
X97079735Y-93471999D01*
X97048993Y-93377385D01*
X96959404Y-93222211D01*
X96839506Y-93089052D01*
X96839505Y-93089051D01*
X96694547Y-92983733D01*
X96530854Y-92910853D01*
X96520000Y-92908545D01*
X96520000Y-93337823D01*
X96502407Y-93386161D01*
X96457858Y-93411881D01*
X96420383Y-93408949D01*
X96324406Y-93376000D01*
X96324405Y-93376000D01*
X96236995Y-93376000D01*
X96236989Y-93376000D01*
X96150787Y-93390384D01*
X96122991Y-93405427D01*
X96072105Y-93412959D01*
X96028283Y-93386021D01*
X96012000Y-93339290D01*
X96012000Y-92908545D01*
X96011999Y-92908545D01*
X96001147Y-92910852D01*
X95837449Y-92983735D01*
X95692498Y-93089048D01*
X95692493Y-93089052D01*
X95572595Y-93222211D01*
X95483006Y-93377385D01*
X95452264Y-93471999D01*
X95452264Y-93472000D01*
X95880122Y-93472000D01*
X95928460Y-93489593D01*
X95954180Y-93534142D01*
X95948988Y-93577406D01*
X95938395Y-93601557D01*
X95922017Y-93638894D01*
X95912371Y-93755301D01*
X95941047Y-93868538D01*
X95943551Y-93874246D01*
X95940646Y-93875519D01*
X95949569Y-93913813D01*
X95926309Y-93959694D01*
X95878999Y-93979889D01*
X95874911Y-93980000D01*
X95452264Y-93980000D01*
X53340000Y-93980000D01*
X53340000Y-87317223D01*
X108284100Y-87317223D01*
X108287037Y-87342548D01*
X108332780Y-87446145D01*
X108332782Y-87446148D01*
X108412851Y-87526217D01*
X108412854Y-87526219D01*
X108412855Y-87526220D01*
X108516450Y-87571962D01*
X108541774Y-87574900D01*
X108541776Y-87574900D01*
X110282224Y-87574900D01*
X110282226Y-87574900D01*
X110307550Y-87571962D01*
X110411145Y-87526220D01*
X110444405Y-87492960D01*
X110496148Y-87441218D01*
X110497308Y-87442378D01*
X110532253Y-87417368D01*
X110552467Y-87414600D01*
X110845653Y-87414600D01*
X110893991Y-87432193D01*
X110898827Y-87436626D01*
X111254874Y-87792673D01*
X111276614Y-87839293D01*
X111276900Y-87845847D01*
X111276900Y-90193906D01*
X111274963Y-90205782D01*
X111275649Y-90205878D01*
X111274686Y-90212773D01*
X111276860Y-90259778D01*
X111276900Y-90261515D01*
X111276900Y-90281007D01*
X111276901Y-90281019D01*
X111277670Y-90285136D01*
X111278270Y-90290309D01*
X111279738Y-90322050D01*
X111279739Y-90322051D01*
X111284595Y-90333050D01*
X111289721Y-90349601D01*
X111291932Y-90361428D01*
X111291932Y-90361429D01*
X111291933Y-90361430D01*
X111306775Y-90385400D01*
X111308658Y-90388441D01*
X111311090Y-90393054D01*
X111323925Y-90422123D01*
X111323927Y-90422127D01*
X111332425Y-90430624D01*
X111343190Y-90444213D01*
X111349397Y-90454239D01*
X111349521Y-90454438D01*
X111374883Y-90473590D01*
X111378802Y-90477001D01*
X112089829Y-91188028D01*
X112760276Y-91858475D01*
X112767306Y-91868243D01*
X112767858Y-91867827D01*
X112772053Y-91873382D01*
X112806843Y-91905098D01*
X112808100Y-91906299D01*
X112821871Y-91920070D01*
X112825332Y-91922441D01*
X112829413Y-91925673D01*
X112852895Y-91947080D01*
X112852896Y-91947080D01*
X112852898Y-91947082D01*
X112864111Y-91951425D01*
X112879441Y-91959506D01*
X112889366Y-91966305D01*
X112920306Y-91973581D01*
X112925262Y-91975116D01*
X112954904Y-91986600D01*
X112966931Y-91986600D01*
X112984147Y-91988597D01*
X112986512Y-91989153D01*
X112995853Y-91991350D01*
X113023111Y-91987547D01*
X113027318Y-91986961D01*
X113032519Y-91986600D01*
X113069919Y-91986600D01*
X113118257Y-92004193D01*
X113143674Y-92047131D01*
X113144972Y-92053659D01*
X113178763Y-92104231D01*
X113178764Y-92104232D01*
X113178766Y-92104234D01*
X113182115Y-92106472D01*
X113212533Y-92147952D01*
X113209171Y-92199282D01*
X113182123Y-92231522D01*
X113178767Y-92233764D01*
X113144972Y-92284342D01*
X113144971Y-92284343D01*
X113136100Y-92328942D01*
X113136100Y-92959055D01*
X113136101Y-92959057D01*
X113144972Y-93003659D01*
X113178764Y-93054232D01*
X113178765Y-93054232D01*
X113178766Y-93054234D01*
X113229342Y-93088028D01*
X113273943Y-93096900D01*
X113421200Y-93096899D01*
X113469537Y-93114492D01*
X113495257Y-93159040D01*
X113496400Y-93172099D01*
X113496400Y-93553656D01*
X113478807Y-93601994D01*
X113434258Y-93627714D01*
X113432048Y-93628069D01*
X113428242Y-93628623D01*
X113428238Y-93628624D01*
X113316804Y-93683102D01*
X113229102Y-93770804D01*
X113174624Y-93882238D01*
X113164100Y-93954467D01*
X113164100Y-94462532D01*
X113174624Y-94534761D01*
X113229102Y-94646195D01*
X113316804Y-94733897D01*
X113316805Y-94733897D01*
X113316807Y-94733899D01*
X113428237Y-94788374D01*
X113428238Y-94788375D01*
X113500467Y-94798899D01*
X113500475Y-94798899D01*
X113500478Y-94798900D01*
X113784953Y-94798900D01*
X113833291Y-94816493D01*
X113838127Y-94820926D01*
X114082427Y-95065226D01*
X114104167Y-95111846D01*
X114090853Y-95161533D01*
X114048716Y-95191038D01*
X114048537Y-95191061D01*
X114046000Y-95193599D01*
X114046000Y-95529500D01*
X114419394Y-95529500D01*
X114425548Y-95522384D01*
X114470475Y-95497331D01*
X114520994Y-95507017D01*
X114535602Y-95518401D01*
X114920074Y-95902873D01*
X114941814Y-95949493D01*
X114942100Y-95956047D01*
X114942100Y-96037532D01*
X114952624Y-96109761D01*
X115007102Y-96221195D01*
X115094804Y-96308897D01*
X115094805Y-96308897D01*
X115094807Y-96308899D01*
X115205242Y-96362888D01*
X115206238Y-96363375D01*
X115278467Y-96373899D01*
X115278475Y-96373899D01*
X115278478Y-96373900D01*
X115278480Y-96373900D01*
X115861520Y-96373900D01*
X115861522Y-96373900D01*
X115861524Y-96373899D01*
X115861532Y-96373899D01*
X115916298Y-96365919D01*
X115933762Y-96363375D01*
X116045193Y-96308899D01*
X116132899Y-96221193D01*
X116187375Y-96109762D01*
X116191731Y-96079864D01*
X116197899Y-96037532D01*
X116197900Y-96037520D01*
X116197900Y-95821499D01*
X117215922Y-95821499D01*
X117234133Y-95948162D01*
X117287290Y-96064558D01*
X117287291Y-96064559D01*
X117371088Y-96161267D01*
X117371090Y-96161268D01*
X117478736Y-96230449D01*
X117566077Y-96256094D01*
X117601517Y-96266500D01*
X117601520Y-96266500D01*
X117729476Y-96266500D01*
X117729479Y-96266500D01*
X117852259Y-96230449D01*
X117959908Y-96161267D01*
X118008773Y-96104872D01*
X118053721Y-96079864D01*
X118104232Y-96089598D01*
X118133163Y-96121091D01*
X118182101Y-96221193D01*
X118182102Y-96221194D01*
X118182102Y-96221195D01*
X118269804Y-96308897D01*
X118269805Y-96308897D01*
X118269807Y-96308899D01*
X118380242Y-96362888D01*
X118381238Y-96363375D01*
X118453467Y-96373899D01*
X118453475Y-96373899D01*
X118453478Y-96373900D01*
X118453480Y-96373900D01*
X119036520Y-96373900D01*
X119036522Y-96373900D01*
X119036524Y-96373899D01*
X119036532Y-96373899D01*
X119091298Y-96365919D01*
X119108762Y-96363375D01*
X119220193Y-96308899D01*
X119307899Y-96221193D01*
X119362375Y-96109762D01*
X119366731Y-96079864D01*
X119372899Y-96037532D01*
X119372900Y-96037520D01*
X119372900Y-95529479D01*
X119372899Y-95529467D01*
X119362375Y-95457238D01*
X119358215Y-95448728D01*
X119307899Y-95345807D01*
X119307897Y-95345805D01*
X119307897Y-95345804D01*
X119220195Y-95258102D01*
X119108761Y-95203624D01*
X119036532Y-95193100D01*
X119036522Y-95193100D01*
X118453478Y-95193100D01*
X118453467Y-95193100D01*
X118381238Y-95203624D01*
X118269804Y-95258102D01*
X118182102Y-95345804D01*
X118131785Y-95448728D01*
X118094749Y-95484427D01*
X118064226Y-95490900D01*
X117996252Y-95490900D01*
X117955597Y-95478962D01*
X117852259Y-95412551D01*
X117852258Y-95412550D01*
X117852257Y-95412550D01*
X117729481Y-95376500D01*
X117729479Y-95376500D01*
X117601517Y-95376500D01*
X117601514Y-95376500D01*
X117478736Y-95412550D01*
X117371090Y-95481731D01*
X117371085Y-95481735D01*
X117287292Y-95578439D01*
X117287290Y-95578441D01*
X117234133Y-95694837D01*
X117215922Y-95821499D01*
X116197900Y-95821499D01*
X116197900Y-95529479D01*
X116197899Y-95529467D01*
X116187375Y-95457238D01*
X116183215Y-95448728D01*
X116132899Y-95345807D01*
X116132897Y-95345805D01*
X116132897Y-95345804D01*
X116045195Y-95258102D01*
X115933761Y-95203624D01*
X115861532Y-95193100D01*
X115861522Y-95193100D01*
X115278478Y-95193100D01*
X115278467Y-95193100D01*
X115206238Y-95203624D01*
X115206235Y-95203625D01*
X115148477Y-95231862D01*
X115097324Y-95237286D01*
X115062276Y-95217477D01*
X114432263Y-94587464D01*
X114410523Y-94540844D01*
X114411022Y-94523451D01*
X114419899Y-94462532D01*
X114942100Y-94462532D01*
X114952624Y-94534761D01*
X115007102Y-94646195D01*
X115094804Y-94733897D01*
X115094805Y-94733897D01*
X115094807Y-94733899D01*
X115206238Y-94788374D01*
X115206238Y-94788375D01*
X115278467Y-94798899D01*
X115278475Y-94798899D01*
X115278478Y-94798900D01*
X115278480Y-94798900D01*
X115861520Y-94798900D01*
X115861522Y-94798900D01*
X115861524Y-94798899D01*
X115861532Y-94798899D01*
X115916298Y-94790919D01*
X115933762Y-94788375D01*
X116045193Y-94733899D01*
X116132899Y-94646193D01*
X116187375Y-94534762D01*
X116197000Y-94468701D01*
X116197899Y-94462532D01*
X116197900Y-94462520D01*
X116197900Y-93954479D01*
X116197899Y-93954467D01*
X116187375Y-93882238D01*
X116168875Y-93844397D01*
X116132899Y-93770807D01*
X116132897Y-93770805D01*
X116132897Y-93770804D01*
X116045195Y-93683102D01*
X115933762Y-93628625D01*
X115926954Y-93627633D01*
X115881659Y-93603252D01*
X115862633Y-93555460D01*
X115862600Y-93553219D01*
X115862600Y-93117303D01*
X115880193Y-93068965D01*
X115924742Y-93043245D01*
X115975400Y-93052178D01*
X115979579Y-93054777D01*
X116029338Y-93088026D01*
X116029340Y-93088027D01*
X116029342Y-93088028D01*
X116073943Y-93096900D01*
X117104056Y-93096899D01*
X117148658Y-93088028D01*
X117199234Y-93054234D01*
X117233028Y-93003658D01*
X117234327Y-92997126D01*
X117261014Y-92953151D01*
X117308082Y-92936600D01*
X118168360Y-92936600D01*
X118216698Y-92954193D01*
X118221523Y-92958615D01*
X118269807Y-93006899D01*
X118381238Y-93061375D01*
X118388035Y-93062365D01*
X118433333Y-93086740D01*
X118452365Y-93134529D01*
X118452399Y-93136780D01*
X118452399Y-93553219D01*
X118434806Y-93601557D01*
X118390257Y-93627277D01*
X118388046Y-93627633D01*
X118381237Y-93628625D01*
X118269804Y-93683102D01*
X118182102Y-93770804D01*
X118127624Y-93882238D01*
X118117100Y-93954467D01*
X118117100Y-94462532D01*
X118127624Y-94534761D01*
X118182102Y-94646195D01*
X118269804Y-94733897D01*
X118269805Y-94733897D01*
X118269807Y-94733899D01*
X118381238Y-94788374D01*
X118381238Y-94788375D01*
X118453467Y-94798899D01*
X118453475Y-94798899D01*
X118453478Y-94798900D01*
X118453480Y-94798900D01*
X119036520Y-94798900D01*
X119036522Y-94798900D01*
X119036524Y-94798899D01*
X119036532Y-94798899D01*
X119091298Y-94790919D01*
X119108762Y-94788375D01*
X119220193Y-94733899D01*
X119307899Y-94646193D01*
X119362375Y-94534762D01*
X119372000Y-94468701D01*
X119372899Y-94462532D01*
X119372900Y-94462520D01*
X119372900Y-93954479D01*
X119372899Y-93954467D01*
X119362375Y-93882238D01*
X119343875Y-93844397D01*
X119307899Y-93770807D01*
X119307897Y-93770805D01*
X119307897Y-93770804D01*
X119220195Y-93683102D01*
X119108762Y-93628625D01*
X119101954Y-93627633D01*
X119056659Y-93603252D01*
X119037633Y-93555460D01*
X119037600Y-93553219D01*
X119037600Y-93136780D01*
X119055193Y-93088442D01*
X119099742Y-93062722D01*
X119101951Y-93062367D01*
X119108762Y-93061375D01*
X119220193Y-93006899D01*
X119307899Y-92919193D01*
X119362375Y-92807762D01*
X119372900Y-92735522D01*
X119372900Y-92227478D01*
X119372899Y-92227476D01*
X119372899Y-92227467D01*
X119362375Y-92155238D01*
X119332842Y-92094828D01*
X119327418Y-92043675D01*
X119356143Y-92001003D01*
X119400401Y-91986600D01*
X119608652Y-91986600D01*
X119656990Y-92004193D01*
X119661826Y-92008626D01*
X119873073Y-92219873D01*
X119894813Y-92266493D01*
X119895099Y-92273047D01*
X119895099Y-92735520D01*
X119895100Y-92735532D01*
X119905624Y-92807761D01*
X119960102Y-92919195D01*
X120047804Y-93006897D01*
X120047805Y-93006897D01*
X120047807Y-93006899D01*
X120144627Y-93054232D01*
X120159238Y-93061375D01*
X120231467Y-93071899D01*
X120231475Y-93071899D01*
X120231478Y-93071900D01*
X120668453Y-93071900D01*
X120716791Y-93089493D01*
X120721627Y-93093926D01*
X121073676Y-93445975D01*
X121080706Y-93455743D01*
X121081258Y-93455327D01*
X121085453Y-93460882D01*
X121120243Y-93492598D01*
X121121500Y-93493799D01*
X121135271Y-93507570D01*
X121138732Y-93509941D01*
X121142813Y-93513173D01*
X121166295Y-93534580D01*
X121166296Y-93534580D01*
X121166298Y-93534582D01*
X121177511Y-93538925D01*
X121192841Y-93547006D01*
X121202766Y-93553805D01*
X121233704Y-93561081D01*
X121238671Y-93562619D01*
X121268304Y-93574100D01*
X121280327Y-93574100D01*
X121297543Y-93576097D01*
X121299172Y-93576480D01*
X121309253Y-93578851D01*
X121333654Y-93575446D01*
X121340724Y-93574461D01*
X121345925Y-93574100D01*
X121620220Y-93574100D01*
X121668558Y-93591693D01*
X121694278Y-93636242D01*
X121694624Y-93638393D01*
X121695625Y-93645262D01*
X121749421Y-93755301D01*
X121750102Y-93756695D01*
X121837804Y-93844397D01*
X121837805Y-93844397D01*
X121837807Y-93844399D01*
X121915207Y-93882238D01*
X121949238Y-93898875D01*
X122021467Y-93909399D01*
X122021475Y-93909399D01*
X122021478Y-93909400D01*
X122021480Y-93909400D01*
X122529520Y-93909400D01*
X122529522Y-93909400D01*
X122529524Y-93909399D01*
X122529532Y-93909399D01*
X122584298Y-93901419D01*
X122601762Y-93898875D01*
X122713193Y-93844399D01*
X122800899Y-93756693D01*
X122855375Y-93645262D01*
X122859246Y-93618694D01*
X122865899Y-93573032D01*
X122865900Y-93573020D01*
X122865900Y-92989979D01*
X122865899Y-92989967D01*
X122855375Y-92917738D01*
X122850881Y-92908545D01*
X122800899Y-92806307D01*
X122800897Y-92806305D01*
X122800897Y-92806304D01*
X122713195Y-92718602D01*
X122601761Y-92664124D01*
X122529532Y-92653600D01*
X122529522Y-92653600D01*
X122021478Y-92653600D01*
X122021467Y-92653600D01*
X121949238Y-92664124D01*
X121837804Y-92718602D01*
X121750102Y-92806304D01*
X121698991Y-92910853D01*
X121695625Y-92917738D01*
X121694633Y-92924542D01*
X121670257Y-92969837D01*
X121622466Y-92988866D01*
X121620220Y-92988900D01*
X121475347Y-92988900D01*
X121427009Y-92971307D01*
X121422172Y-92966874D01*
X121172925Y-92717626D01*
X121151186Y-92671006D01*
X121150900Y-92664452D01*
X121150900Y-92227479D01*
X121150899Y-92227467D01*
X121140375Y-92155238D01*
X121128156Y-92130244D01*
X121085899Y-92043807D01*
X121085897Y-92043805D01*
X121085897Y-92043804D01*
X120998195Y-91956102D01*
X120886761Y-91901624D01*
X120814532Y-91891100D01*
X120814522Y-91891100D01*
X120403047Y-91891100D01*
X120354709Y-91873507D01*
X120349873Y-91869074D01*
X120094683Y-91613884D01*
X120072943Y-91567264D01*
X120086257Y-91517577D01*
X120128394Y-91488072D01*
X120158700Y-91486296D01*
X120159236Y-91486374D01*
X120159238Y-91486375D01*
X120207046Y-91493340D01*
X120231469Y-91496899D01*
X120231474Y-91496899D01*
X120231478Y-91496900D01*
X120231480Y-91496900D01*
X120814520Y-91496900D01*
X120814522Y-91496900D01*
X120814524Y-91496899D01*
X120814532Y-91496899D01*
X120875114Y-91488072D01*
X120886762Y-91486375D01*
X120998193Y-91431899D01*
X121085899Y-91344193D01*
X121126452Y-91261242D01*
X121136215Y-91241272D01*
X121173251Y-91205573D01*
X121203774Y-91199100D01*
X126258900Y-91199100D01*
X126307238Y-91216693D01*
X126332958Y-91261242D01*
X126334100Y-91274299D01*
X126334100Y-92130244D01*
X126334400Y-92137126D01*
X126335842Y-92153615D01*
X126356396Y-92218807D01*
X126382116Y-92263357D01*
X126397905Y-92285904D01*
X126464856Y-92332783D01*
X126464857Y-92332783D01*
X126464859Y-92332785D01*
X126513197Y-92350378D01*
X126567195Y-92359899D01*
X126567196Y-92359900D01*
X126567200Y-92359900D01*
X133024243Y-92359900D01*
X133024244Y-92359900D01*
X133031126Y-92359600D01*
X133047615Y-92358158D01*
X133112807Y-92337604D01*
X133141050Y-92321297D01*
X133157357Y-92311884D01*
X133166642Y-92305380D01*
X133179904Y-92296095D01*
X133226785Y-92229141D01*
X133244378Y-92180803D01*
X133253899Y-92126804D01*
X133253900Y-92126804D01*
X133253900Y-89479757D01*
X133253600Y-89472874D01*
X133252158Y-89456385D01*
X133231604Y-89391193D01*
X133220732Y-89372363D01*
X133205884Y-89346643D01*
X133190094Y-89324095D01*
X133123143Y-89277216D01*
X133123144Y-89277216D01*
X133074802Y-89259621D01*
X133020804Y-89250100D01*
X133020800Y-89250100D01*
X126563756Y-89250100D01*
X126556874Y-89250400D01*
X126540385Y-89251842D01*
X126475193Y-89272396D01*
X126475192Y-89272396D01*
X126430643Y-89298116D01*
X126408095Y-89313905D01*
X126361216Y-89380855D01*
X126343621Y-89429197D01*
X126334100Y-89483195D01*
X126334100Y-90538700D01*
X126316507Y-90587038D01*
X126271958Y-90612758D01*
X126258900Y-90613900D01*
X121203774Y-90613900D01*
X121155436Y-90596307D01*
X121136215Y-90571728D01*
X121104537Y-90506931D01*
X121085899Y-90468807D01*
X121085897Y-90468805D01*
X121085897Y-90468804D01*
X120998195Y-90381102D01*
X120886761Y-90326624D01*
X120814532Y-90316100D01*
X120814522Y-90316100D01*
X120231478Y-90316100D01*
X120231467Y-90316100D01*
X120159238Y-90326624D01*
X120112240Y-90349601D01*
X120054642Y-90377759D01*
X120021616Y-90385400D01*
X119246384Y-90385400D01*
X119213357Y-90377759D01*
X119138232Y-90341032D01*
X119108761Y-90326624D01*
X119036532Y-90316100D01*
X119036522Y-90316100D01*
X118453478Y-90316100D01*
X118453467Y-90316100D01*
X118381238Y-90326624D01*
X118334240Y-90349601D01*
X118276642Y-90377759D01*
X118243616Y-90385400D01*
X117273930Y-90385400D01*
X117225592Y-90367807D01*
X117211405Y-90351981D01*
X117199234Y-90333766D01*
X117148658Y-90299972D01*
X117148656Y-90299971D01*
X117104057Y-90291100D01*
X116073944Y-90291100D01*
X116073942Y-90291101D01*
X116029340Y-90299972D01*
X115978767Y-90333764D01*
X115944972Y-90384342D01*
X115943673Y-90390873D01*
X115916986Y-90434849D01*
X115869918Y-90451400D01*
X115869597Y-90451400D01*
X115857718Y-90449463D01*
X115857623Y-90450148D01*
X115850727Y-90449185D01*
X115803707Y-90451360D01*
X115801970Y-90451400D01*
X115782488Y-90451400D01*
X115778357Y-90452171D01*
X115773191Y-90452769D01*
X115741450Y-90454238D01*
X115741446Y-90454239D01*
X115730442Y-90459098D01*
X115713890Y-90464223D01*
X115702073Y-90466431D01*
X115702067Y-90466434D01*
X115675058Y-90483156D01*
X115670449Y-90485586D01*
X115641376Y-90498424D01*
X115641374Y-90498425D01*
X115632868Y-90506931D01*
X115619287Y-90517689D01*
X115609063Y-90524020D01*
X115589913Y-90549377D01*
X115586491Y-90553309D01*
X115405521Y-90734278D01*
X115395755Y-90741309D01*
X115396171Y-90741860D01*
X115390611Y-90746058D01*
X115358910Y-90780832D01*
X115357713Y-90782086D01*
X115343933Y-90795867D01*
X115343931Y-90795869D01*
X115341555Y-90799337D01*
X115338323Y-90803416D01*
X115316918Y-90826897D01*
X115312572Y-90838114D01*
X115304495Y-90853436D01*
X115297696Y-90863362D01*
X115297694Y-90863367D01*
X115290421Y-90894293D01*
X115288879Y-90899272D01*
X115277399Y-90928902D01*
X115277399Y-90940935D01*
X115275404Y-90958140D01*
X115272650Y-90969853D01*
X115277039Y-91001317D01*
X115277400Y-91006517D01*
X115277400Y-93553219D01*
X115259807Y-93601557D01*
X115215258Y-93627277D01*
X115213046Y-93627633D01*
X115206237Y-93628625D01*
X115094804Y-93683102D01*
X115007102Y-93770804D01*
X114952624Y-93882238D01*
X114942100Y-93954467D01*
X114942100Y-94462532D01*
X114419899Y-94462532D01*
X114419900Y-94462522D01*
X114419900Y-93954478D01*
X114419899Y-93954476D01*
X114419899Y-93954467D01*
X114409375Y-93882238D01*
X114390875Y-93844397D01*
X114354899Y-93770807D01*
X114354897Y-93770805D01*
X114354897Y-93770804D01*
X114267195Y-93683102D01*
X114155762Y-93628625D01*
X114145955Y-93627196D01*
X114100660Y-93602815D01*
X114081633Y-93555024D01*
X114081600Y-93552782D01*
X114081600Y-93172099D01*
X114099193Y-93123761D01*
X114143742Y-93098041D01*
X114156800Y-93096899D01*
X114304056Y-93096899D01*
X114348658Y-93088028D01*
X114399234Y-93054234D01*
X114433028Y-93003658D01*
X114441900Y-92959057D01*
X114441899Y-92328944D01*
X114433028Y-92284342D01*
X114419006Y-92263357D01*
X114399235Y-92233767D01*
X114399231Y-92233764D01*
X114395883Y-92231527D01*
X114365466Y-92190045D01*
X114368829Y-92138715D01*
X114395883Y-92106472D01*
X114399234Y-92104234D01*
X114433028Y-92053658D01*
X114441900Y-92009057D01*
X114441899Y-91378944D01*
X114433028Y-91334342D01*
X114414658Y-91306850D01*
X114399235Y-91283767D01*
X114399234Y-91283766D01*
X114395883Y-91281527D01*
X114365466Y-91240045D01*
X114368829Y-91188715D01*
X114395883Y-91156472D01*
X114399234Y-91154234D01*
X114433028Y-91103658D01*
X114441900Y-91059057D01*
X114441899Y-90727045D01*
X114459492Y-90678709D01*
X114463913Y-90673884D01*
X115669172Y-89468626D01*
X115715793Y-89446886D01*
X115722347Y-89446600D01*
X119701006Y-89446600D01*
X119712882Y-89448536D01*
X119712978Y-89447851D01*
X119719873Y-89448813D01*
X119719874Y-89448812D01*
X119719875Y-89448813D01*
X119737902Y-89447979D01*
X119766881Y-89446640D01*
X119768617Y-89446600D01*
X119788105Y-89446600D01*
X119788111Y-89446600D01*
X119792247Y-89445826D01*
X119797400Y-89445227D01*
X119829151Y-89443761D01*
X119840147Y-89438904D01*
X119856709Y-89433776D01*
X119868530Y-89431567D01*
X119895542Y-89414840D01*
X119900145Y-89412413D01*
X119929224Y-89399575D01*
X119937726Y-89391072D01*
X119951308Y-89380312D01*
X119961538Y-89373979D01*
X119980691Y-89348614D01*
X119984095Y-89344702D01*
X120687474Y-88641323D01*
X120697240Y-88634300D01*
X120696822Y-88633746D01*
X120702380Y-88629548D01*
X120702382Y-88629545D01*
X120702385Y-88629544D01*
X120734084Y-88594770D01*
X120735279Y-88593519D01*
X120749070Y-88579729D01*
X120751441Y-88576265D01*
X120754678Y-88572180D01*
X120776082Y-88548702D01*
X120780426Y-88537486D01*
X120788506Y-88522157D01*
X120795305Y-88512234D01*
X120802583Y-88481286D01*
X120804117Y-88476335D01*
X120815600Y-88446696D01*
X120815600Y-88434668D01*
X120817597Y-88417453D01*
X120820351Y-88405747D01*
X120815961Y-88374275D01*
X120815600Y-88369074D01*
X120815600Y-88244100D01*
X120833193Y-88195762D01*
X120877742Y-88170042D01*
X120890800Y-88168900D01*
X130484243Y-88168900D01*
X130484244Y-88168900D01*
X130491126Y-88168600D01*
X130507615Y-88167158D01*
X130572807Y-88146604D01*
X130601050Y-88130297D01*
X130617357Y-88120884D01*
X130626642Y-88114380D01*
X130639904Y-88105095D01*
X130686785Y-88038141D01*
X130704378Y-87989803D01*
X130713899Y-87935804D01*
X130713900Y-87935804D01*
X130713900Y-83891757D01*
X130713600Y-83884874D01*
X130713462Y-83883301D01*
X130712158Y-83868385D01*
X130691604Y-83803193D01*
X130676289Y-83776666D01*
X130665884Y-83758643D01*
X130650094Y-83736095D01*
X130583143Y-83689216D01*
X130583144Y-83689216D01*
X130534802Y-83671621D01*
X130480804Y-83662100D01*
X130480800Y-83662100D01*
X129145900Y-83662100D01*
X129097562Y-83644507D01*
X129071842Y-83599958D01*
X129070700Y-83586900D01*
X129070700Y-83507223D01*
X129070700Y-83251037D01*
X129088292Y-83202703D01*
X129092715Y-83197876D01*
X129138399Y-83152193D01*
X129192875Y-83040762D01*
X129200542Y-82988138D01*
X129203399Y-82968532D01*
X129203400Y-82968520D01*
X129203400Y-82385479D01*
X129203399Y-82385467D01*
X129192875Y-82313238D01*
X129180241Y-82287396D01*
X129138399Y-82201807D01*
X129138397Y-82201805D01*
X129138397Y-82201804D01*
X129050695Y-82114102D01*
X128939261Y-82059624D01*
X128867032Y-82049100D01*
X128867022Y-82049100D01*
X128358978Y-82049100D01*
X128358967Y-82049100D01*
X128286738Y-82059624D01*
X128175304Y-82114102D01*
X128087602Y-82201804D01*
X128033124Y-82313238D01*
X128022600Y-82385467D01*
X128022600Y-82968532D01*
X128033124Y-83040761D01*
X128070285Y-83116774D01*
X128087601Y-83152193D01*
X128133274Y-83197866D01*
X128155014Y-83244485D01*
X128155300Y-83251040D01*
X128155300Y-83586900D01*
X128137707Y-83635238D01*
X128093158Y-83660958D01*
X128080100Y-83662100D01*
X124816168Y-83662100D01*
X124767830Y-83644507D01*
X124742110Y-83599958D01*
X124747376Y-83556524D01*
X124757962Y-83532550D01*
X124760900Y-83507226D01*
X124760900Y-83116774D01*
X124757962Y-83091450D01*
X124712220Y-82987855D01*
X124712219Y-82987854D01*
X124712217Y-82987851D01*
X124655366Y-82931000D01*
X126448100Y-82931000D01*
X126448100Y-82968482D01*
X126458611Y-83040617D01*
X126458611Y-83040619D01*
X126513012Y-83151899D01*
X126600600Y-83239487D01*
X126711880Y-83293888D01*
X126711883Y-83293889D01*
X126784000Y-83304396D01*
X126784000Y-82931000D01*
X127292000Y-82931000D01*
X127292000Y-83304395D01*
X127364116Y-83293889D01*
X127364119Y-83293888D01*
X127475399Y-83239487D01*
X127562987Y-83151899D01*
X127617388Y-83040619D01*
X127617388Y-83040617D01*
X127627899Y-82968482D01*
X127627900Y-82968472D01*
X127627900Y-82931000D01*
X127292000Y-82931000D01*
X126784000Y-82931000D01*
X126448100Y-82931000D01*
X124655366Y-82931000D01*
X124632148Y-82907782D01*
X124632145Y-82907780D01*
X124528548Y-82862037D01*
X124509100Y-82859781D01*
X124503226Y-82859100D01*
X122762774Y-82859100D01*
X122757510Y-82859710D01*
X122737451Y-82862037D01*
X122633854Y-82907780D01*
X122633851Y-82907782D01*
X122553782Y-82987851D01*
X122553780Y-82987854D01*
X122532630Y-83035753D01*
X122508038Y-83091450D01*
X122508037Y-83091451D01*
X122505754Y-83096624D01*
X122504542Y-83096089D01*
X122478510Y-83132965D01*
X122435614Y-83146400D01*
X121344997Y-83146400D01*
X121333118Y-83144463D01*
X121333023Y-83145148D01*
X121326127Y-83144185D01*
X121279107Y-83146360D01*
X121277370Y-83146400D01*
X121257888Y-83146400D01*
X121253757Y-83147171D01*
X121248591Y-83147769D01*
X121216850Y-83149238D01*
X121216846Y-83149239D01*
X121205842Y-83154098D01*
X121189290Y-83159223D01*
X121177473Y-83161431D01*
X121177467Y-83161434D01*
X121150458Y-83178156D01*
X121145849Y-83180586D01*
X121116776Y-83193424D01*
X121116774Y-83193425D01*
X121108268Y-83201931D01*
X121094687Y-83212689D01*
X121084463Y-83219020D01*
X121065313Y-83244377D01*
X121061891Y-83248309D01*
X120555273Y-83754926D01*
X120508653Y-83776666D01*
X120458966Y-83763352D01*
X120429461Y-83721215D01*
X120426899Y-83701752D01*
X120426900Y-83180586D01*
X120426900Y-82494756D01*
X120426600Y-82487874D01*
X120425158Y-82471385D01*
X120409903Y-82423000D01*
X126448100Y-82423000D01*
X126784000Y-82423000D01*
X126784000Y-82049603D01*
X126783999Y-82049602D01*
X127292000Y-82049602D01*
X127292000Y-82423000D01*
X127627900Y-82423000D01*
X127627900Y-82385527D01*
X127627899Y-82385517D01*
X127617388Y-82313382D01*
X127617388Y-82313380D01*
X127562987Y-82202100D01*
X127475399Y-82114512D01*
X127364118Y-82060111D01*
X127292000Y-82049602D01*
X126783999Y-82049602D01*
X126711881Y-82060111D01*
X126600600Y-82114512D01*
X126513012Y-82202100D01*
X126458611Y-82313380D01*
X126458611Y-82313382D01*
X126448100Y-82385517D01*
X126448100Y-82423000D01*
X120409903Y-82423000D01*
X120404604Y-82406193D01*
X120384498Y-82371368D01*
X120378884Y-82361643D01*
X120363094Y-82339095D01*
X120296143Y-82292216D01*
X120296144Y-82292216D01*
X120247802Y-82274621D01*
X120193804Y-82265100D01*
X120193800Y-82265100D01*
X112974756Y-82265100D01*
X112967874Y-82265400D01*
X112951385Y-82266842D01*
X112886193Y-82287396D01*
X112886192Y-82287396D01*
X112841643Y-82313116D01*
X112819095Y-82328905D01*
X112772216Y-82395855D01*
X112754621Y-82444197D01*
X112745100Y-82498195D01*
X112745100Y-82498199D01*
X112745100Y-82498200D01*
X112745100Y-87939244D01*
X112745400Y-87946126D01*
X112746842Y-87962615D01*
X112767396Y-88027807D01*
X112793116Y-88072357D01*
X112808905Y-88094904D01*
X112875856Y-88141783D01*
X112875857Y-88141783D01*
X112875859Y-88141785D01*
X112924197Y-88159378D01*
X112978195Y-88168899D01*
X112978196Y-88168900D01*
X120150752Y-88168900D01*
X120199090Y-88186493D01*
X120224810Y-88231042D01*
X120215877Y-88281700D01*
X120203926Y-88297274D01*
X119661827Y-88839374D01*
X119615207Y-88861114D01*
X119608653Y-88861400D01*
X115629997Y-88861400D01*
X115618118Y-88859463D01*
X115618023Y-88860148D01*
X115611127Y-88859185D01*
X115564107Y-88861360D01*
X115562370Y-88861400D01*
X115542888Y-88861400D01*
X115538757Y-88862171D01*
X115533591Y-88862769D01*
X115501850Y-88864238D01*
X115501846Y-88864239D01*
X115490842Y-88869098D01*
X115474290Y-88874223D01*
X115462473Y-88876431D01*
X115462467Y-88876434D01*
X115435458Y-88893156D01*
X115430849Y-88895586D01*
X115401776Y-88908424D01*
X115401774Y-88908425D01*
X115393268Y-88916931D01*
X115379687Y-88927689D01*
X115369463Y-88934020D01*
X115350313Y-88959377D01*
X115346891Y-88963309D01*
X114041125Y-90269074D01*
X113994505Y-90290814D01*
X113987951Y-90291100D01*
X113273944Y-90291100D01*
X113273942Y-90291101D01*
X113229340Y-90299972D01*
X113178767Y-90333764D01*
X113144972Y-90384342D01*
X113144971Y-90384343D01*
X113136100Y-90428942D01*
X113136100Y-91059055D01*
X113136101Y-91059057D01*
X113144972Y-91103659D01*
X113178763Y-91154231D01*
X113178764Y-91154232D01*
X113178766Y-91154234D01*
X113182115Y-91156472D01*
X113212533Y-91197952D01*
X113209171Y-91249282D01*
X113182123Y-91281522D01*
X113178765Y-91283765D01*
X113163340Y-91306850D01*
X113121856Y-91337265D01*
X113070526Y-91333899D01*
X113047641Y-91318243D01*
X112475456Y-90746058D01*
X111884126Y-90154727D01*
X111862386Y-90108107D01*
X111862100Y-90101553D01*
X111862100Y-87753496D01*
X111864037Y-87741621D01*
X111863350Y-87741526D01*
X111864313Y-87734623D01*
X111862140Y-87687619D01*
X111862100Y-87685883D01*
X111862100Y-87666392D01*
X111862100Y-87666389D01*
X111861326Y-87662254D01*
X111860727Y-87657084D01*
X111859261Y-87625349D01*
X111854404Y-87614349D01*
X111849276Y-87597791D01*
X111847067Y-87585970D01*
X111847066Y-87585968D01*
X111847066Y-87585967D01*
X111830338Y-87558952D01*
X111827912Y-87554351D01*
X111815075Y-87525276D01*
X111815074Y-87525275D01*
X111815074Y-87525274D01*
X111806573Y-87516774D01*
X111795811Y-87503188D01*
X111789479Y-87492962D01*
X111789477Y-87492960D01*
X111776925Y-87483482D01*
X111764116Y-87473809D01*
X111760189Y-87470390D01*
X111247323Y-86957524D01*
X111240296Y-86947756D01*
X111239742Y-86948175D01*
X111235545Y-86942618D01*
X111235544Y-86942615D01*
X111235540Y-86942611D01*
X111200754Y-86910899D01*
X111199520Y-86909721D01*
X111185729Y-86895930D01*
X111182265Y-86893557D01*
X111178186Y-86890326D01*
X111154701Y-86868917D01*
X111143487Y-86864573D01*
X111128154Y-86856490D01*
X111118234Y-86849695D01*
X111087300Y-86842419D01*
X111082334Y-86840881D01*
X111052696Y-86829400D01*
X111040669Y-86829400D01*
X111023453Y-86827403D01*
X111011747Y-86824650D01*
X111011745Y-86824650D01*
X110980282Y-86829039D01*
X110975081Y-86829400D01*
X110552467Y-86829400D01*
X110504129Y-86811807D01*
X110493966Y-86800600D01*
X110411148Y-86717782D01*
X110411145Y-86717780D01*
X110307548Y-86672037D01*
X110288100Y-86669781D01*
X110282226Y-86669100D01*
X108541774Y-86669100D01*
X108536510Y-86669710D01*
X108516451Y-86672037D01*
X108412854Y-86717780D01*
X108412851Y-86717782D01*
X108332782Y-86797851D01*
X108332780Y-86797854D01*
X108287037Y-86901451D01*
X108284100Y-86926776D01*
X108284100Y-87317223D01*
X53340000Y-87317223D01*
X53340000Y-86106000D01*
X108302355Y-86106000D01*
X108333200Y-86175858D01*
X108333202Y-86175861D01*
X108413139Y-86255798D01*
X108413142Y-86255800D01*
X108516567Y-86301467D01*
X108541850Y-86304400D01*
X109158000Y-86304400D01*
X109158000Y-86106000D01*
X109666000Y-86106000D01*
X109666000Y-86304400D01*
X110282150Y-86304400D01*
X110307432Y-86301467D01*
X110410857Y-86255800D01*
X110410860Y-86255798D01*
X110490797Y-86175861D01*
X110490799Y-86175858D01*
X110521645Y-86106000D01*
X109666000Y-86106000D01*
X109158000Y-86106000D01*
X108302355Y-86106000D01*
X53340000Y-86106000D01*
X53340000Y-85598000D01*
X108302355Y-85598000D01*
X109158000Y-85598000D01*
X109158000Y-85399600D01*
X109666000Y-85399600D01*
X109666000Y-85598000D01*
X110521645Y-85598000D01*
X110490799Y-85528141D01*
X110490797Y-85528138D01*
X110410860Y-85448201D01*
X110410857Y-85448199D01*
X110307432Y-85402532D01*
X110282150Y-85399600D01*
X109666000Y-85399600D01*
X109158000Y-85399600D01*
X108541850Y-85399600D01*
X108516567Y-85402532D01*
X108413142Y-85448199D01*
X108413139Y-85448201D01*
X108333202Y-85528138D01*
X108333200Y-85528141D01*
X108302355Y-85598000D01*
X53340000Y-85598000D01*
X53340000Y-84836000D01*
X108302355Y-84836000D01*
X108333200Y-84905858D01*
X108333202Y-84905861D01*
X108413139Y-84985798D01*
X108413142Y-84985800D01*
X108516567Y-85031467D01*
X108541850Y-85034400D01*
X109158000Y-85034400D01*
X109158000Y-84836000D01*
X109666000Y-84836000D01*
X109666000Y-85034400D01*
X110282150Y-85034400D01*
X110307432Y-85031467D01*
X110410857Y-84985800D01*
X110410860Y-84985798D01*
X110490797Y-84905861D01*
X110490799Y-84905858D01*
X110521645Y-84836000D01*
X109666000Y-84836000D01*
X109158000Y-84836000D01*
X108302355Y-84836000D01*
X53340000Y-84836000D01*
X53340000Y-84328000D01*
X108302355Y-84328000D01*
X109158000Y-84328000D01*
X109158000Y-84129600D01*
X109666000Y-84129600D01*
X109666000Y-84328000D01*
X110521645Y-84328000D01*
X110490799Y-84258141D01*
X110490797Y-84258138D01*
X110410860Y-84178201D01*
X110410857Y-84178199D01*
X110307432Y-84132532D01*
X110282150Y-84129600D01*
X109666000Y-84129600D01*
X109158000Y-84129600D01*
X108541850Y-84129600D01*
X108516567Y-84132532D01*
X108413142Y-84178199D01*
X108413139Y-84178201D01*
X108333202Y-84258138D01*
X108333200Y-84258141D01*
X108302355Y-84328000D01*
X53340000Y-84328000D01*
X53340000Y-83566000D01*
X108302355Y-83566000D01*
X108333200Y-83635858D01*
X108333202Y-83635861D01*
X108413139Y-83715798D01*
X108413142Y-83715800D01*
X108516567Y-83761467D01*
X108541850Y-83764400D01*
X109158000Y-83764400D01*
X109158000Y-83566000D01*
X109666000Y-83566000D01*
X109666000Y-83764400D01*
X110282150Y-83764400D01*
X110307432Y-83761467D01*
X110410857Y-83715800D01*
X110410860Y-83715798D01*
X110490797Y-83635861D01*
X110490799Y-83635858D01*
X110521645Y-83566000D01*
X109666000Y-83566000D01*
X109158000Y-83566000D01*
X108302355Y-83566000D01*
X53340000Y-83566000D01*
X53340000Y-83058000D01*
X108302355Y-83058000D01*
X109158000Y-83058000D01*
X109158000Y-82859600D01*
X109666000Y-82859600D01*
X109666000Y-83058000D01*
X110521645Y-83058000D01*
X110490799Y-82988141D01*
X110490797Y-82988138D01*
X110410860Y-82908201D01*
X110410857Y-82908199D01*
X110307432Y-82862532D01*
X110282150Y-82859600D01*
X109666000Y-82859600D01*
X109158000Y-82859600D01*
X108541850Y-82859600D01*
X108516567Y-82862532D01*
X108413142Y-82908199D01*
X108413139Y-82908201D01*
X108333202Y-82988138D01*
X108333200Y-82988141D01*
X108302355Y-83058000D01*
X53340000Y-83058000D01*
X53340000Y-80569805D01*
X71536854Y-80569805D01*
X71557011Y-80851646D01*
X71557014Y-80851669D01*
X71617076Y-81127773D01*
X71715834Y-81392554D01*
X71832003Y-81605300D01*
X71851259Y-81640564D01*
X72020603Y-81866782D01*
X72020605Y-81866784D01*
X72020608Y-81866788D01*
X72220411Y-82066591D01*
X72220414Y-82066593D01*
X72220418Y-82066597D01*
X72446636Y-82235941D01*
X72500586Y-82265400D01*
X72694645Y-82371365D01*
X72694646Y-82371365D01*
X72694651Y-82371368D01*
X72959416Y-82470120D01*
X72959420Y-82470121D01*
X72959426Y-82470123D01*
X73222098Y-82527263D01*
X73235539Y-82530187D01*
X73446847Y-82545300D01*
X73446849Y-82545300D01*
X73587951Y-82545300D01*
X73587953Y-82545300D01*
X73799261Y-82530187D01*
X73881993Y-82512189D01*
X74075373Y-82470123D01*
X74075376Y-82470121D01*
X74075384Y-82470120D01*
X74340149Y-82371368D01*
X74588164Y-82235941D01*
X74814382Y-82066597D01*
X75014197Y-81866782D01*
X75183541Y-81640564D01*
X75318968Y-81392549D01*
X75417720Y-81127784D01*
X75417721Y-81127776D01*
X75417723Y-81127773D01*
X75477785Y-80851669D01*
X75477787Y-80851661D01*
X75497946Y-80569800D01*
X136006890Y-80569800D01*
X136026882Y-80772791D01*
X136086095Y-80967989D01*
X136182242Y-81147866D01*
X136182248Y-81147876D01*
X136311648Y-81305552D01*
X136469324Y-81434952D01*
X136469330Y-81434955D01*
X136469333Y-81434957D01*
X136649210Y-81531104D01*
X136649211Y-81531104D01*
X136649214Y-81531106D01*
X136844407Y-81590317D01*
X136996532Y-81605300D01*
X136996538Y-81605300D01*
X137098262Y-81605300D01*
X137098268Y-81605300D01*
X137250393Y-81590317D01*
X137445586Y-81531106D01*
X137625476Y-81434952D01*
X137783152Y-81305552D01*
X137912552Y-81147876D01*
X138008706Y-80967986D01*
X138067917Y-80772793D01*
X138087910Y-80569800D01*
X138067917Y-80366807D01*
X138008706Y-80171614D01*
X137923297Y-80011826D01*
X137912557Y-79991733D01*
X137912551Y-79991723D01*
X137783152Y-79834048D01*
X137625476Y-79704648D01*
X137625466Y-79704642D01*
X137445589Y-79608495D01*
X137445590Y-79608495D01*
X137250390Y-79549282D01*
X137250391Y-79549282D01*
X137098275Y-79534300D01*
X137098268Y-79534300D01*
X136996532Y-79534300D01*
X136996524Y-79534300D01*
X136844408Y-79549282D01*
X136649210Y-79608495D01*
X136469333Y-79704642D01*
X136469323Y-79704648D01*
X136311648Y-79834048D01*
X136182248Y-79991723D01*
X136182242Y-79991733D01*
X136086095Y-80171610D01*
X136026882Y-80366808D01*
X136006890Y-80569800D01*
X75497946Y-80569800D01*
X75477787Y-80287939D01*
X75452481Y-80171610D01*
X75417723Y-80011826D01*
X75417721Y-80011820D01*
X75417720Y-80011816D01*
X75318968Y-79747051D01*
X75183541Y-79499036D01*
X75014197Y-79272818D01*
X75014193Y-79272814D01*
X75014191Y-79272811D01*
X74814388Y-79073008D01*
X74814384Y-79073005D01*
X74814382Y-79073003D01*
X74588164Y-78903659D01*
X74588162Y-78903658D01*
X74588161Y-78903657D01*
X74340154Y-78768234D01*
X74075373Y-78669476D01*
X73799269Y-78609414D01*
X73799246Y-78609411D01*
X73616191Y-78596319D01*
X73587953Y-78594300D01*
X73446847Y-78594300D01*
X73420377Y-78596193D01*
X73235553Y-78609411D01*
X73235530Y-78609414D01*
X72959426Y-78669476D01*
X72694645Y-78768234D01*
X72446638Y-78903657D01*
X72220411Y-79073008D01*
X72020608Y-79272811D01*
X71851257Y-79499038D01*
X71715834Y-79747045D01*
X71617076Y-80011826D01*
X71557014Y-80287930D01*
X71557011Y-80287953D01*
X71536854Y-80569794D01*
X71536854Y-80569805D01*
X53340000Y-80569805D01*
X53340000Y-78105002D01*
X57008161Y-78105002D01*
X57027875Y-78317752D01*
X57027876Y-78317760D01*
X57086344Y-78523251D01*
X57086350Y-78523267D01*
X57181582Y-78714520D01*
X57310343Y-78885027D01*
X57310346Y-78885030D01*
X57468243Y-79028973D01*
X57649903Y-79141453D01*
X57649905Y-79141453D01*
X57649907Y-79141455D01*
X57849142Y-79218639D01*
X58059168Y-79257900D01*
X58059172Y-79257900D01*
X58272828Y-79257900D01*
X58272832Y-79257900D01*
X58482858Y-79218639D01*
X58682093Y-79141455D01*
X58863754Y-79028975D01*
X59021653Y-78885031D01*
X59150415Y-78714524D01*
X59245653Y-78523260D01*
X59304125Y-78317752D01*
X59323839Y-78105000D01*
X59304125Y-77892248D01*
X59304123Y-77892242D01*
X59304123Y-77892239D01*
X59264950Y-77754563D01*
X59245653Y-77686740D01*
X59195362Y-77585741D01*
X59150417Y-77495479D01*
X59021656Y-77324972D01*
X59021653Y-77324969D01*
X58863756Y-77181026D01*
X58682096Y-77068546D01*
X58482858Y-76991361D01*
X58272832Y-76952100D01*
X58059168Y-76952100D01*
X57891147Y-76983508D01*
X57849141Y-76991361D01*
X57649904Y-77068546D01*
X57649903Y-77068546D01*
X57468243Y-77181026D01*
X57310346Y-77324969D01*
X57310343Y-77324972D01*
X57181582Y-77495479D01*
X57086350Y-77686732D01*
X57086344Y-77686748D01*
X57027876Y-77892239D01*
X57027875Y-77892247D01*
X57008161Y-78104997D01*
X57008161Y-78105002D01*
X53340000Y-78105002D01*
X53340000Y-76132055D01*
X100768100Y-76132055D01*
X100768101Y-76132057D01*
X100776972Y-76176659D01*
X100810764Y-76227232D01*
X100810765Y-76227232D01*
X100810766Y-76227234D01*
X100861342Y-76261028D01*
X100905943Y-76269900D01*
X101786056Y-76269899D01*
X101830658Y-76261028D01*
X101881234Y-76227234D01*
X101915028Y-76176658D01*
X101923900Y-76132057D01*
X101923900Y-75919605D01*
X126736854Y-75919605D01*
X126757011Y-76201446D01*
X126757014Y-76201469D01*
X126817076Y-76477573D01*
X126817079Y-76477583D01*
X126817080Y-76477584D01*
X126892069Y-76678639D01*
X126915834Y-76742354D01*
X127030365Y-76952100D01*
X127051259Y-76990364D01*
X127220603Y-77216582D01*
X127220605Y-77216584D01*
X127220608Y-77216588D01*
X127420411Y-77416391D01*
X127420414Y-77416393D01*
X127420418Y-77416397D01*
X127646636Y-77585741D01*
X127646638Y-77585742D01*
X127894645Y-77721165D01*
X127894646Y-77721165D01*
X127894651Y-77721168D01*
X128159416Y-77819920D01*
X128159420Y-77819921D01*
X128159426Y-77819923D01*
X128422098Y-77877063D01*
X128435539Y-77879987D01*
X128646847Y-77895100D01*
X128646849Y-77895100D01*
X128787951Y-77895100D01*
X128787953Y-77895100D01*
X128999261Y-77879987D01*
X129081993Y-77861989D01*
X129275373Y-77819923D01*
X129275376Y-77819921D01*
X129275384Y-77819920D01*
X129540149Y-77721168D01*
X129788164Y-77585741D01*
X130014382Y-77416397D01*
X130214197Y-77216582D01*
X130383541Y-76990364D01*
X130518968Y-76742349D01*
X130617720Y-76477584D01*
X130617721Y-76477576D01*
X130617723Y-76477573D01*
X130677785Y-76201469D01*
X130677787Y-76201461D01*
X130688902Y-76046052D01*
X130697946Y-75919605D01*
X130697946Y-75919594D01*
X130677788Y-75637753D01*
X130677787Y-75637739D01*
X130661964Y-75565002D01*
X140904863Y-75565002D01*
X140924569Y-75777659D01*
X140924570Y-75777668D01*
X140983012Y-75983069D01*
X140983016Y-75983080D01*
X141078213Y-76174261D01*
X141084888Y-76183099D01*
X141084889Y-76183099D01*
X141493856Y-75774131D01*
X141540477Y-75752391D01*
X141590164Y-75765705D01*
X141610293Y-75786649D01*
X141610294Y-75786650D01*
X141680438Y-75895797D01*
X141680441Y-75895800D01*
X141789097Y-75989950D01*
X141789100Y-75989952D01*
X141832928Y-76009968D01*
X141869588Y-76046052D01*
X141874478Y-76097259D01*
X141854862Y-76131546D01*
X141446941Y-76539466D01*
X141446942Y-76539467D01*
X141546327Y-76601004D01*
X141745479Y-76678155D01*
X141955417Y-76717399D01*
X141955418Y-76717400D01*
X142168982Y-76717400D01*
X142168982Y-76717399D01*
X142378920Y-76678155D01*
X142578071Y-76601004D01*
X142578072Y-76601004D01*
X142677456Y-76539467D01*
X142677457Y-76539466D01*
X142269536Y-76131546D01*
X142247796Y-76084926D01*
X142261110Y-76035239D01*
X142291467Y-76009969D01*
X142335300Y-75989952D01*
X142443961Y-75895798D01*
X142514107Y-75786647D01*
X142555038Y-75755497D01*
X142606419Y-75757944D01*
X142630541Y-75774131D01*
X143039508Y-76183099D01*
X143039511Y-76183099D01*
X143046188Y-76174259D01*
X143141381Y-75983085D01*
X143141387Y-75983069D01*
X143199829Y-75777668D01*
X143199830Y-75777659D01*
X143219537Y-75565002D01*
X145019161Y-75565002D01*
X145038875Y-75777752D01*
X145038876Y-75777760D01*
X145097344Y-75983251D01*
X145097350Y-75983267D01*
X145192582Y-76174520D01*
X145321343Y-76345027D01*
X145321346Y-76345030D01*
X145479243Y-76488973D01*
X145660903Y-76601453D01*
X145660905Y-76601453D01*
X145660907Y-76601455D01*
X145860142Y-76678639D01*
X146070168Y-76717900D01*
X146070172Y-76717900D01*
X146283828Y-76717900D01*
X146283832Y-76717900D01*
X146493858Y-76678639D01*
X146693093Y-76601455D01*
X146874754Y-76488975D01*
X147032653Y-76345031D01*
X147161415Y-76174524D01*
X147256653Y-75983260D01*
X147295827Y-75845575D01*
X147315123Y-75777760D01*
X147315123Y-75777758D01*
X147315125Y-75777752D01*
X147334839Y-75565000D01*
X147315125Y-75352248D01*
X147315123Y-75352242D01*
X147315123Y-75352239D01*
X147259506Y-75156767D01*
X147256653Y-75146740D01*
X147244818Y-75122972D01*
X147161417Y-74955479D01*
X147032656Y-74784972D01*
X147032653Y-74784969D01*
X146874756Y-74641026D01*
X146693096Y-74528546D01*
X146493858Y-74451361D01*
X146283832Y-74412100D01*
X146070168Y-74412100D01*
X145902147Y-74443508D01*
X145860141Y-74451361D01*
X145660904Y-74528546D01*
X145660903Y-74528546D01*
X145479243Y-74641026D01*
X145321346Y-74784969D01*
X145321343Y-74784972D01*
X145192582Y-74955479D01*
X145097350Y-75146732D01*
X145097344Y-75146748D01*
X145038876Y-75352239D01*
X145038875Y-75352247D01*
X145019161Y-75564997D01*
X145019161Y-75565002D01*
X143219537Y-75565002D01*
X143219537Y-75564997D01*
X143199830Y-75352340D01*
X143199829Y-75352331D01*
X143141387Y-75146930D01*
X143141383Y-75146919D01*
X143046189Y-74955744D01*
X143039509Y-74946899D01*
X143039508Y-74946899D01*
X142630541Y-75355867D01*
X142583921Y-75377607D01*
X142534234Y-75364293D01*
X142514105Y-75343349D01*
X142443962Y-75234203D01*
X142443958Y-75234199D01*
X142335302Y-75140049D01*
X142335297Y-75140046D01*
X142291470Y-75120031D01*
X142254809Y-75083948D01*
X142249919Y-75032741D01*
X142269535Y-74998452D01*
X142677457Y-74590531D01*
X142677456Y-74590530D01*
X142578078Y-74528998D01*
X142578071Y-74528995D01*
X142378920Y-74451844D01*
X142168982Y-74412600D01*
X141955418Y-74412600D01*
X141745479Y-74451844D01*
X141546331Y-74528993D01*
X141446941Y-74590531D01*
X141446941Y-74590532D01*
X141854863Y-74998453D01*
X141876603Y-75045073D01*
X141863289Y-75094760D01*
X141832929Y-75120031D01*
X141789100Y-75140047D01*
X141789097Y-75140049D01*
X141680441Y-75234199D01*
X141680437Y-75234203D01*
X141610294Y-75343350D01*
X141569361Y-75374503D01*
X141517979Y-75372055D01*
X141493858Y-75355868D01*
X141084889Y-74946898D01*
X141078207Y-74955748D01*
X140983018Y-75146914D01*
X140983012Y-75146930D01*
X140924570Y-75352331D01*
X140924569Y-75352340D01*
X140904863Y-75564997D01*
X140904863Y-75565002D01*
X130661964Y-75565002D01*
X130621199Y-75377607D01*
X130617723Y-75361626D01*
X130617721Y-75361620D01*
X130617720Y-75361616D01*
X130518968Y-75096851D01*
X130511922Y-75083948D01*
X130383542Y-74848838D01*
X130335733Y-74784972D01*
X130214197Y-74622618D01*
X130214193Y-74622614D01*
X130214191Y-74622611D01*
X130014388Y-74422808D01*
X130014384Y-74422805D01*
X130014382Y-74422803D01*
X129788164Y-74253459D01*
X129788162Y-74253458D01*
X129788161Y-74253457D01*
X129540154Y-74118034D01*
X129403055Y-74066899D01*
X129275384Y-74019280D01*
X129275383Y-74019279D01*
X129275373Y-74019276D01*
X128999269Y-73959214D01*
X128999246Y-73959211D01*
X128816191Y-73946119D01*
X128787953Y-73944100D01*
X128646847Y-73944100D01*
X128620377Y-73945993D01*
X128435553Y-73959211D01*
X128435530Y-73959214D01*
X128159426Y-74019276D01*
X127894645Y-74118034D01*
X127646638Y-74253457D01*
X127420411Y-74422808D01*
X127220608Y-74622611D01*
X127051257Y-74848838D01*
X126915834Y-75096845D01*
X126817076Y-75361626D01*
X126757014Y-75637730D01*
X126757011Y-75637753D01*
X126736854Y-75919594D01*
X126736854Y-75919605D01*
X101923900Y-75919605D01*
X101923899Y-75251944D01*
X101915028Y-75207342D01*
X101881234Y-75156766D01*
X101830658Y-75122972D01*
X101830656Y-75122971D01*
X101786057Y-75114100D01*
X100905944Y-75114100D01*
X100905942Y-75114101D01*
X100861340Y-75122972D01*
X100810767Y-75156764D01*
X100776972Y-75207342D01*
X100776971Y-75207343D01*
X100768100Y-75251942D01*
X100768100Y-76132055D01*
X53340000Y-76132055D01*
X53340000Y-73929055D01*
X104063300Y-73929055D01*
X104063301Y-73929057D01*
X104072172Y-73973659D01*
X104105964Y-74024232D01*
X104105965Y-74024232D01*
X104105966Y-74024234D01*
X104156542Y-74058028D01*
X104201143Y-74066900D01*
X106263256Y-74066899D01*
X106307858Y-74058028D01*
X106358434Y-74024234D01*
X106392228Y-73973658D01*
X106401100Y-73929057D01*
X106401100Y-72898002D01*
X107914394Y-72898002D01*
X107934373Y-73113613D01*
X107934374Y-73113618D01*
X107993629Y-73321877D01*
X107993632Y-73321885D01*
X108090150Y-73515718D01*
X108099065Y-73527523D01*
X108444000Y-73182588D01*
X108490621Y-73160848D01*
X108540308Y-73174162D01*
X108562299Y-73198160D01*
X108563700Y-73200587D01*
X108659874Y-73325925D01*
X108737893Y-73385790D01*
X108785212Y-73422099D01*
X108785217Y-73422101D01*
X108787639Y-73423500D01*
X108788725Y-73424795D01*
X108789123Y-73425100D01*
X108789055Y-73425188D01*
X108820702Y-73462907D01*
X108820700Y-73514347D01*
X108803210Y-73541798D01*
X108460919Y-73884088D01*
X108460920Y-73884089D01*
X108564768Y-73948389D01*
X108564769Y-73948390D01*
X108766680Y-74026611D01*
X108979536Y-74066399D01*
X108979537Y-74066400D01*
X109196063Y-74066400D01*
X109196063Y-74066399D01*
X109408919Y-74026611D01*
X109610824Y-73948393D01*
X109610833Y-73948388D01*
X109642056Y-73929055D01*
X113715300Y-73929055D01*
X113715301Y-73929057D01*
X113724172Y-73973659D01*
X113757964Y-74024232D01*
X113757965Y-74024232D01*
X113757966Y-74024234D01*
X113808542Y-74058028D01*
X113853143Y-74066900D01*
X115915256Y-74066899D01*
X115959858Y-74058028D01*
X116010434Y-74024234D01*
X116044228Y-73973658D01*
X116053100Y-73929057D01*
X116053100Y-72898002D01*
X117566394Y-72898002D01*
X117586373Y-73113613D01*
X117586374Y-73113618D01*
X117645629Y-73321877D01*
X117645632Y-73321885D01*
X117742150Y-73515718D01*
X117751065Y-73527523D01*
X118096000Y-73182588D01*
X118142621Y-73160848D01*
X118192308Y-73174162D01*
X118214299Y-73198160D01*
X118215700Y-73200587D01*
X118311874Y-73325925D01*
X118389893Y-73385790D01*
X118437212Y-73422099D01*
X118437217Y-73422101D01*
X118439639Y-73423500D01*
X118440725Y-73424795D01*
X118441123Y-73425100D01*
X118441055Y-73425188D01*
X118472702Y-73462907D01*
X118472700Y-73514347D01*
X118455210Y-73541798D01*
X118112919Y-73884088D01*
X118112920Y-73884089D01*
X118216768Y-73948389D01*
X118216769Y-73948390D01*
X118418680Y-74026611D01*
X118631536Y-74066399D01*
X118631537Y-74066400D01*
X118848063Y-74066400D01*
X118848063Y-74066399D01*
X119060919Y-74026611D01*
X119262824Y-73948393D01*
X119262833Y-73948388D01*
X119366678Y-73884089D01*
X119024388Y-73541799D01*
X119002648Y-73495178D01*
X119015962Y-73445491D01*
X119039968Y-73423496D01*
X119042384Y-73422100D01*
X119042388Y-73422099D01*
X119167725Y-73325925D01*
X119263899Y-73200589D01*
X119263901Y-73200582D01*
X119265293Y-73198173D01*
X119266587Y-73197086D01*
X119266900Y-73196679D01*
X119266990Y-73196748D01*
X119304693Y-73165102D01*
X119356133Y-73165094D01*
X119383598Y-73182589D01*
X119728533Y-73527524D01*
X119728534Y-73527524D01*
X119737450Y-73515719D01*
X119833967Y-73321885D01*
X119833970Y-73321877D01*
X119893225Y-73113618D01*
X119893226Y-73113613D01*
X119913206Y-72898002D01*
X119913206Y-72897997D01*
X119893226Y-72682386D01*
X119893225Y-72682381D01*
X119833970Y-72474122D01*
X119833967Y-72474114D01*
X119737448Y-72280279D01*
X119728534Y-72268475D01*
X119383598Y-72613411D01*
X119336978Y-72635150D01*
X119287291Y-72621836D01*
X119265300Y-72597839D01*
X119263901Y-72595417D01*
X119263899Y-72595412D01*
X119227590Y-72548093D01*
X119167725Y-72470074D01*
X119042387Y-72373900D01*
X119039960Y-72372499D01*
X119038873Y-72371204D01*
X119038477Y-72370900D01*
X119038544Y-72370812D01*
X119006896Y-72333093D01*
X119006898Y-72281653D01*
X119024388Y-72254200D01*
X119366678Y-71911909D01*
X119262831Y-71847610D01*
X119262830Y-71847609D01*
X119060919Y-71769388D01*
X118848063Y-71729600D01*
X118631536Y-71729600D01*
X118418680Y-71769388D01*
X118216765Y-71847611D01*
X118216764Y-71847611D01*
X118112920Y-71911909D01*
X118455211Y-72254200D01*
X118476951Y-72300821D01*
X118463637Y-72350508D01*
X118439643Y-72372497D01*
X118437212Y-72373900D01*
X118311874Y-72470074D01*
X118215702Y-72595408D01*
X118214302Y-72597834D01*
X118213007Y-72598920D01*
X118212700Y-72599321D01*
X118212611Y-72599252D01*
X118174898Y-72630901D01*
X118123458Y-72630903D01*
X118096000Y-72613411D01*
X117751065Y-72268475D01*
X117742148Y-72280283D01*
X117645632Y-72474114D01*
X117645629Y-72474122D01*
X117586374Y-72682381D01*
X117586373Y-72682386D01*
X117566394Y-72897997D01*
X117566394Y-72898002D01*
X116053100Y-72898002D01*
X116053099Y-71866944D01*
X116044228Y-71822342D01*
X116028129Y-71798249D01*
X116010435Y-71771767D01*
X116006875Y-71769388D01*
X115959858Y-71737972D01*
X115959856Y-71737971D01*
X115915257Y-71729100D01*
X113853144Y-71729100D01*
X113853142Y-71729101D01*
X113808540Y-71737972D01*
X113757967Y-71771764D01*
X113724172Y-71822342D01*
X113724171Y-71822343D01*
X113715300Y-71866942D01*
X113715300Y-73929055D01*
X109642056Y-73929055D01*
X109714678Y-73884089D01*
X109372388Y-73541799D01*
X109350648Y-73495178D01*
X109363962Y-73445491D01*
X109387968Y-73423496D01*
X109390384Y-73422100D01*
X109390388Y-73422099D01*
X109515725Y-73325925D01*
X109611899Y-73200589D01*
X109611901Y-73200582D01*
X109613293Y-73198173D01*
X109614587Y-73197086D01*
X109614900Y-73196679D01*
X109614990Y-73196748D01*
X109652693Y-73165102D01*
X109704133Y-73165094D01*
X109731598Y-73182589D01*
X110076533Y-73527524D01*
X110076534Y-73527524D01*
X110085450Y-73515719D01*
X110181967Y-73321885D01*
X110181970Y-73321877D01*
X110241225Y-73113618D01*
X110241226Y-73113613D01*
X110261206Y-72898002D01*
X110261206Y-72897997D01*
X110241226Y-72682386D01*
X110241225Y-72682381D01*
X110181970Y-72474122D01*
X110181967Y-72474114D01*
X110085448Y-72280279D01*
X110076534Y-72268475D01*
X109731598Y-72613411D01*
X109684978Y-72635150D01*
X109635291Y-72621836D01*
X109613300Y-72597839D01*
X109611901Y-72595417D01*
X109611899Y-72595412D01*
X109575590Y-72548093D01*
X109515725Y-72470074D01*
X109390387Y-72373900D01*
X109387960Y-72372499D01*
X109386873Y-72371204D01*
X109386477Y-72370900D01*
X109386544Y-72370812D01*
X109354896Y-72333093D01*
X109354898Y-72281653D01*
X109372388Y-72254200D01*
X109714678Y-71911909D01*
X109610831Y-71847610D01*
X109610830Y-71847609D01*
X109408919Y-71769388D01*
X109196063Y-71729600D01*
X108979536Y-71729600D01*
X108766680Y-71769388D01*
X108564765Y-71847611D01*
X108564764Y-71847611D01*
X108460920Y-71911909D01*
X108803211Y-72254200D01*
X108824951Y-72300821D01*
X108811637Y-72350508D01*
X108787643Y-72372497D01*
X108785212Y-72373900D01*
X108659874Y-72470074D01*
X108563702Y-72595408D01*
X108562302Y-72597834D01*
X108561007Y-72598920D01*
X108560700Y-72599321D01*
X108560611Y-72599252D01*
X108522898Y-72630901D01*
X108471458Y-72630903D01*
X108444000Y-72613411D01*
X108099065Y-72268475D01*
X108090148Y-72280283D01*
X107993632Y-72474114D01*
X107993629Y-72474122D01*
X107934374Y-72682381D01*
X107934373Y-72682386D01*
X107914394Y-72897997D01*
X107914394Y-72898002D01*
X106401100Y-72898002D01*
X106401099Y-71866944D01*
X106392228Y-71822342D01*
X106376129Y-71798249D01*
X106358435Y-71771767D01*
X106354875Y-71769388D01*
X106307858Y-71737972D01*
X106307856Y-71737971D01*
X106263257Y-71729100D01*
X104201144Y-71729100D01*
X104201142Y-71729101D01*
X104156540Y-71737972D01*
X104105967Y-71771764D01*
X104072172Y-71822342D01*
X104072171Y-71822343D01*
X104063300Y-71866942D01*
X104063300Y-73929055D01*
X53340000Y-73929055D01*
X53340000Y-69017000D01*
X93597600Y-69017000D01*
X93597600Y-70294671D01*
X93612524Y-70388899D01*
X93670394Y-70502474D01*
X93760525Y-70592605D01*
X93874101Y-70650475D01*
X93874099Y-70650475D01*
X93968328Y-70665399D01*
X93968336Y-70665400D01*
X93996000Y-70665400D01*
X93996000Y-69017000D01*
X94504000Y-69017000D01*
X94504000Y-70665400D01*
X94531664Y-70665400D01*
X94531671Y-70665399D01*
X94625899Y-70650475D01*
X94739474Y-70592605D01*
X94829605Y-70502474D01*
X94887475Y-70388899D01*
X94902393Y-70294710D01*
X95597100Y-70294710D01*
X95612043Y-70389056D01*
X95667895Y-70498671D01*
X95669984Y-70502771D01*
X95760229Y-70593016D01*
X95760231Y-70593017D01*
X95761298Y-70593792D01*
X95761905Y-70594692D01*
X95764415Y-70597202D01*
X95763927Y-70597689D01*
X95790065Y-70636436D01*
X95792300Y-70654633D01*
X95792300Y-71330178D01*
X95792063Y-71334391D01*
X95787453Y-71375304D01*
X95787453Y-71375310D01*
X95798688Y-71434686D01*
X95807693Y-71494429D01*
X95809355Y-71499816D01*
X95809310Y-71499829D01*
X95811200Y-71505574D01*
X95811245Y-71505559D01*
X95813105Y-71510877D01*
X95841339Y-71564299D01*
X95867557Y-71618741D01*
X95870735Y-71623403D01*
X95870696Y-71623429D01*
X95874192Y-71628356D01*
X95874230Y-71628329D01*
X95877577Y-71632864D01*
X95920308Y-71675594D01*
X95961405Y-71719886D01*
X95967781Y-71723567D01*
X95970970Y-71725409D01*
X95974489Y-71727712D01*
X96034179Y-71771764D01*
X96049714Y-71783229D01*
X96049717Y-71783231D01*
X96078676Y-71793363D01*
X96179947Y-71828800D01*
X96225905Y-71830519D01*
X96317820Y-71833959D01*
X96317820Y-71833958D01*
X96317824Y-71833959D01*
X96451098Y-71798249D01*
X96567924Y-71724842D01*
X96657923Y-71620262D01*
X96713098Y-71493799D01*
X96728547Y-71356693D01*
X96709011Y-71253446D01*
X96707700Y-71239465D01*
X96707700Y-70654633D01*
X96725293Y-70606295D01*
X96738702Y-70593792D01*
X96739765Y-70593018D01*
X96739771Y-70593016D01*
X96830016Y-70502771D01*
X96887957Y-70389055D01*
X96902900Y-70294708D01*
X96902900Y-67231292D01*
X96902900Y-67231291D01*
X96902900Y-66790910D01*
X97697100Y-66790910D01*
X97712043Y-66885256D01*
X97769984Y-66998970D01*
X97769984Y-66998971D01*
X97860229Y-67089216D01*
X97973943Y-67147156D01*
X97973945Y-67147157D01*
X98068292Y-67162100D01*
X98068296Y-67162100D01*
X99231704Y-67162100D01*
X99231708Y-67162100D01*
X99326055Y-67147157D01*
X99439771Y-67089216D01*
X99530016Y-66998971D01*
X99587957Y-66885255D01*
X99602900Y-66790908D01*
X99602900Y-65024002D01*
X103987794Y-65024002D01*
X104007773Y-65239613D01*
X104007774Y-65239618D01*
X104067029Y-65447877D01*
X104067032Y-65447885D01*
X104163550Y-65641718D01*
X104172465Y-65653523D01*
X104517400Y-65308588D01*
X104564021Y-65286848D01*
X104613708Y-65300162D01*
X104635699Y-65324160D01*
X104637100Y-65326587D01*
X104733274Y-65451925D01*
X104811293Y-65511790D01*
X104858612Y-65548099D01*
X104858617Y-65548101D01*
X104861039Y-65549500D01*
X104862125Y-65550795D01*
X104862523Y-65551100D01*
X104862455Y-65551188D01*
X104894102Y-65588907D01*
X104894100Y-65640347D01*
X104876610Y-65667798D01*
X104534319Y-66010088D01*
X104534320Y-66010089D01*
X104638168Y-66074389D01*
X104638169Y-66074390D01*
X104840080Y-66152611D01*
X105052936Y-66192399D01*
X105052937Y-66192400D01*
X105269463Y-66192400D01*
X105269463Y-66192399D01*
X105482319Y-66152611D01*
X105684224Y-66074393D01*
X105684233Y-66074388D01*
X105715456Y-66055055D01*
X107847900Y-66055055D01*
X107847901Y-66055057D01*
X107856772Y-66099659D01*
X107890564Y-66150232D01*
X107890565Y-66150232D01*
X107890566Y-66150234D01*
X107941142Y-66184028D01*
X107985743Y-66192900D01*
X110047856Y-66192899D01*
X110092458Y-66184028D01*
X110143034Y-66150234D01*
X110176828Y-66099658D01*
X110185700Y-66055057D01*
X110185700Y-65024002D01*
X113766794Y-65024002D01*
X113786773Y-65239613D01*
X113786774Y-65239618D01*
X113846029Y-65447877D01*
X113846032Y-65447885D01*
X113942550Y-65641718D01*
X113951465Y-65653523D01*
X114296400Y-65308588D01*
X114343021Y-65286848D01*
X114392708Y-65300162D01*
X114414699Y-65324160D01*
X114416100Y-65326587D01*
X114512274Y-65451925D01*
X114590293Y-65511790D01*
X114637612Y-65548099D01*
X114637617Y-65548101D01*
X114640039Y-65549500D01*
X114641125Y-65550795D01*
X114641523Y-65551100D01*
X114641455Y-65551188D01*
X114673102Y-65588907D01*
X114673100Y-65640347D01*
X114655610Y-65667798D01*
X114313319Y-66010088D01*
X114313320Y-66010089D01*
X114417168Y-66074389D01*
X114417169Y-66074390D01*
X114619080Y-66152611D01*
X114831936Y-66192399D01*
X114831937Y-66192400D01*
X115048463Y-66192400D01*
X115048463Y-66192399D01*
X115261319Y-66152611D01*
X115463224Y-66074393D01*
X115463233Y-66074388D01*
X115494456Y-66055055D01*
X117626900Y-66055055D01*
X117626901Y-66055057D01*
X117635772Y-66099659D01*
X117669564Y-66150232D01*
X117669565Y-66150232D01*
X117669566Y-66150234D01*
X117720142Y-66184028D01*
X117764743Y-66192900D01*
X119826856Y-66192899D01*
X119871458Y-66184028D01*
X119922034Y-66150234D01*
X119955828Y-66099658D01*
X119964700Y-66055057D01*
X119964699Y-63992944D01*
X119955828Y-63948342D01*
X119922034Y-63897766D01*
X119871458Y-63863972D01*
X119871456Y-63863971D01*
X119826857Y-63855100D01*
X117764744Y-63855100D01*
X117764742Y-63855101D01*
X117720140Y-63863972D01*
X117669567Y-63897764D01*
X117635772Y-63948342D01*
X117635771Y-63948343D01*
X117626900Y-63992942D01*
X117626900Y-66055055D01*
X115494456Y-66055055D01*
X115567078Y-66010089D01*
X115224788Y-65667799D01*
X115203048Y-65621178D01*
X115216362Y-65571491D01*
X115240368Y-65549496D01*
X115242784Y-65548100D01*
X115242788Y-65548099D01*
X115368125Y-65451925D01*
X115464299Y-65326589D01*
X115464301Y-65326582D01*
X115465693Y-65324173D01*
X115466987Y-65323086D01*
X115467300Y-65322679D01*
X115467390Y-65322748D01*
X115505093Y-65291102D01*
X115556533Y-65291094D01*
X115583998Y-65308589D01*
X115928933Y-65653524D01*
X115928934Y-65653524D01*
X115937850Y-65641719D01*
X116034367Y-65447885D01*
X116034370Y-65447877D01*
X116093625Y-65239618D01*
X116093626Y-65239613D01*
X116113606Y-65024002D01*
X116113606Y-65023997D01*
X116093626Y-64808386D01*
X116093625Y-64808381D01*
X116034370Y-64600122D01*
X116034367Y-64600114D01*
X115937848Y-64406279D01*
X115928934Y-64394475D01*
X115583998Y-64739411D01*
X115537378Y-64761150D01*
X115487691Y-64747836D01*
X115465700Y-64723839D01*
X115464301Y-64721417D01*
X115464299Y-64721412D01*
X115411399Y-64652471D01*
X115368125Y-64596074D01*
X115242787Y-64499900D01*
X115240360Y-64498499D01*
X115239273Y-64497204D01*
X115238877Y-64496900D01*
X115238944Y-64496812D01*
X115207296Y-64459093D01*
X115207298Y-64407653D01*
X115224788Y-64380200D01*
X115567078Y-64037909D01*
X115463231Y-63973610D01*
X115463230Y-63973609D01*
X115261319Y-63895388D01*
X115048463Y-63855600D01*
X114831936Y-63855600D01*
X114619080Y-63895388D01*
X114417165Y-63973611D01*
X114417164Y-63973611D01*
X114313320Y-64037909D01*
X114655611Y-64380200D01*
X114677351Y-64426821D01*
X114664037Y-64476508D01*
X114640043Y-64498497D01*
X114637612Y-64499900D01*
X114512274Y-64596074D01*
X114416102Y-64721408D01*
X114414702Y-64723834D01*
X114413407Y-64724920D01*
X114413100Y-64725321D01*
X114413011Y-64725252D01*
X114375298Y-64756901D01*
X114323858Y-64756903D01*
X114296400Y-64739411D01*
X113951465Y-64394475D01*
X113942548Y-64406283D01*
X113846032Y-64600114D01*
X113846029Y-64600122D01*
X113786774Y-64808381D01*
X113786773Y-64808386D01*
X113766794Y-65023997D01*
X113766794Y-65024002D01*
X110185700Y-65024002D01*
X110185699Y-63992944D01*
X110176828Y-63948342D01*
X110143034Y-63897766D01*
X110092458Y-63863972D01*
X110092456Y-63863971D01*
X110047857Y-63855100D01*
X107985744Y-63855100D01*
X107985742Y-63855101D01*
X107941140Y-63863972D01*
X107890567Y-63897764D01*
X107856772Y-63948342D01*
X107856771Y-63948343D01*
X107847900Y-63992942D01*
X107847900Y-66055055D01*
X105715456Y-66055055D01*
X105788078Y-66010089D01*
X105445788Y-65667799D01*
X105424048Y-65621178D01*
X105437362Y-65571491D01*
X105461368Y-65549496D01*
X105463784Y-65548100D01*
X105463788Y-65548099D01*
X105589125Y-65451925D01*
X105685299Y-65326589D01*
X105685301Y-65326582D01*
X105686693Y-65324173D01*
X105687987Y-65323086D01*
X105688300Y-65322679D01*
X105688390Y-65322748D01*
X105726093Y-65291102D01*
X105777533Y-65291094D01*
X105804998Y-65308589D01*
X106149933Y-65653524D01*
X106149934Y-65653524D01*
X106158850Y-65641719D01*
X106255367Y-65447885D01*
X106255370Y-65447877D01*
X106314625Y-65239618D01*
X106314626Y-65239613D01*
X106334606Y-65024002D01*
X106334606Y-65023997D01*
X106314626Y-64808386D01*
X106314625Y-64808381D01*
X106255370Y-64600122D01*
X106255367Y-64600114D01*
X106158848Y-64406279D01*
X106149934Y-64394475D01*
X105804998Y-64739411D01*
X105758378Y-64761150D01*
X105708691Y-64747836D01*
X105686700Y-64723839D01*
X105685301Y-64721417D01*
X105685299Y-64721412D01*
X105632399Y-64652471D01*
X105589125Y-64596074D01*
X105463787Y-64499900D01*
X105461360Y-64498499D01*
X105460273Y-64497204D01*
X105459877Y-64496900D01*
X105459944Y-64496812D01*
X105428296Y-64459093D01*
X105428298Y-64407653D01*
X105445788Y-64380200D01*
X105788078Y-64037909D01*
X105684231Y-63973610D01*
X105684230Y-63973609D01*
X105482319Y-63895388D01*
X105269463Y-63855600D01*
X105052936Y-63855600D01*
X104840080Y-63895388D01*
X104638165Y-63973611D01*
X104638164Y-63973611D01*
X104534320Y-64037909D01*
X104876611Y-64380200D01*
X104898351Y-64426821D01*
X104885037Y-64476508D01*
X104861043Y-64498497D01*
X104858612Y-64499900D01*
X104733274Y-64596074D01*
X104637102Y-64721408D01*
X104635702Y-64723834D01*
X104634407Y-64724920D01*
X104634100Y-64725321D01*
X104634011Y-64725252D01*
X104596298Y-64756901D01*
X104544858Y-64756903D01*
X104517400Y-64739411D01*
X104172465Y-64394475D01*
X104163548Y-64406283D01*
X104067032Y-64600114D01*
X104067029Y-64600122D01*
X104007774Y-64808381D01*
X104007773Y-64808386D01*
X103987794Y-65023997D01*
X103987794Y-65024002D01*
X99602900Y-65024002D01*
X99602900Y-64227492D01*
X99587957Y-64133145D01*
X99530016Y-64019429D01*
X99524922Y-64014335D01*
X99503185Y-63967713D01*
X99502899Y-63961163D01*
X99502899Y-61531299D01*
X99502898Y-61531287D01*
X99487958Y-61436950D01*
X99487957Y-61436948D01*
X99487957Y-61436946D01*
X99430016Y-61323230D01*
X99339770Y-61232984D01*
X99226054Y-61175043D01*
X99226056Y-61175043D01*
X99178880Y-61167571D01*
X99131707Y-61160100D01*
X99131705Y-61160100D01*
X98068299Y-61160100D01*
X98068287Y-61160101D01*
X97973950Y-61175041D01*
X97973948Y-61175042D01*
X97860229Y-61232984D01*
X97769984Y-61323229D01*
X97712043Y-61436944D01*
X97697100Y-61531290D01*
X97697100Y-66790910D01*
X96902900Y-66790910D01*
X96902900Y-65227492D01*
X96887957Y-65133145D01*
X96830016Y-65019429D01*
X96739771Y-64929184D01*
X96739770Y-64929183D01*
X96738699Y-64928405D01*
X96738091Y-64927504D01*
X96735585Y-64924998D01*
X96736072Y-64924510D01*
X96709933Y-64885761D01*
X96707699Y-64867566D01*
X96707699Y-64761150D01*
X96707699Y-64604003D01*
X96707935Y-64599823D01*
X96712547Y-64558893D01*
X96701311Y-64499513D01*
X96692306Y-64439767D01*
X96692303Y-64439761D01*
X96690644Y-64434381D01*
X96690690Y-64434366D01*
X96688802Y-64428627D01*
X96688756Y-64428644D01*
X96686895Y-64423325D01*
X96686895Y-64423324D01*
X96658662Y-64369905D01*
X96632441Y-64315456D01*
X96632437Y-64315451D01*
X96629267Y-64310802D01*
X96629306Y-64310774D01*
X96625808Y-64305843D01*
X96625770Y-64305872D01*
X96622423Y-64301337D01*
X96579704Y-64258619D01*
X96538596Y-64214315D01*
X96538595Y-64214314D01*
X96535507Y-64212531D01*
X96518256Y-64202571D01*
X96514735Y-64200266D01*
X96456886Y-64157570D01*
X96456882Y-64157568D01*
X96326650Y-64111999D01*
X96188777Y-64106839D01*
X96055501Y-64142551D01*
X95938675Y-64215958D01*
X95848676Y-64320539D01*
X95793501Y-64447002D01*
X95778053Y-64584104D01*
X95778053Y-64584110D01*
X95790989Y-64652471D01*
X95792300Y-64666453D01*
X95792300Y-64867566D01*
X95774707Y-64915904D01*
X95761306Y-64928400D01*
X95760234Y-64929178D01*
X95669983Y-65019430D01*
X95612043Y-65133143D01*
X95597100Y-65227489D01*
X95597100Y-70294710D01*
X94902393Y-70294710D01*
X94902399Y-70294671D01*
X94902400Y-70294664D01*
X94902400Y-69017000D01*
X94504000Y-69017000D01*
X93996000Y-69017000D01*
X93597600Y-69017000D01*
X53340000Y-69017000D01*
X53340000Y-68013200D01*
X93597600Y-68013200D01*
X93597600Y-68509000D01*
X93996000Y-68509000D01*
X93996000Y-68013200D01*
X94504000Y-68013200D01*
X94504000Y-68509000D01*
X94902400Y-68509000D01*
X94902400Y-68013200D01*
X94504000Y-68013200D01*
X93996000Y-68013200D01*
X93597600Y-68013200D01*
X53340000Y-68013200D01*
X53340000Y-67505200D01*
X93597600Y-67505200D01*
X93996000Y-67505200D01*
X93996000Y-64856800D01*
X94504000Y-64856800D01*
X94504000Y-67505200D01*
X94902400Y-67505200D01*
X94902400Y-65227536D01*
X94902399Y-65227528D01*
X94887475Y-65133300D01*
X94829605Y-65019725D01*
X94739474Y-64929594D01*
X94625898Y-64871724D01*
X94625900Y-64871724D01*
X94531671Y-64856800D01*
X94504000Y-64856800D01*
X93996000Y-64856800D01*
X93968328Y-64856800D01*
X93874100Y-64871724D01*
X93760525Y-64929594D01*
X93670394Y-65019725D01*
X93612524Y-65133300D01*
X93597600Y-65227528D01*
X93597600Y-67505200D01*
X53340000Y-67505200D01*
X53340000Y-66790910D01*
X90897100Y-66790910D01*
X90912043Y-66885256D01*
X90969984Y-66998970D01*
X90969984Y-66998971D01*
X91060229Y-67089216D01*
X91173943Y-67147156D01*
X91173945Y-67147157D01*
X91268292Y-67162100D01*
X91268296Y-67162100D01*
X92431704Y-67162100D01*
X92431708Y-67162100D01*
X92526055Y-67147157D01*
X92639771Y-67089216D01*
X92730016Y-66998971D01*
X92787957Y-66885255D01*
X92802900Y-66790908D01*
X92802900Y-64227492D01*
X92802900Y-64212537D01*
X92802899Y-64212531D01*
X92802899Y-61531299D01*
X92802898Y-61531287D01*
X92787958Y-61436950D01*
X92787957Y-61436948D01*
X92787957Y-61436946D01*
X92730016Y-61323230D01*
X92639770Y-61232984D01*
X92526054Y-61175043D01*
X92526056Y-61175043D01*
X92478880Y-61167571D01*
X92431707Y-61160100D01*
X92431705Y-61160100D01*
X91368299Y-61160100D01*
X91368287Y-61160101D01*
X91273950Y-61175041D01*
X91273948Y-61175042D01*
X91160229Y-61232984D01*
X91069984Y-61323229D01*
X91012043Y-61436944D01*
X90997100Y-61531290D01*
X90997100Y-63961164D01*
X90979507Y-64009502D01*
X90975074Y-64014338D01*
X90969985Y-64019426D01*
X90912043Y-64133143D01*
X90897100Y-64227489D01*
X90897100Y-66790910D01*
X53340000Y-66790910D01*
X53340000Y-64337200D01*
X53357593Y-64288862D01*
X53402142Y-64263142D01*
X53415200Y-64262000D01*
X60960000Y-64262000D01*
X65024000Y-60452000D01*
X65024000Y-59919605D01*
X71536854Y-59919605D01*
X71557011Y-60201446D01*
X71557014Y-60201469D01*
X71617076Y-60477573D01*
X71715834Y-60742354D01*
X71851257Y-60990361D01*
X71851259Y-60990364D01*
X72020603Y-61216582D01*
X72020605Y-61216584D01*
X72020608Y-61216588D01*
X72220411Y-61416391D01*
X72220414Y-61416393D01*
X72220418Y-61416397D01*
X72446636Y-61585741D01*
X72446638Y-61585742D01*
X72694645Y-61721165D01*
X72694646Y-61721165D01*
X72694651Y-61721168D01*
X72959416Y-61819920D01*
X72959420Y-61819921D01*
X72959426Y-61819923D01*
X73222098Y-61877063D01*
X73235539Y-61879987D01*
X73446847Y-61895100D01*
X73446849Y-61895100D01*
X73587951Y-61895100D01*
X73587953Y-61895100D01*
X73799261Y-61879987D01*
X73881993Y-61861989D01*
X74075373Y-61819923D01*
X74075376Y-61819921D01*
X74075384Y-61819920D01*
X74340149Y-61721168D01*
X74588164Y-61585741D01*
X74814382Y-61416397D01*
X75014197Y-61216582D01*
X75183541Y-60990364D01*
X75318968Y-60742349D01*
X75417720Y-60477584D01*
X75417721Y-60477576D01*
X75417723Y-60477573D01*
X75477785Y-60201469D01*
X75477787Y-60201461D01*
X75497946Y-59919600D01*
X75477787Y-59637739D01*
X75452481Y-59521410D01*
X75417723Y-59361626D01*
X75417721Y-59361620D01*
X75417720Y-59361616D01*
X75318968Y-59096851D01*
X75183541Y-58848836D01*
X75014197Y-58622618D01*
X75014193Y-58622614D01*
X75014191Y-58622611D01*
X74814388Y-58422808D01*
X74814384Y-58422805D01*
X74814382Y-58422803D01*
X74588164Y-58253459D01*
X74588162Y-58253458D01*
X74588161Y-58253457D01*
X74340154Y-58118034D01*
X74075373Y-58019276D01*
X73799269Y-57959214D01*
X73799246Y-57959211D01*
X73616191Y-57946119D01*
X73587953Y-57944100D01*
X73446847Y-57944100D01*
X73420377Y-57945993D01*
X73235553Y-57959211D01*
X73235530Y-57959214D01*
X72959426Y-58019276D01*
X72694645Y-58118034D01*
X72446638Y-58253457D01*
X72220411Y-58422808D01*
X72020608Y-58622611D01*
X71851257Y-58848838D01*
X71715834Y-59096845D01*
X71617076Y-59361626D01*
X71557014Y-59637730D01*
X71557011Y-59637753D01*
X71536854Y-59919594D01*
X71536854Y-59919605D01*
X65024000Y-59919605D01*
X65024000Y-54995900D01*
X65041593Y-54947562D01*
X65086142Y-54921842D01*
X65099200Y-54920700D01*
X137084800Y-54920700D01*
X137133138Y-54938293D01*
G37*
%TD.AperFunction*%
%TA.AperFunction,Conductor*%
G36*
X148982938Y-84601660D02*
G01*
X149008658Y-84646209D01*
X149009800Y-84659267D01*
X149009800Y-113210867D01*
X148992207Y-113259205D01*
X148947658Y-113284925D01*
X148934600Y-113286067D01*
X139775200Y-113286067D01*
X139726862Y-113268474D01*
X139701142Y-113223925D01*
X139700000Y-113210867D01*
X139700000Y-109448600D01*
X140320400Y-109448600D01*
X140320400Y-112384612D01*
X140329241Y-112429062D01*
X140329242Y-112429064D01*
X140362926Y-112479473D01*
X140413335Y-112513157D01*
X140413337Y-112513158D01*
X140457787Y-112522000D01*
X143888800Y-112522000D01*
X143888800Y-109448600D01*
X144396800Y-109448600D01*
X144396800Y-112522000D01*
X147827813Y-112522000D01*
X147872262Y-112513158D01*
X147872264Y-112513157D01*
X147922673Y-112479473D01*
X147956357Y-112429064D01*
X147956358Y-112429062D01*
X147965200Y-112384612D01*
X147965200Y-109448600D01*
X144396800Y-109448600D01*
X143888800Y-109448600D01*
X140320400Y-109448600D01*
X139700000Y-109448600D01*
X139700000Y-108940600D01*
X140320400Y-108940600D01*
X143888800Y-108940600D01*
X143888800Y-105867200D01*
X144396800Y-105867200D01*
X144396800Y-108940600D01*
X147965200Y-108940600D01*
X147965200Y-106004587D01*
X147956358Y-105960137D01*
X147956357Y-105960135D01*
X147922673Y-105909726D01*
X147872264Y-105876042D01*
X147872262Y-105876041D01*
X147827813Y-105867200D01*
X144396800Y-105867200D01*
X143888800Y-105867200D01*
X140457787Y-105867200D01*
X140413337Y-105876041D01*
X140413335Y-105876042D01*
X140362926Y-105909726D01*
X140329242Y-105960135D01*
X140329241Y-105960137D01*
X140320400Y-106004587D01*
X140320400Y-108940600D01*
X139700000Y-108940600D01*
X139700000Y-84659267D01*
X139717593Y-84610929D01*
X139762142Y-84585209D01*
X139775200Y-84584067D01*
X148934600Y-84584067D01*
X148982938Y-84601660D01*
G37*
%TD.AperFunction*%
%TA.AperFunction,Conductor*%
G36*
X130529138Y-83837593D02*
G01*
X130554858Y-83882142D01*
X130556000Y-83895200D01*
X130556000Y-87935800D01*
X130538407Y-87984138D01*
X130493858Y-88009858D01*
X130480800Y-88011000D01*
X120890800Y-88011000D01*
X120842462Y-87993407D01*
X120816742Y-87948858D01*
X120815600Y-87935800D01*
X120815600Y-87376000D01*
X122551121Y-87376000D01*
X122575518Y-87431255D01*
X122575520Y-87431258D01*
X122648741Y-87504479D01*
X122648744Y-87504481D01*
X122743485Y-87546313D01*
X122743483Y-87546313D01*
X122766644Y-87548999D01*
X123379000Y-87548999D01*
X123379000Y-87376000D01*
X123887000Y-87376000D01*
X123887000Y-87548999D01*
X124499349Y-87548999D01*
X124522521Y-87546312D01*
X124617250Y-87504484D01*
X124617258Y-87504479D01*
X124690479Y-87431258D01*
X124690481Y-87431255D01*
X124714879Y-87376000D01*
X123887000Y-87376000D01*
X123379000Y-87376000D01*
X122551121Y-87376000D01*
X120815600Y-87376000D01*
X120815600Y-86868000D01*
X122551121Y-86868000D01*
X123379000Y-86868000D01*
X123379000Y-86695000D01*
X123887000Y-86695000D01*
X123887000Y-86868000D01*
X124714879Y-86868000D01*
X124690481Y-86812744D01*
X124690479Y-86812741D01*
X124617258Y-86739520D01*
X124617255Y-86739518D01*
X124522514Y-86697686D01*
X124522516Y-86697686D01*
X124499355Y-86695000D01*
X123887000Y-86695000D01*
X123379000Y-86695000D01*
X122766651Y-86695000D01*
X122743478Y-86697687D01*
X122648749Y-86739515D01*
X122648741Y-86739520D01*
X122575520Y-86812741D01*
X122575518Y-86812744D01*
X122551121Y-86868000D01*
X120815600Y-86868000D01*
X120815600Y-86161255D01*
X120815600Y-86106000D01*
X122551121Y-86106000D01*
X122575518Y-86161255D01*
X122575520Y-86161258D01*
X122648741Y-86234479D01*
X122648744Y-86234481D01*
X122743485Y-86276313D01*
X122743483Y-86276313D01*
X122766644Y-86278999D01*
X123379000Y-86278999D01*
X123379000Y-86106000D01*
X123887000Y-86106000D01*
X123887000Y-86278999D01*
X124499349Y-86278999D01*
X124522521Y-86276312D01*
X124617250Y-86234484D01*
X124617258Y-86234479D01*
X124690479Y-86161258D01*
X124690481Y-86161255D01*
X124714879Y-86106000D01*
X123887000Y-86106000D01*
X123379000Y-86106000D01*
X122551121Y-86106000D01*
X120815600Y-86106000D01*
X120815600Y-85598000D01*
X122551121Y-85598000D01*
X123379000Y-85598000D01*
X123379000Y-85425000D01*
X123887000Y-85425000D01*
X123887000Y-85598000D01*
X124714879Y-85598000D01*
X124690481Y-85542744D01*
X124690479Y-85542741D01*
X124617258Y-85469520D01*
X124617255Y-85469518D01*
X124522514Y-85427686D01*
X124522516Y-85427686D01*
X124499355Y-85425000D01*
X123887000Y-85425000D01*
X123379000Y-85425000D01*
X122766651Y-85425000D01*
X122743478Y-85427687D01*
X122648749Y-85469515D01*
X122648741Y-85469520D01*
X122575520Y-85542741D01*
X122575518Y-85542744D01*
X122551121Y-85598000D01*
X120815600Y-85598000D01*
X120815600Y-85174500D01*
X126785501Y-85174500D01*
X126785501Y-85381288D01*
X126796176Y-85454557D01*
X126796177Y-85454560D01*
X126851437Y-85567596D01*
X126851438Y-85567598D01*
X126940403Y-85656563D01*
X127053439Y-85711822D01*
X127126717Y-85722499D01*
X128333500Y-85722499D01*
X128333500Y-85174500D01*
X128841500Y-85174500D01*
X128841500Y-85722499D01*
X130048276Y-85722499D01*
X130048288Y-85722498D01*
X130121557Y-85711823D01*
X130121560Y-85711822D01*
X130234596Y-85656562D01*
X130234598Y-85656561D01*
X130323563Y-85567596D01*
X130378822Y-85454561D01*
X130378822Y-85454559D01*
X130389499Y-85381287D01*
X130389500Y-85381277D01*
X130389500Y-85174500D01*
X128841500Y-85174500D01*
X128333500Y-85174500D01*
X126785501Y-85174500D01*
X120815600Y-85174500D01*
X120815600Y-84836000D01*
X122551121Y-84836000D01*
X122575518Y-84891255D01*
X122575520Y-84891258D01*
X122648741Y-84964479D01*
X122648744Y-84964481D01*
X122743485Y-85006313D01*
X122743483Y-85006313D01*
X122766644Y-85008999D01*
X123379000Y-85008999D01*
X123379000Y-84836000D01*
X123887000Y-84836000D01*
X123887000Y-85008999D01*
X124499349Y-85008999D01*
X124522521Y-85006312D01*
X124617250Y-84964484D01*
X124617258Y-84964479D01*
X124690479Y-84891258D01*
X124690481Y-84891255D01*
X124714879Y-84836000D01*
X123887000Y-84836000D01*
X123379000Y-84836000D01*
X122551121Y-84836000D01*
X120815600Y-84836000D01*
X120815600Y-84666500D01*
X126785500Y-84666500D01*
X128333500Y-84666500D01*
X128333500Y-84118500D01*
X128841500Y-84118500D01*
X128841500Y-84666500D01*
X130389499Y-84666500D01*
X130389499Y-84459723D01*
X130389498Y-84459711D01*
X130378823Y-84386442D01*
X130378822Y-84386439D01*
X130323562Y-84273403D01*
X130323561Y-84273401D01*
X130234596Y-84184436D01*
X130121560Y-84129177D01*
X130048287Y-84118500D01*
X128841500Y-84118500D01*
X128333500Y-84118500D01*
X127126723Y-84118500D01*
X127126711Y-84118501D01*
X127053442Y-84129176D01*
X127053439Y-84129177D01*
X126940403Y-84184437D01*
X126940401Y-84184438D01*
X126851436Y-84273403D01*
X126796177Y-84386438D01*
X126796177Y-84386440D01*
X126785500Y-84459712D01*
X126785500Y-84666500D01*
X120815600Y-84666500D01*
X120815600Y-84353344D01*
X120824824Y-84328000D01*
X122551121Y-84328000D01*
X123379000Y-84328000D01*
X123379000Y-84155000D01*
X123887000Y-84155000D01*
X123887000Y-84328000D01*
X124714879Y-84328000D01*
X124690481Y-84272744D01*
X124690479Y-84272741D01*
X124617258Y-84199520D01*
X124617255Y-84199518D01*
X124522514Y-84157686D01*
X124522516Y-84157686D01*
X124499355Y-84155000D01*
X123887000Y-84155000D01*
X123379000Y-84155000D01*
X122766651Y-84155000D01*
X122743478Y-84157687D01*
X122648749Y-84199515D01*
X122648741Y-84199520D01*
X122575520Y-84272741D01*
X122575518Y-84272744D01*
X122551121Y-84328000D01*
X120824824Y-84328000D01*
X120833192Y-84305009D01*
X120837614Y-84300184D01*
X121295772Y-83842025D01*
X121342393Y-83820286D01*
X121348947Y-83820000D01*
X130480800Y-83820000D01*
X130529138Y-83837593D01*
G37*
%TD.AperFunction*%
%TA.AperFunction,Conductor*%
G36*
X120242138Y-82440593D02*
G01*
X120267858Y-82485142D01*
X120269000Y-82498200D01*
X120269000Y-84030756D01*
X120255842Y-84073251D01*
X120250695Y-84080764D01*
X120250694Y-84080767D01*
X120243421Y-84111693D01*
X120241879Y-84116671D01*
X120230400Y-84146304D01*
X120230400Y-84158331D01*
X120228403Y-84175546D01*
X120225650Y-84187251D01*
X120225650Y-84187254D01*
X120230039Y-84218717D01*
X120230400Y-84223918D01*
X120230400Y-87935800D01*
X120212807Y-87984138D01*
X120168258Y-88009858D01*
X120155200Y-88011000D01*
X112978200Y-88011000D01*
X112929862Y-87993407D01*
X112904142Y-87948858D01*
X112903000Y-87935800D01*
X112903000Y-87376000D01*
X113280121Y-87376000D01*
X113304518Y-87431255D01*
X113304520Y-87431258D01*
X113377741Y-87504479D01*
X113377744Y-87504481D01*
X113472485Y-87546313D01*
X113472483Y-87546313D01*
X113495644Y-87548999D01*
X114108000Y-87548999D01*
X114108000Y-87376000D01*
X114616000Y-87376000D01*
X114616000Y-87548999D01*
X115228349Y-87548999D01*
X115251521Y-87546312D01*
X115346250Y-87504484D01*
X115346258Y-87504479D01*
X115419479Y-87431258D01*
X115419481Y-87431255D01*
X115443879Y-87376000D01*
X117601121Y-87376000D01*
X117625518Y-87431255D01*
X117625520Y-87431258D01*
X117698741Y-87504479D01*
X117698744Y-87504481D01*
X117793485Y-87546313D01*
X117793483Y-87546313D01*
X117816644Y-87548999D01*
X118429000Y-87548999D01*
X118429000Y-87376000D01*
X118937000Y-87376000D01*
X118937000Y-87548999D01*
X119549349Y-87548999D01*
X119572521Y-87546312D01*
X119667250Y-87504484D01*
X119667258Y-87504479D01*
X119740479Y-87431258D01*
X119740481Y-87431255D01*
X119764879Y-87376000D01*
X118937000Y-87376000D01*
X118429000Y-87376000D01*
X117601121Y-87376000D01*
X115443879Y-87376000D01*
X114616000Y-87376000D01*
X114108000Y-87376000D01*
X113280121Y-87376000D01*
X112903000Y-87376000D01*
X112903000Y-86868000D01*
X113280121Y-86868000D01*
X114108000Y-86868000D01*
X114108000Y-86695000D01*
X114616000Y-86695000D01*
X114616000Y-86868000D01*
X115443879Y-86868000D01*
X117601121Y-86868000D01*
X118429000Y-86868000D01*
X118429000Y-86695000D01*
X118937000Y-86695000D01*
X118937000Y-86868000D01*
X119764879Y-86868000D01*
X119740481Y-86812744D01*
X119740479Y-86812741D01*
X119667258Y-86739520D01*
X119667255Y-86739518D01*
X119572514Y-86697686D01*
X119572516Y-86697686D01*
X119549355Y-86695000D01*
X118937000Y-86695000D01*
X118429000Y-86695000D01*
X117816651Y-86695000D01*
X117793478Y-86697687D01*
X117698749Y-86739515D01*
X117698741Y-86739520D01*
X117625520Y-86812741D01*
X117625518Y-86812744D01*
X117601121Y-86868000D01*
X115443879Y-86868000D01*
X115419481Y-86812744D01*
X115419479Y-86812741D01*
X115346258Y-86739520D01*
X115346255Y-86739518D01*
X115251514Y-86697686D01*
X115251516Y-86697686D01*
X115228355Y-86695000D01*
X114616000Y-86695000D01*
X114108000Y-86695000D01*
X113495651Y-86695000D01*
X113472478Y-86697687D01*
X113377749Y-86739515D01*
X113377741Y-86739520D01*
X113304520Y-86812741D01*
X113304518Y-86812744D01*
X113280121Y-86868000D01*
X112903000Y-86868000D01*
X112903000Y-86106000D01*
X113280121Y-86106000D01*
X113304518Y-86161255D01*
X113304520Y-86161258D01*
X113377741Y-86234479D01*
X113377744Y-86234481D01*
X113472485Y-86276313D01*
X113472483Y-86276313D01*
X113495644Y-86278999D01*
X114108000Y-86278999D01*
X114108000Y-86106000D01*
X114616000Y-86106000D01*
X114616000Y-86278999D01*
X115228349Y-86278999D01*
X115251521Y-86276312D01*
X115346250Y-86234484D01*
X115346258Y-86234479D01*
X115419479Y-86161258D01*
X115419481Y-86161255D01*
X115443879Y-86106000D01*
X117601121Y-86106000D01*
X117625518Y-86161255D01*
X117625520Y-86161258D01*
X117698741Y-86234479D01*
X117698744Y-86234481D01*
X117793485Y-86276313D01*
X117793483Y-86276313D01*
X117816644Y-86278999D01*
X118429000Y-86278999D01*
X118429000Y-86106000D01*
X118937000Y-86106000D01*
X118937000Y-86278999D01*
X119549349Y-86278999D01*
X119572521Y-86276312D01*
X119667250Y-86234484D01*
X119667258Y-86234479D01*
X119740479Y-86161258D01*
X119740481Y-86161255D01*
X119764879Y-86106000D01*
X118937000Y-86106000D01*
X118429000Y-86106000D01*
X117601121Y-86106000D01*
X115443879Y-86106000D01*
X114616000Y-86106000D01*
X114108000Y-86106000D01*
X113280121Y-86106000D01*
X112903000Y-86106000D01*
X112903000Y-85598000D01*
X113280121Y-85598000D01*
X114108000Y-85598000D01*
X114108000Y-85425000D01*
X114616000Y-85425000D01*
X114616000Y-85598000D01*
X115443879Y-85598000D01*
X117601121Y-85598000D01*
X118429000Y-85598000D01*
X118429000Y-85425000D01*
X118937000Y-85425000D01*
X118937000Y-85598000D01*
X119764879Y-85598000D01*
X119740481Y-85542744D01*
X119740479Y-85542741D01*
X119667258Y-85469520D01*
X119667255Y-85469518D01*
X119572514Y-85427686D01*
X119572516Y-85427686D01*
X119549355Y-85425000D01*
X118937000Y-85425000D01*
X118429000Y-85425000D01*
X117816651Y-85425000D01*
X117793478Y-85427687D01*
X117698749Y-85469515D01*
X117698741Y-85469520D01*
X117625520Y-85542741D01*
X117625518Y-85542744D01*
X117601121Y-85598000D01*
X115443879Y-85598000D01*
X115419481Y-85542744D01*
X115419479Y-85542741D01*
X115346258Y-85469520D01*
X115346255Y-85469518D01*
X115251514Y-85427686D01*
X115251516Y-85427686D01*
X115228355Y-85425000D01*
X114616000Y-85425000D01*
X114108000Y-85425000D01*
X113495651Y-85425000D01*
X113472478Y-85427687D01*
X113377749Y-85469515D01*
X113377741Y-85469520D01*
X113304520Y-85542741D01*
X113304518Y-85542744D01*
X113280121Y-85598000D01*
X112903000Y-85598000D01*
X112903000Y-84836000D01*
X113280121Y-84836000D01*
X113304518Y-84891255D01*
X113304520Y-84891258D01*
X113377741Y-84964479D01*
X113377744Y-84964481D01*
X113472485Y-85006313D01*
X113472483Y-85006313D01*
X113495644Y-85008999D01*
X114108000Y-85008999D01*
X114108000Y-84836000D01*
X114616000Y-84836000D01*
X114616000Y-85008999D01*
X115228349Y-85008999D01*
X115251521Y-85006312D01*
X115346250Y-84964484D01*
X115346258Y-84964479D01*
X115419479Y-84891258D01*
X115419481Y-84891255D01*
X115443879Y-84836000D01*
X117601121Y-84836000D01*
X117625518Y-84891255D01*
X117625520Y-84891258D01*
X117698741Y-84964479D01*
X117698744Y-84964481D01*
X117793485Y-85006313D01*
X117793483Y-85006313D01*
X117816644Y-85008999D01*
X118429000Y-85008999D01*
X118429000Y-84836000D01*
X118937000Y-84836000D01*
X118937000Y-85008999D01*
X119549349Y-85008999D01*
X119572521Y-85006312D01*
X119667250Y-84964484D01*
X119667258Y-84964479D01*
X119740479Y-84891258D01*
X119740481Y-84891255D01*
X119764879Y-84836000D01*
X118937000Y-84836000D01*
X118429000Y-84836000D01*
X117601121Y-84836000D01*
X115443879Y-84836000D01*
X114616000Y-84836000D01*
X114108000Y-84836000D01*
X113280121Y-84836000D01*
X112903000Y-84836000D01*
X112903000Y-84328000D01*
X113280121Y-84328000D01*
X114108000Y-84328000D01*
X114108000Y-84155000D01*
X114616000Y-84155000D01*
X114616000Y-84328000D01*
X115443879Y-84328000D01*
X117601121Y-84328000D01*
X118429000Y-84328000D01*
X118429000Y-84155000D01*
X118937000Y-84155000D01*
X118937000Y-84328000D01*
X119764879Y-84328000D01*
X119740481Y-84272744D01*
X119740479Y-84272741D01*
X119667258Y-84199520D01*
X119667255Y-84199518D01*
X119572514Y-84157686D01*
X119572516Y-84157686D01*
X119549355Y-84155000D01*
X118937000Y-84155000D01*
X118429000Y-84155000D01*
X117816651Y-84155000D01*
X117793478Y-84157687D01*
X117698749Y-84199515D01*
X117698741Y-84199520D01*
X117625520Y-84272741D01*
X117625518Y-84272744D01*
X117601121Y-84328000D01*
X115443879Y-84328000D01*
X115419481Y-84272744D01*
X115419479Y-84272741D01*
X115346258Y-84199520D01*
X115346255Y-84199518D01*
X115251514Y-84157686D01*
X115251516Y-84157686D01*
X115228355Y-84155000D01*
X114616000Y-84155000D01*
X114108000Y-84155000D01*
X113495651Y-84155000D01*
X113472478Y-84157687D01*
X113377749Y-84199515D01*
X113377741Y-84199520D01*
X113304520Y-84272741D01*
X113304518Y-84272744D01*
X113280121Y-84328000D01*
X112903000Y-84328000D01*
X112903000Y-83566000D01*
X113280121Y-83566000D01*
X113304518Y-83621255D01*
X113304520Y-83621258D01*
X113377741Y-83694479D01*
X113377744Y-83694481D01*
X113472485Y-83736313D01*
X113472483Y-83736313D01*
X113495644Y-83738999D01*
X114108000Y-83738999D01*
X114108000Y-83566000D01*
X114616000Y-83566000D01*
X114616000Y-83738999D01*
X115228349Y-83738999D01*
X115251521Y-83736312D01*
X115346250Y-83694484D01*
X115346258Y-83694479D01*
X115419479Y-83621258D01*
X115419481Y-83621255D01*
X115443879Y-83566000D01*
X117601121Y-83566000D01*
X117625518Y-83621255D01*
X117625520Y-83621258D01*
X117698741Y-83694479D01*
X117698744Y-83694481D01*
X117793485Y-83736313D01*
X117793483Y-83736313D01*
X117816644Y-83738999D01*
X118429000Y-83738999D01*
X118429000Y-83566000D01*
X118937000Y-83566000D01*
X118937000Y-83738999D01*
X119549349Y-83738999D01*
X119572521Y-83736312D01*
X119667250Y-83694484D01*
X119667258Y-83694479D01*
X119740479Y-83621258D01*
X119740481Y-83621255D01*
X119764879Y-83566000D01*
X118937000Y-83566000D01*
X118429000Y-83566000D01*
X117601121Y-83566000D01*
X115443879Y-83566000D01*
X114616000Y-83566000D01*
X114108000Y-83566000D01*
X113280121Y-83566000D01*
X112903000Y-83566000D01*
X112903000Y-83058000D01*
X113280121Y-83058000D01*
X114108000Y-83058000D01*
X114108000Y-82885000D01*
X114616000Y-82885000D01*
X114616000Y-83058000D01*
X115443879Y-83058000D01*
X117601121Y-83058000D01*
X118429000Y-83058000D01*
X118429000Y-82885000D01*
X118937000Y-82885000D01*
X118937000Y-83058000D01*
X119764879Y-83058000D01*
X119740481Y-83002744D01*
X119740479Y-83002741D01*
X119667258Y-82929520D01*
X119667255Y-82929518D01*
X119572514Y-82887686D01*
X119572516Y-82887686D01*
X119549355Y-82885000D01*
X118937000Y-82885000D01*
X118429000Y-82885000D01*
X117816651Y-82885000D01*
X117793478Y-82887687D01*
X117698749Y-82929515D01*
X117698741Y-82929520D01*
X117625520Y-83002741D01*
X117625518Y-83002744D01*
X117601121Y-83058000D01*
X115443879Y-83058000D01*
X115419481Y-83002744D01*
X115419479Y-83002741D01*
X115346258Y-82929520D01*
X115346255Y-82929518D01*
X115251514Y-82887686D01*
X115251516Y-82887686D01*
X115228355Y-82885000D01*
X114616000Y-82885000D01*
X114108000Y-82885000D01*
X113495651Y-82885000D01*
X113472478Y-82887687D01*
X113377749Y-82929515D01*
X113377741Y-82929520D01*
X113304520Y-83002741D01*
X113304518Y-83002744D01*
X113280121Y-83058000D01*
X112903000Y-83058000D01*
X112903000Y-82498200D01*
X112920593Y-82449862D01*
X112965142Y-82424142D01*
X112978200Y-82423000D01*
X120193800Y-82423000D01*
X120242138Y-82440593D01*
G37*
%TD.AperFunction*%
%TA.AperFunction,Conductor*%
G36*
X62711138Y-104919593D02*
G01*
X62736858Y-104964142D01*
X62738000Y-104977200D01*
X62738000Y-133007044D01*
X62720407Y-133055382D01*
X62675858Y-133081102D01*
X62662800Y-133082244D01*
X62116600Y-133082244D01*
X62068262Y-133064651D01*
X62042542Y-133020102D01*
X62041400Y-133007044D01*
X62041400Y-130098800D01*
X54193401Y-130098800D01*
X54193401Y-133007044D01*
X54175808Y-133055382D01*
X54131259Y-133081102D01*
X54118201Y-133082244D01*
X53351000Y-133082244D01*
X53302662Y-133064651D01*
X53276942Y-133020102D01*
X53275800Y-133007044D01*
X53275800Y-126644782D01*
X54193399Y-126644782D01*
X54193400Y-129590800D01*
X57863400Y-129590800D01*
X57863399Y-126415800D01*
X58371400Y-126415800D01*
X58371400Y-129590800D01*
X62041399Y-129590800D01*
X62041399Y-126644783D01*
X62041398Y-126644782D01*
X62026662Y-126570694D01*
X61970523Y-126486675D01*
X61886505Y-126430537D01*
X61886503Y-126430536D01*
X61812418Y-126415800D01*
X58371400Y-126415800D01*
X57863399Y-126415800D01*
X54422384Y-126415800D01*
X54422382Y-126415801D01*
X54348294Y-126430537D01*
X54264275Y-126486676D01*
X54208137Y-126570694D01*
X54208136Y-126570696D01*
X54193399Y-126644782D01*
X53275800Y-126644782D01*
X53275800Y-109448600D01*
X54218801Y-109448600D01*
X54218801Y-112394617D01*
X54233537Y-112468705D01*
X54289676Y-112552724D01*
X54373694Y-112608862D01*
X54373696Y-112608863D01*
X54447782Y-112623599D01*
X57888799Y-112623599D01*
X58396799Y-112623599D01*
X61837816Y-112623599D01*
X61837817Y-112623598D01*
X61911905Y-112608862D01*
X61995924Y-112552723D01*
X62052062Y-112468705D01*
X62052063Y-112468703D01*
X62066800Y-112394617D01*
X62066800Y-109448600D01*
X58396800Y-109448600D01*
X58396799Y-112623599D01*
X57888799Y-112623599D01*
X57888800Y-109448600D01*
X54218801Y-109448600D01*
X53275800Y-109448600D01*
X53275800Y-105994582D01*
X54218799Y-105994582D01*
X54218800Y-108940600D01*
X57888800Y-108940600D01*
X57888800Y-105765600D01*
X58396799Y-105765600D01*
X58396800Y-108940600D01*
X62066799Y-108940600D01*
X62066799Y-105994583D01*
X62066798Y-105994582D01*
X62052062Y-105920494D01*
X61995923Y-105836475D01*
X61911905Y-105780337D01*
X61911903Y-105780336D01*
X61837818Y-105765600D01*
X58396799Y-105765600D01*
X57888800Y-105765600D01*
X54447784Y-105765600D01*
X54447782Y-105765601D01*
X54373694Y-105780337D01*
X54289675Y-105836476D01*
X54233537Y-105920494D01*
X54233536Y-105920496D01*
X54218799Y-105994582D01*
X53275800Y-105994582D01*
X53275800Y-104977200D01*
X53293393Y-104928862D01*
X53337942Y-104903142D01*
X53351000Y-104902000D01*
X62662800Y-104902000D01*
X62711138Y-104919593D01*
G37*
%TD.AperFunction*%
D34*
X53200300Y-141979900D02*
G75*
G03*
X55200300Y-143979900I2000000J0D01*
G01*
X147085300Y-143979900D02*
G75*
G03*
X149085300Y-141979900I0J2000000D01*
G01*
X149085300Y-55809900D02*
G75*
G03*
X147085300Y-53809900I-2000000J0D01*
G01*
X53200300Y-55809900D02*
X53200300Y-141979900D01*
X55200300Y-53809900D02*
G75*
G03*
X53200300Y-55809900I0J-2000000D01*
G01*
X55200300Y-143979900D02*
X64039500Y-143979900D01*
X149085300Y-141979900D02*
X149085300Y-55809900D01*
X137210800Y-143002000D02*
X65074800Y-143002000D01*
X64039500Y-143979900D02*
X65074800Y-143002000D01*
X147085300Y-143979900D02*
X138246100Y-143979900D01*
X65074800Y-54845200D02*
X64096900Y-53809900D01*
X137210800Y-54845200D02*
X65074800Y-54845200D01*
X137210800Y-54845200D02*
X138188700Y-53809900D01*
X147085300Y-53809900D02*
X138188700Y-53809900D01*
X64096900Y-53809900D02*
X55200300Y-53809900D01*
X138246100Y-143979900D02*
X137210800Y-143002000D01*
M02*
