%TF.GenerationSoftware,KiCad,Pcbnew,7.0.7*%
%TF.CreationDate,2023-10-10T18:21:33-04:00*%
%TF.ProjectId,batteryboard,62617474-6572-4796-926f-6172642e6b69,rev?*%
%TF.SameCoordinates,Original*%
%TF.FileFunction,Copper,L2,Bot*%
%TF.FilePolarity,Positive*%
%FSLAX46Y46*%
G04 Gerber Fmt 4.6, Leading zero omitted, Abs format (unit mm)*
G04 Created by KiCad (PCBNEW 7.0.7) date 2023-10-10 18:21:33*
%MOMM*%
%LPD*%
G01*
G04 APERTURE LIST*
%TA.AperFunction,ComponentPad*%
%ADD10C,2.000000*%
%TD*%
%TA.AperFunction,ComponentPad*%
%ADD11R,2.032000X2.032000*%
%TD*%
%TA.AperFunction,ComponentPad*%
%ADD12C,2.032000*%
%TD*%
%TA.AperFunction,ComponentPad*%
%ADD13R,0.850000X0.850000*%
%TD*%
%TA.AperFunction,ComponentPad*%
%ADD14C,1.400000*%
%TD*%
%TA.AperFunction,ComponentPad*%
%ADD15O,1.400000X1.400000*%
%TD*%
%TA.AperFunction,ComponentPad*%
%ADD16C,4.500000*%
%TD*%
%TA.AperFunction,SMDPad,CuDef*%
%ADD17R,7.340000X6.350000*%
%TD*%
%TA.AperFunction,SMDPad,CuDef*%
%ADD18C,0.750000*%
%TD*%
%TA.AperFunction,SMDPad,CuDef*%
%ADD19R,7.340000X4.500000*%
%TD*%
%TA.AperFunction,ViaPad*%
%ADD20C,0.584200*%
%TD*%
%TA.AperFunction,Conductor*%
%ADD21C,0.508000*%
%TD*%
%TA.AperFunction,Profile*%
%ADD22C,0.150000*%
%TD*%
G04 APERTURE END LIST*
D10*
X144145000Y-121285000D03*
X58166000Y-78105000D03*
X142062200Y-75565000D03*
X146177000Y-75565000D03*
D11*
X109016800Y-65024000D03*
D12*
X105161200Y-65024000D03*
D11*
X105232200Y-72898000D03*
D12*
X109087800Y-72898000D03*
D11*
X118795800Y-65024000D03*
D12*
X114940200Y-65024000D03*
D11*
X114884200Y-72898000D03*
D12*
X118739800Y-72898000D03*
D13*
X101346000Y-75692000D03*
D14*
X101346000Y-93726000D03*
D15*
X96266000Y-93726000D03*
D16*
X144005300Y-136349900D03*
X58280300Y-58889900D03*
X58280300Y-138889900D03*
X144005300Y-62689900D03*
D17*
X58117400Y-88569800D03*
X144117400Y-88569800D03*
X144142800Y-129844800D03*
X58142800Y-129844800D03*
X144142800Y-109194600D03*
X58142800Y-109194600D03*
D18*
X56007000Y-142494000D03*
X55118000Y-56261000D03*
X147193000Y-56261000D03*
D17*
X58117400Y-67919600D03*
D19*
X144117400Y-68844600D03*
D20*
X143256000Y-129794000D03*
X146558000Y-129794000D03*
X145034000Y-129794000D03*
X141732000Y-129794000D03*
X146558000Y-132080000D03*
X141732000Y-132080000D03*
X143256000Y-132080000D03*
X145034000Y-132080000D03*
X131826000Y-90678000D03*
X132588000Y-90678000D03*
X131064000Y-90678000D03*
X131826000Y-91567000D03*
X131064000Y-91567000D03*
X132588000Y-91567000D03*
X131826000Y-89789000D03*
X141732000Y-127508000D03*
X146558000Y-127508000D03*
X132588000Y-89789000D03*
X131064000Y-89789000D03*
X143256000Y-127508000D03*
X145034000Y-127508000D03*
X54864000Y-119380000D03*
X58420000Y-119380000D03*
X56642000Y-119380000D03*
X60198000Y-119380000D03*
X60198000Y-120904000D03*
X58420000Y-120904000D03*
X54864000Y-120904000D03*
X56642000Y-120904000D03*
X56642000Y-117856000D03*
X58420000Y-117856000D03*
X54864000Y-117856000D03*
X60198000Y-117856000D03*
X117665498Y-95821500D03*
X140843000Y-94742000D03*
X143002000Y-94742000D03*
X145288000Y-94742000D03*
X147447000Y-94742000D03*
X145288000Y-96139000D03*
X140843000Y-96139000D03*
X143002000Y-96139000D03*
X147447000Y-96139000D03*
X147447000Y-93345000D03*
X145288000Y-93345000D03*
X140843000Y-93345000D03*
X96266000Y-71374000D03*
X96240600Y-64566800D03*
X143002000Y-93345000D03*
D21*
X117665498Y-95821500D02*
X58229500Y-95821500D01*
X101346000Y-76625000D02*
X101346000Y-93726000D01*
X101346000Y-75692000D02*
X101346000Y-76625000D01*
%TA.AperFunction,Conductor*%
G36*
X104570825Y-63898593D02*
G01*
X104596545Y-63943142D01*
X104587612Y-63993800D01*
X104562075Y-64020136D01*
X104453759Y-64087202D01*
X104293671Y-64233143D01*
X104293668Y-64233146D01*
X104163120Y-64406020D01*
X104066566Y-64599928D01*
X104066560Y-64599944D01*
X104007281Y-64808286D01*
X104007280Y-64808295D01*
X103987292Y-65023997D01*
X103987292Y-65024002D01*
X104007280Y-65239704D01*
X104007281Y-65239713D01*
X104066560Y-65448055D01*
X104066566Y-65448071D01*
X104163120Y-65641979D01*
X104293668Y-65814853D01*
X104293671Y-65814856D01*
X104453759Y-65960797D01*
X104453761Y-65960798D01*
X104453762Y-65960799D01*
X104637944Y-66074839D01*
X104839945Y-66153095D01*
X105052885Y-66192900D01*
X105052890Y-66192900D01*
X105269510Y-66192900D01*
X105269515Y-66192900D01*
X105482455Y-66153095D01*
X105684456Y-66074839D01*
X105868638Y-65960799D01*
X106028728Y-65814857D01*
X106159277Y-65641983D01*
X106255837Y-65448064D01*
X106315120Y-65239705D01*
X106335108Y-65024000D01*
X106315120Y-64808295D01*
X106315118Y-64808289D01*
X106315118Y-64808286D01*
X106255839Y-64599944D01*
X106255837Y-64599936D01*
X106175922Y-64439444D01*
X106159279Y-64406020D01*
X106028731Y-64233146D01*
X106028728Y-64233143D01*
X105868640Y-64087202D01*
X105760325Y-64020136D01*
X105728490Y-63979732D01*
X105730074Y-63928316D01*
X105764336Y-63889948D01*
X105799913Y-63881000D01*
X107779044Y-63881000D01*
X107827382Y-63898593D01*
X107853102Y-63943142D01*
X107852799Y-63970870D01*
X107848400Y-63992985D01*
X107848400Y-64770000D01*
X108360331Y-64770000D01*
X108408669Y-64787593D01*
X108434389Y-64832142D01*
X108432971Y-64864656D01*
X108432245Y-64867366D01*
X108432244Y-64867369D01*
X108411623Y-65024000D01*
X108432244Y-65180631D01*
X108432245Y-65180633D01*
X108432971Y-65183344D01*
X108432823Y-65185027D01*
X108432888Y-65185517D01*
X108432779Y-65185531D01*
X108428482Y-65234588D01*
X108392105Y-65270957D01*
X108360331Y-65278000D01*
X107848400Y-65278000D01*
X107848400Y-66055012D01*
X107857241Y-66099462D01*
X107857242Y-66099464D01*
X107890926Y-66149873D01*
X107941335Y-66183557D01*
X107941337Y-66183558D01*
X107985787Y-66192400D01*
X108762800Y-66192400D01*
X108762800Y-65680468D01*
X108780393Y-65632130D01*
X108824942Y-65606410D01*
X108857465Y-65607831D01*
X108860160Y-65608552D01*
X108860169Y-65608556D01*
X108977477Y-65624000D01*
X108977480Y-65624000D01*
X109056120Y-65624000D01*
X109056123Y-65624000D01*
X109173431Y-65608556D01*
X109173440Y-65608551D01*
X109176131Y-65607832D01*
X109177809Y-65607978D01*
X109178317Y-65607912D01*
X109178331Y-65608024D01*
X109227376Y-65612312D01*
X109263751Y-65648683D01*
X109270799Y-65680468D01*
X109270800Y-66192400D01*
X110047813Y-66192400D01*
X110092262Y-66183558D01*
X110092264Y-66183557D01*
X110142673Y-66149873D01*
X110176357Y-66099464D01*
X110176358Y-66099462D01*
X110185200Y-66055012D01*
X110185200Y-65278000D01*
X109673269Y-65278000D01*
X109624931Y-65260407D01*
X109599211Y-65215858D01*
X109600629Y-65183344D01*
X109601351Y-65180640D01*
X109601356Y-65180631D01*
X109621977Y-65024000D01*
X109601356Y-64867369D01*
X109601352Y-64867360D01*
X109600629Y-64864656D01*
X109600776Y-64862972D01*
X109600712Y-64862483D01*
X109600820Y-64862468D01*
X109605118Y-64813412D01*
X109641495Y-64777043D01*
X109673269Y-64770000D01*
X110185200Y-64770000D01*
X110185200Y-63992986D01*
X110185199Y-63992985D01*
X110180801Y-63970870D01*
X110188626Y-63920029D01*
X110227301Y-63886113D01*
X110254556Y-63881000D01*
X114301487Y-63881000D01*
X114349825Y-63898593D01*
X114375545Y-63943142D01*
X114366612Y-63993800D01*
X114341075Y-64020136D01*
X114232759Y-64087202D01*
X114072671Y-64233143D01*
X114072668Y-64233146D01*
X113942120Y-64406020D01*
X113845566Y-64599928D01*
X113845560Y-64599944D01*
X113786281Y-64808286D01*
X113786280Y-64808295D01*
X113766292Y-65023997D01*
X113766292Y-65024002D01*
X113786280Y-65239704D01*
X113786281Y-65239713D01*
X113845560Y-65448055D01*
X113845566Y-65448071D01*
X113942120Y-65641979D01*
X114072668Y-65814853D01*
X114072671Y-65814856D01*
X114232759Y-65960797D01*
X114232761Y-65960798D01*
X114232762Y-65960799D01*
X114416944Y-66074839D01*
X114618945Y-66153095D01*
X114831885Y-66192900D01*
X114831890Y-66192900D01*
X115048510Y-66192900D01*
X115048515Y-66192900D01*
X115261455Y-66153095D01*
X115463456Y-66074839D01*
X115647638Y-65960799D01*
X115807728Y-65814857D01*
X115938277Y-65641983D01*
X116034837Y-65448064D01*
X116094120Y-65239705D01*
X116114108Y-65024000D01*
X116094120Y-64808295D01*
X116094118Y-64808289D01*
X116094118Y-64808286D01*
X116034839Y-64599944D01*
X116034837Y-64599936D01*
X115954922Y-64439444D01*
X115938279Y-64406020D01*
X115807731Y-64233146D01*
X115807728Y-64233143D01*
X115647640Y-64087202D01*
X115539325Y-64020136D01*
X115507490Y-63979732D01*
X115509074Y-63928316D01*
X115543336Y-63889948D01*
X115578913Y-63881000D01*
X117558044Y-63881000D01*
X117606382Y-63898593D01*
X117632102Y-63943142D01*
X117631799Y-63970870D01*
X117627400Y-63992985D01*
X117627400Y-64770000D01*
X118139331Y-64770000D01*
X118187669Y-64787593D01*
X118213389Y-64832142D01*
X118211971Y-64864656D01*
X118211245Y-64867366D01*
X118211244Y-64867369D01*
X118190623Y-65024000D01*
X118211244Y-65180631D01*
X118211245Y-65180633D01*
X118211971Y-65183344D01*
X118211823Y-65185027D01*
X118211888Y-65185517D01*
X118211779Y-65185531D01*
X118207482Y-65234588D01*
X118171105Y-65270957D01*
X118139331Y-65278000D01*
X117627400Y-65278000D01*
X117627400Y-66055012D01*
X117636241Y-66099462D01*
X117636242Y-66099464D01*
X117669926Y-66149873D01*
X117720335Y-66183557D01*
X117720337Y-66183558D01*
X117764787Y-66192400D01*
X118541800Y-66192400D01*
X118541800Y-65680468D01*
X118559393Y-65632130D01*
X118603942Y-65606410D01*
X118636465Y-65607831D01*
X118639160Y-65608552D01*
X118639169Y-65608556D01*
X118756477Y-65624000D01*
X118756480Y-65624000D01*
X118835120Y-65624000D01*
X118835123Y-65624000D01*
X118952431Y-65608556D01*
X118952440Y-65608551D01*
X118955135Y-65607831D01*
X118956815Y-65607978D01*
X118957317Y-65607912D01*
X118957331Y-65608023D01*
X119006379Y-65612313D01*
X119042753Y-65648685D01*
X119049800Y-65680468D01*
X119049800Y-66192400D01*
X119826813Y-66192400D01*
X119871262Y-66183558D01*
X119871264Y-66183557D01*
X119921673Y-66149873D01*
X119955357Y-66099464D01*
X119955358Y-66099462D01*
X119964200Y-66055012D01*
X119964200Y-65278000D01*
X119452269Y-65278000D01*
X119403931Y-65260407D01*
X119378211Y-65215858D01*
X119379629Y-65183344D01*
X119380351Y-65180640D01*
X119380356Y-65180631D01*
X119400977Y-65024000D01*
X119380356Y-64867369D01*
X119380352Y-64867360D01*
X119379629Y-64864656D01*
X119379776Y-64862972D01*
X119379712Y-64862483D01*
X119379820Y-64862468D01*
X119384118Y-64813412D01*
X119420495Y-64777043D01*
X119452269Y-64770000D01*
X119964200Y-64770000D01*
X119964200Y-63992986D01*
X119964199Y-63992985D01*
X119959801Y-63970870D01*
X119967626Y-63920029D01*
X120006301Y-63886113D01*
X120033556Y-63881000D01*
X134856973Y-63881000D01*
X134889364Y-63888333D01*
X135974042Y-64406020D01*
X140262446Y-66452758D01*
X140298492Y-66489457D01*
X140303810Y-66535296D01*
X140295000Y-66579587D01*
X140295000Y-68590600D01*
X147939800Y-68590600D01*
X147939800Y-66623200D01*
X147957393Y-66574862D01*
X148001942Y-66549142D01*
X148015000Y-66548000D01*
X148934600Y-66548000D01*
X148982938Y-66565593D01*
X149008658Y-66610142D01*
X149009800Y-66623200D01*
X149009800Y-97206800D01*
X148992207Y-97255138D01*
X148947658Y-97280858D01*
X148934600Y-97282000D01*
X139769531Y-97282000D01*
X139721193Y-97264407D01*
X139695473Y-97219858D01*
X139694331Y-97206800D01*
X139694331Y-88823800D01*
X140295000Y-88823800D01*
X140295000Y-91759812D01*
X140303841Y-91804262D01*
X140303842Y-91804264D01*
X140337526Y-91854673D01*
X140387935Y-91888357D01*
X140387937Y-91888358D01*
X140432387Y-91897200D01*
X143863400Y-91897200D01*
X143863400Y-88823800D01*
X144371400Y-88823800D01*
X144371400Y-91897200D01*
X147802413Y-91897200D01*
X147846862Y-91888358D01*
X147846864Y-91888357D01*
X147897273Y-91854673D01*
X147930957Y-91804264D01*
X147930958Y-91804262D01*
X147939800Y-91759812D01*
X147939800Y-88823800D01*
X144371400Y-88823800D01*
X143863400Y-88823800D01*
X140295000Y-88823800D01*
X139694331Y-88823800D01*
X139694331Y-88315800D01*
X140295000Y-88315800D01*
X143863400Y-88315800D01*
X143863400Y-85242400D01*
X144371400Y-85242400D01*
X144371400Y-88315800D01*
X147939800Y-88315800D01*
X147939800Y-85379787D01*
X147930958Y-85335337D01*
X147930957Y-85335335D01*
X147897273Y-85284926D01*
X147846864Y-85251242D01*
X147846862Y-85251241D01*
X147802413Y-85242400D01*
X144371400Y-85242400D01*
X143863400Y-85242400D01*
X140432387Y-85242400D01*
X140387937Y-85251241D01*
X140387935Y-85251242D01*
X140337526Y-85284926D01*
X140303842Y-85335335D01*
X140303841Y-85335337D01*
X140295000Y-85379787D01*
X140295000Y-88315800D01*
X139694331Y-88315800D01*
X139694331Y-75565002D01*
X140904361Y-75565002D01*
X140924075Y-75777752D01*
X140924076Y-75777760D01*
X140982544Y-75983251D01*
X140982550Y-75983267D01*
X141077782Y-76174520D01*
X141206543Y-76345027D01*
X141206546Y-76345030D01*
X141364443Y-76488973D01*
X141546103Y-76601453D01*
X141546105Y-76601453D01*
X141546107Y-76601455D01*
X141745342Y-76678639D01*
X141955368Y-76717900D01*
X141955372Y-76717900D01*
X142169028Y-76717900D01*
X142169032Y-76717900D01*
X142379058Y-76678639D01*
X142578293Y-76601455D01*
X142759954Y-76488975D01*
X142917853Y-76345031D01*
X143046615Y-76174524D01*
X143141853Y-75983260D01*
X143181027Y-75845575D01*
X143200323Y-75777760D01*
X143200323Y-75777758D01*
X143200325Y-75777752D01*
X143220039Y-75565002D01*
X145019663Y-75565002D01*
X145039369Y-75777659D01*
X145039370Y-75777668D01*
X145097812Y-75983069D01*
X145097816Y-75983080D01*
X145193013Y-76174261D01*
X145199688Y-76183099D01*
X145199689Y-76183099D01*
X145608656Y-75774131D01*
X145655277Y-75752391D01*
X145704964Y-75765705D01*
X145725093Y-75786649D01*
X145725094Y-75786650D01*
X145795238Y-75895797D01*
X145795241Y-75895800D01*
X145903897Y-75989950D01*
X145903900Y-75989952D01*
X145947728Y-76009968D01*
X145984388Y-76046052D01*
X145989278Y-76097259D01*
X145969662Y-76131546D01*
X145561741Y-76539466D01*
X145561742Y-76539467D01*
X145661127Y-76601004D01*
X145860279Y-76678155D01*
X146070217Y-76717399D01*
X146070218Y-76717400D01*
X146283782Y-76717400D01*
X146283782Y-76717399D01*
X146493720Y-76678155D01*
X146692871Y-76601004D01*
X146692872Y-76601004D01*
X146792256Y-76539467D01*
X146792257Y-76539466D01*
X146384336Y-76131546D01*
X146362596Y-76084926D01*
X146375910Y-76035239D01*
X146406267Y-76009969D01*
X146450100Y-75989952D01*
X146558761Y-75895798D01*
X146628907Y-75786647D01*
X146669838Y-75755497D01*
X146721219Y-75757944D01*
X146745341Y-75774131D01*
X147154308Y-76183099D01*
X147154311Y-76183099D01*
X147160988Y-76174259D01*
X147256181Y-75983085D01*
X147256187Y-75983069D01*
X147314629Y-75777668D01*
X147314630Y-75777659D01*
X147334337Y-75565002D01*
X147334337Y-75564997D01*
X147314630Y-75352340D01*
X147314629Y-75352331D01*
X147256187Y-75146930D01*
X147256183Y-75146919D01*
X147160989Y-74955744D01*
X147154309Y-74946899D01*
X147154308Y-74946899D01*
X146745341Y-75355867D01*
X146698721Y-75377607D01*
X146649034Y-75364293D01*
X146628905Y-75343349D01*
X146558762Y-75234203D01*
X146558758Y-75234199D01*
X146450102Y-75140049D01*
X146450097Y-75140046D01*
X146406270Y-75120031D01*
X146369609Y-75083948D01*
X146364719Y-75032741D01*
X146384335Y-74998452D01*
X146792257Y-74590531D01*
X146792256Y-74590530D01*
X146692878Y-74528998D01*
X146692871Y-74528995D01*
X146493720Y-74451844D01*
X146283782Y-74412600D01*
X146070218Y-74412600D01*
X145860279Y-74451844D01*
X145661131Y-74528993D01*
X145561741Y-74590531D01*
X145561741Y-74590532D01*
X145969663Y-74998453D01*
X145991403Y-75045073D01*
X145978089Y-75094760D01*
X145947729Y-75120031D01*
X145903900Y-75140047D01*
X145903897Y-75140049D01*
X145795241Y-75234199D01*
X145795237Y-75234203D01*
X145725094Y-75343350D01*
X145684161Y-75374503D01*
X145632779Y-75372055D01*
X145608658Y-75355868D01*
X145199689Y-74946898D01*
X145193007Y-74955748D01*
X145097818Y-75146914D01*
X145097812Y-75146930D01*
X145039370Y-75352331D01*
X145039369Y-75352340D01*
X145019663Y-75564997D01*
X145019663Y-75565002D01*
X143220039Y-75565002D01*
X143220039Y-75565000D01*
X143200325Y-75352248D01*
X143200323Y-75352242D01*
X143200323Y-75352239D01*
X143159096Y-75207342D01*
X143141853Y-75146740D01*
X143115970Y-75094760D01*
X143046617Y-74955479D01*
X142917856Y-74784972D01*
X142917853Y-74784969D01*
X142759956Y-74641026D01*
X142578296Y-74528546D01*
X142379058Y-74451361D01*
X142169032Y-74412100D01*
X141955368Y-74412100D01*
X141787347Y-74443508D01*
X141745341Y-74451361D01*
X141546104Y-74528546D01*
X141546103Y-74528546D01*
X141364443Y-74641026D01*
X141206546Y-74784969D01*
X141206543Y-74784972D01*
X141077782Y-74955479D01*
X140982550Y-75146732D01*
X140982544Y-75146748D01*
X140924076Y-75352239D01*
X140924075Y-75352247D01*
X140904361Y-75564997D01*
X140904361Y-75565002D01*
X139694331Y-75565002D01*
X139694331Y-73863200D01*
X139694330Y-73863199D01*
X119584926Y-73886315D01*
X119536569Y-73868777D01*
X119510798Y-73824258D01*
X119519672Y-73773590D01*
X119534178Y-73755542D01*
X119607328Y-73688857D01*
X119737877Y-73515983D01*
X119834437Y-73322064D01*
X119893720Y-73113705D01*
X119913708Y-72898000D01*
X119893720Y-72682295D01*
X119893718Y-72682289D01*
X119893718Y-72682286D01*
X119834439Y-72473944D01*
X119834437Y-72473936D01*
X119754884Y-72314171D01*
X119737879Y-72280020D01*
X119607331Y-72107146D01*
X119607328Y-72107143D01*
X119447240Y-71961202D01*
X119263060Y-71847163D01*
X119263057Y-71847162D01*
X119263056Y-71847161D01*
X119061055Y-71768905D01*
X119061057Y-71768905D01*
X119000214Y-71757532D01*
X118848115Y-71729100D01*
X118631485Y-71729100D01*
X118489524Y-71755636D01*
X118418543Y-71768905D01*
X118216539Y-71847163D01*
X118032359Y-71961202D01*
X117872271Y-72107143D01*
X117872268Y-72107146D01*
X117741720Y-72280020D01*
X117645166Y-72473928D01*
X117645160Y-72473944D01*
X117585881Y-72682286D01*
X117585880Y-72682295D01*
X117565892Y-72897997D01*
X117565892Y-72898002D01*
X117585880Y-73113704D01*
X117585881Y-73113713D01*
X117645160Y-73322055D01*
X117645166Y-73322071D01*
X117741720Y-73515979D01*
X117872268Y-73688853D01*
X117872271Y-73688856D01*
X117947550Y-73757483D01*
X117971419Y-73803050D01*
X117960414Y-73853298D01*
X117919685Y-73884717D01*
X117896974Y-73888256D01*
X116127886Y-73890290D01*
X116079529Y-73872752D01*
X116053758Y-73828233D01*
X116052600Y-73815090D01*
X116052600Y-73152000D01*
X115540669Y-73152000D01*
X115492331Y-73134407D01*
X115466611Y-73089858D01*
X115468029Y-73057344D01*
X115468751Y-73054640D01*
X115468756Y-73054631D01*
X115489377Y-72898000D01*
X115468756Y-72741369D01*
X115468752Y-72741360D01*
X115468029Y-72738656D01*
X115468176Y-72736972D01*
X115468112Y-72736483D01*
X115468220Y-72736468D01*
X115472518Y-72687412D01*
X115508895Y-72651043D01*
X115540669Y-72644000D01*
X116052600Y-72644000D01*
X116052600Y-71866987D01*
X116043758Y-71822537D01*
X116043757Y-71822535D01*
X116010073Y-71772126D01*
X115959664Y-71738442D01*
X115959662Y-71738441D01*
X115915213Y-71729600D01*
X115138200Y-71729600D01*
X115138199Y-72241531D01*
X115120605Y-72289869D01*
X115076057Y-72315589D01*
X115043540Y-72314170D01*
X115040834Y-72313445D01*
X115040833Y-72313444D01*
X115040831Y-72313444D01*
X114923523Y-72298000D01*
X114844877Y-72298000D01*
X114764967Y-72308520D01*
X114727560Y-72313445D01*
X114724853Y-72314171D01*
X114723171Y-72314023D01*
X114722683Y-72314088D01*
X114722668Y-72313979D01*
X114673609Y-72309681D01*
X114637241Y-72273303D01*
X114630199Y-72241531D01*
X114630200Y-71729600D01*
X113853187Y-71729600D01*
X113808737Y-71738441D01*
X113808735Y-71738442D01*
X113758326Y-71772126D01*
X113724642Y-71822535D01*
X113724641Y-71822537D01*
X113715800Y-71866987D01*
X113715800Y-72644000D01*
X114227731Y-72644000D01*
X114276069Y-72661593D01*
X114301789Y-72706142D01*
X114300371Y-72738656D01*
X114299645Y-72741366D01*
X114299644Y-72741369D01*
X114279023Y-72898000D01*
X114299644Y-73054631D01*
X114299645Y-73054633D01*
X114300371Y-73057344D01*
X114300223Y-73059027D01*
X114300288Y-73059517D01*
X114300179Y-73059531D01*
X114295882Y-73108588D01*
X114259505Y-73144957D01*
X114227731Y-73152000D01*
X113715800Y-73152000D01*
X113715800Y-73817950D01*
X113698207Y-73866288D01*
X113653658Y-73892008D01*
X113640686Y-73893150D01*
X109920738Y-73897426D01*
X109872381Y-73879888D01*
X109846610Y-73835369D01*
X109855484Y-73784701D01*
X109869990Y-73766653D01*
X109882178Y-73755542D01*
X109955328Y-73688857D01*
X110085877Y-73515983D01*
X110182437Y-73322064D01*
X110241720Y-73113705D01*
X110261708Y-72898000D01*
X110241720Y-72682295D01*
X110241718Y-72682289D01*
X110241718Y-72682286D01*
X110182439Y-72473944D01*
X110182437Y-72473936D01*
X110102884Y-72314171D01*
X110085879Y-72280020D01*
X109955331Y-72107146D01*
X109955328Y-72107143D01*
X109795240Y-71961202D01*
X109611060Y-71847163D01*
X109611057Y-71847162D01*
X109611056Y-71847161D01*
X109409055Y-71768905D01*
X109409057Y-71768905D01*
X109348215Y-71757532D01*
X109196115Y-71729100D01*
X108979485Y-71729100D01*
X108837524Y-71755636D01*
X108766543Y-71768905D01*
X108564539Y-71847163D01*
X108380359Y-71961202D01*
X108220271Y-72107143D01*
X108220268Y-72107146D01*
X108089720Y-72280020D01*
X107993166Y-72473928D01*
X107993160Y-72473944D01*
X107933881Y-72682286D01*
X107933880Y-72682295D01*
X107913892Y-72897997D01*
X107913892Y-72898002D01*
X107933880Y-73113704D01*
X107933881Y-73113713D01*
X107993160Y-73322055D01*
X107993166Y-73322071D01*
X108089720Y-73515979D01*
X108220268Y-73688853D01*
X108220271Y-73688856D01*
X108307706Y-73768565D01*
X108331575Y-73814132D01*
X108320570Y-73864381D01*
X108279840Y-73895799D01*
X108257130Y-73899338D01*
X106475886Y-73901386D01*
X106427529Y-73883848D01*
X106401758Y-73839329D01*
X106400600Y-73826186D01*
X106400600Y-73152000D01*
X105888669Y-73152000D01*
X105840331Y-73134407D01*
X105814611Y-73089858D01*
X105816029Y-73057344D01*
X105816751Y-73054640D01*
X105816756Y-73054631D01*
X105837377Y-72898000D01*
X105816756Y-72741369D01*
X105816752Y-72741360D01*
X105816029Y-72738656D01*
X105816176Y-72736972D01*
X105816112Y-72736483D01*
X105816220Y-72736468D01*
X105820518Y-72687412D01*
X105856895Y-72651043D01*
X105888669Y-72644000D01*
X106400600Y-72644000D01*
X106400600Y-71866987D01*
X106391758Y-71822537D01*
X106391757Y-71822535D01*
X106358073Y-71772126D01*
X106307664Y-71738442D01*
X106307662Y-71738441D01*
X106263213Y-71729600D01*
X105486200Y-71729600D01*
X105486199Y-72241531D01*
X105468605Y-72289869D01*
X105424057Y-72315589D01*
X105391540Y-72314170D01*
X105388834Y-72313445D01*
X105388833Y-72313444D01*
X105388831Y-72313444D01*
X105271523Y-72298000D01*
X105192877Y-72298000D01*
X105112967Y-72308520D01*
X105075560Y-72313445D01*
X105072853Y-72314171D01*
X105071171Y-72314023D01*
X105070683Y-72314088D01*
X105070668Y-72313979D01*
X105021609Y-72309681D01*
X104985241Y-72273303D01*
X104978199Y-72241531D01*
X104978200Y-71729600D01*
X104201187Y-71729600D01*
X104156737Y-71738441D01*
X104156735Y-71738442D01*
X104106326Y-71772126D01*
X104072642Y-71822535D01*
X104072641Y-71822537D01*
X104063800Y-71866987D01*
X104063800Y-72644000D01*
X104575731Y-72644000D01*
X104624069Y-72661593D01*
X104649789Y-72706142D01*
X104648371Y-72738656D01*
X104647645Y-72741366D01*
X104647644Y-72741369D01*
X104627023Y-72898000D01*
X104647644Y-73054631D01*
X104647645Y-73054633D01*
X104648371Y-73057344D01*
X104648223Y-73059027D01*
X104648288Y-73059517D01*
X104648179Y-73059531D01*
X104643882Y-73108588D01*
X104607505Y-73144957D01*
X104575731Y-73152000D01*
X104063800Y-73152000D01*
X104063800Y-73829045D01*
X104046207Y-73877383D01*
X104001658Y-73903103D01*
X103988686Y-73904245D01*
X95579286Y-73913913D01*
X95530929Y-73896375D01*
X95505158Y-73851856D01*
X95504000Y-73838713D01*
X95504000Y-69098600D01*
X140295000Y-69098600D01*
X140295000Y-71109612D01*
X140303841Y-71154062D01*
X140303842Y-71154064D01*
X140337526Y-71204473D01*
X140387935Y-71238157D01*
X140387937Y-71238158D01*
X140432387Y-71247000D01*
X143863400Y-71247000D01*
X143863400Y-69098600D01*
X144371400Y-69098600D01*
X144371400Y-71247000D01*
X147802413Y-71247000D01*
X147846862Y-71238158D01*
X147846864Y-71238157D01*
X147897273Y-71204473D01*
X147930957Y-71154064D01*
X147930958Y-71154062D01*
X147939800Y-71109612D01*
X147939800Y-69098600D01*
X144371400Y-69098600D01*
X143863400Y-69098600D01*
X140295000Y-69098600D01*
X95504000Y-69098600D01*
X95504000Y-63956200D01*
X95521593Y-63907862D01*
X95566142Y-63882142D01*
X95579200Y-63881000D01*
X104522487Y-63881000D01*
X104570825Y-63898593D01*
G37*
%TD.AperFunction*%
%TA.AperFunction,Conductor*%
G36*
X139509265Y-88079059D02*
G01*
X139535219Y-88123471D01*
X139536431Y-88136918D01*
X139536431Y-88981700D01*
X139536431Y-97210244D01*
X139536731Y-97217126D01*
X139538173Y-97233615D01*
X139558727Y-97298807D01*
X139584447Y-97343357D01*
X139600236Y-97365904D01*
X139667187Y-97412783D01*
X139667188Y-97412783D01*
X139667190Y-97412785D01*
X139715528Y-97430378D01*
X139769526Y-97439899D01*
X139769527Y-97439900D01*
X148934600Y-97439900D01*
X148982938Y-97457493D01*
X149008658Y-97502042D01*
X149009800Y-97515100D01*
X149009800Y-133020800D01*
X148992207Y-133069138D01*
X148947658Y-133094858D01*
X148934600Y-133096000D01*
X148142000Y-133096000D01*
X148093662Y-133078407D01*
X148067942Y-133033858D01*
X148066800Y-133020800D01*
X148066800Y-130098800D01*
X140218801Y-130098800D01*
X140218801Y-133020800D01*
X140201208Y-133069138D01*
X140156659Y-133094858D01*
X140143601Y-133096000D01*
X124853019Y-133096000D01*
X124804681Y-133078407D01*
X124778961Y-133033858D01*
X124777820Y-133020481D01*
X124792352Y-129590800D01*
X140218800Y-129590800D01*
X143888800Y-129590800D01*
X143888800Y-126415800D01*
X144396800Y-126415800D01*
X144396800Y-129590800D01*
X148066799Y-129590800D01*
X148066799Y-126644784D01*
X148066798Y-126644782D01*
X148052062Y-126570694D01*
X147995923Y-126486675D01*
X147911905Y-126430537D01*
X147911903Y-126430536D01*
X147837818Y-126415800D01*
X144396800Y-126415800D01*
X143888800Y-126415800D01*
X140447784Y-126415800D01*
X140447782Y-126415801D01*
X140373694Y-126430537D01*
X140289675Y-126486676D01*
X140233537Y-126570694D01*
X140233536Y-126570696D01*
X140218800Y-126644782D01*
X140218800Y-129590800D01*
X124792352Y-129590800D01*
X124822927Y-122375145D01*
X124825174Y-121844805D01*
X126736854Y-121844805D01*
X126757011Y-122126646D01*
X126757014Y-122126669D01*
X126817076Y-122402773D01*
X126915834Y-122667554D01*
X127051257Y-122915561D01*
X127051259Y-122915564D01*
X127220603Y-123141782D01*
X127220605Y-123141784D01*
X127220608Y-123141788D01*
X127420411Y-123341591D01*
X127420414Y-123341593D01*
X127420418Y-123341597D01*
X127646636Y-123510941D01*
X127646638Y-123510942D01*
X127894645Y-123646365D01*
X127894646Y-123646365D01*
X127894651Y-123646368D01*
X128159416Y-123745120D01*
X128159420Y-123745121D01*
X128159426Y-123745123D01*
X128422098Y-123802263D01*
X128435539Y-123805187D01*
X128646847Y-123820300D01*
X128646849Y-123820300D01*
X128787951Y-123820300D01*
X128787953Y-123820300D01*
X128999261Y-123805187D01*
X129081993Y-123787189D01*
X129275373Y-123745123D01*
X129275376Y-123745121D01*
X129275384Y-123745120D01*
X129540149Y-123646368D01*
X129788164Y-123510941D01*
X130014382Y-123341597D01*
X130214197Y-123141782D01*
X130383541Y-122915564D01*
X130518968Y-122667549D01*
X130617720Y-122402784D01*
X130617721Y-122402776D01*
X130617723Y-122402773D01*
X130677785Y-122126669D01*
X130677787Y-122126661D01*
X130697946Y-121844800D01*
X130695976Y-121817259D01*
X130677788Y-121562953D01*
X130677787Y-121562939D01*
X130660986Y-121485705D01*
X130617723Y-121286826D01*
X130617721Y-121286820D01*
X130617720Y-121286816D01*
X130617043Y-121285000D01*
X142886210Y-121285000D01*
X142905333Y-121503582D01*
X142962124Y-121715531D01*
X142962125Y-121715535D01*
X143054852Y-121914388D01*
X143096673Y-121974115D01*
X143576656Y-121494131D01*
X143623277Y-121472391D01*
X143672964Y-121485705D01*
X143693093Y-121506649D01*
X143763237Y-121615795D01*
X143763238Y-121615797D01*
X143763241Y-121615800D01*
X143871897Y-121709950D01*
X143871900Y-121709952D01*
X143915728Y-121729968D01*
X143952388Y-121766052D01*
X143957278Y-121817259D01*
X143937662Y-121851546D01*
X143455882Y-122333325D01*
X143455883Y-122333326D01*
X143515607Y-122375145D01*
X143515607Y-122375146D01*
X143714464Y-122467874D01*
X143714468Y-122467875D01*
X143926417Y-122524666D01*
X144145000Y-122543789D01*
X144363582Y-122524666D01*
X144575531Y-122467875D01*
X144575535Y-122467874D01*
X144774389Y-122375147D01*
X144834116Y-122333325D01*
X144352336Y-121851546D01*
X144330596Y-121804926D01*
X144343910Y-121755239D01*
X144374267Y-121729969D01*
X144418100Y-121709952D01*
X144526761Y-121615798D01*
X144596907Y-121506647D01*
X144637838Y-121475497D01*
X144689219Y-121477944D01*
X144713341Y-121494131D01*
X145193325Y-121974116D01*
X145235147Y-121914389D01*
X145327874Y-121715535D01*
X145327875Y-121715531D01*
X145384666Y-121503582D01*
X145403789Y-121284999D01*
X145384666Y-121066417D01*
X145327875Y-120854468D01*
X145327874Y-120854464D01*
X145235145Y-120655607D01*
X145193326Y-120595883D01*
X145193325Y-120595882D01*
X144713341Y-121075867D01*
X144666721Y-121097607D01*
X144617034Y-121084293D01*
X144596905Y-121063349D01*
X144526762Y-120954203D01*
X144526758Y-120954199D01*
X144418102Y-120860049D01*
X144418097Y-120860046D01*
X144374270Y-120840031D01*
X144337609Y-120803948D01*
X144332719Y-120752741D01*
X144352335Y-120718452D01*
X144834115Y-120236673D01*
X144774388Y-120194852D01*
X144575535Y-120102125D01*
X144575531Y-120102124D01*
X144363582Y-120045333D01*
X144145000Y-120026210D01*
X143926417Y-120045333D01*
X143714468Y-120102124D01*
X143714464Y-120102125D01*
X143515608Y-120194853D01*
X143515606Y-120194854D01*
X143455883Y-120236672D01*
X143455883Y-120236674D01*
X143937663Y-120718453D01*
X143959403Y-120765073D01*
X143946089Y-120814760D01*
X143915729Y-120840031D01*
X143871900Y-120860047D01*
X143871897Y-120860049D01*
X143763241Y-120954199D01*
X143763237Y-120954203D01*
X143693094Y-121063350D01*
X143652161Y-121094503D01*
X143600779Y-121092055D01*
X143576658Y-121075868D01*
X143096674Y-120595883D01*
X143096672Y-120595883D01*
X143054854Y-120655606D01*
X143054853Y-120655608D01*
X142962125Y-120854464D01*
X142962124Y-120854468D01*
X142905333Y-121066417D01*
X142886210Y-121285000D01*
X130617043Y-121285000D01*
X130518968Y-121022051D01*
X130481919Y-120954202D01*
X130383542Y-120774038D01*
X130376831Y-120765073D01*
X130214197Y-120547818D01*
X130214193Y-120547814D01*
X130214191Y-120547811D01*
X130014388Y-120348008D01*
X130014384Y-120348005D01*
X130014382Y-120348003D01*
X129788164Y-120178659D01*
X129788162Y-120178658D01*
X129788161Y-120178657D01*
X129540154Y-120043234D01*
X129275373Y-119944476D01*
X128999269Y-119884414D01*
X128999246Y-119884411D01*
X128816191Y-119871319D01*
X128787953Y-119869300D01*
X128646847Y-119869300D01*
X128620377Y-119871193D01*
X128435553Y-119884411D01*
X128435530Y-119884414D01*
X128159426Y-119944476D01*
X127894645Y-120043234D01*
X127646638Y-120178657D01*
X127420411Y-120348008D01*
X127220608Y-120547811D01*
X127051257Y-120774038D01*
X126915834Y-121022045D01*
X126817076Y-121286826D01*
X126757014Y-121562930D01*
X126757011Y-121562953D01*
X126736854Y-121844794D01*
X126736854Y-121844805D01*
X124825174Y-121844805D01*
X124844878Y-117194605D01*
X126762254Y-117194605D01*
X126782411Y-117476446D01*
X126782414Y-117476469D01*
X126842476Y-117752573D01*
X126941234Y-118017354D01*
X127057403Y-118230100D01*
X127076659Y-118265364D01*
X127246003Y-118491582D01*
X127246005Y-118491584D01*
X127246008Y-118491588D01*
X127445811Y-118691391D01*
X127445814Y-118691393D01*
X127445818Y-118691397D01*
X127672036Y-118860741D01*
X127672038Y-118860742D01*
X127920045Y-118996165D01*
X127920046Y-118996165D01*
X127920051Y-118996168D01*
X128184816Y-119094920D01*
X128184820Y-119094921D01*
X128184826Y-119094923D01*
X128447498Y-119152063D01*
X128460939Y-119154987D01*
X128672247Y-119170100D01*
X128672249Y-119170100D01*
X128813351Y-119170100D01*
X128813353Y-119170100D01*
X129024661Y-119154987D01*
X129107393Y-119136989D01*
X129300773Y-119094923D01*
X129300776Y-119094921D01*
X129300784Y-119094920D01*
X129565549Y-118996168D01*
X129813564Y-118860741D01*
X130039782Y-118691397D01*
X130239597Y-118491582D01*
X130408941Y-118265364D01*
X130544368Y-118017349D01*
X130643120Y-117752584D01*
X130643121Y-117752576D01*
X130643123Y-117752573D01*
X130703185Y-117476469D01*
X130703187Y-117476461D01*
X130723346Y-117194600D01*
X136032290Y-117194600D01*
X136052282Y-117397591D01*
X136111495Y-117592789D01*
X136207642Y-117772666D01*
X136207648Y-117772676D01*
X136337048Y-117930352D01*
X136494724Y-118059752D01*
X136494730Y-118059755D01*
X136494733Y-118059757D01*
X136674610Y-118155904D01*
X136674611Y-118155904D01*
X136674614Y-118155906D01*
X136869807Y-118215117D01*
X137021932Y-118230100D01*
X137021938Y-118230100D01*
X137123662Y-118230100D01*
X137123668Y-118230100D01*
X137275793Y-118215117D01*
X137470986Y-118155906D01*
X137650876Y-118059752D01*
X137808552Y-117930352D01*
X137937952Y-117772676D01*
X138034106Y-117592786D01*
X138093317Y-117397593D01*
X138113310Y-117194600D01*
X138093317Y-116991607D01*
X138034106Y-116796414D01*
X137948697Y-116636626D01*
X137937957Y-116616533D01*
X137937951Y-116616523D01*
X137808552Y-116458848D01*
X137650876Y-116329448D01*
X137650866Y-116329442D01*
X137470989Y-116233295D01*
X137470990Y-116233295D01*
X137275790Y-116174082D01*
X137275791Y-116174082D01*
X137123675Y-116159100D01*
X137123668Y-116159100D01*
X137021932Y-116159100D01*
X137021924Y-116159100D01*
X136869808Y-116174082D01*
X136674610Y-116233295D01*
X136494733Y-116329442D01*
X136494723Y-116329448D01*
X136337048Y-116458848D01*
X136207648Y-116616523D01*
X136207642Y-116616533D01*
X136111495Y-116796410D01*
X136052282Y-116991608D01*
X136032290Y-117194600D01*
X130723346Y-117194600D01*
X130703187Y-116912739D01*
X130677881Y-116796410D01*
X130643123Y-116636626D01*
X130643121Y-116636620D01*
X130643120Y-116636616D01*
X130544368Y-116371851D01*
X130408941Y-116123836D01*
X130239597Y-115897618D01*
X130239593Y-115897614D01*
X130239591Y-115897611D01*
X130039788Y-115697808D01*
X130039784Y-115697805D01*
X130039782Y-115697803D01*
X129813564Y-115528459D01*
X129813562Y-115528458D01*
X129813561Y-115528457D01*
X129565554Y-115393034D01*
X129300773Y-115294276D01*
X129024669Y-115234214D01*
X129024646Y-115234211D01*
X128841591Y-115221119D01*
X128813353Y-115219100D01*
X128672247Y-115219100D01*
X128645777Y-115220993D01*
X128460953Y-115234211D01*
X128460930Y-115234214D01*
X128184826Y-115294276D01*
X127920045Y-115393034D01*
X127672038Y-115528457D01*
X127445811Y-115697808D01*
X127246008Y-115897611D01*
X127076657Y-116123838D01*
X126941234Y-116371845D01*
X126842476Y-116636626D01*
X126782414Y-116912730D01*
X126782411Y-116912753D01*
X126762254Y-117194594D01*
X126762254Y-117194605D01*
X124844878Y-117194605D01*
X124877700Y-109448600D01*
X140218801Y-109448600D01*
X140218801Y-112394617D01*
X140233537Y-112468705D01*
X140289676Y-112552724D01*
X140373694Y-112608862D01*
X140373696Y-112608863D01*
X140447782Y-112623599D01*
X143888800Y-112623599D01*
X143888800Y-109448600D01*
X144396800Y-109448600D01*
X144396800Y-112623599D01*
X147837816Y-112623599D01*
X147837817Y-112623598D01*
X147911905Y-112608862D01*
X147995924Y-112552723D01*
X148052062Y-112468705D01*
X148052063Y-112468703D01*
X148066800Y-112394617D01*
X148066800Y-109448600D01*
X144396800Y-109448600D01*
X143888800Y-109448600D01*
X140218801Y-109448600D01*
X124877700Y-109448600D01*
X124879853Y-108940600D01*
X140218800Y-108940600D01*
X143888800Y-108940600D01*
X143888800Y-105765600D01*
X144396800Y-105765600D01*
X144396800Y-108940600D01*
X148066799Y-108940600D01*
X148066799Y-105994584D01*
X148066798Y-105994582D01*
X148052062Y-105920494D01*
X147995923Y-105836475D01*
X147911905Y-105780337D01*
X147911903Y-105780336D01*
X147837818Y-105765600D01*
X144396800Y-105765600D01*
X143888800Y-105765600D01*
X140447784Y-105765600D01*
X140447782Y-105765601D01*
X140373694Y-105780337D01*
X140289675Y-105836476D01*
X140233537Y-105920494D01*
X140233536Y-105920496D01*
X140218800Y-105994582D01*
X140218800Y-108940600D01*
X124879853Y-108940600D01*
X124912675Y-101194605D01*
X126762254Y-101194605D01*
X126782411Y-101476446D01*
X126782414Y-101476469D01*
X126842476Y-101752573D01*
X126941234Y-102017354D01*
X127076657Y-102265361D01*
X127076659Y-102265364D01*
X127246003Y-102491582D01*
X127246005Y-102491584D01*
X127246008Y-102491588D01*
X127445811Y-102691391D01*
X127445814Y-102691393D01*
X127445818Y-102691397D01*
X127672036Y-102860741D01*
X127672038Y-102860742D01*
X127920045Y-102996165D01*
X127920046Y-102996165D01*
X127920051Y-102996168D01*
X128184816Y-103094920D01*
X128184820Y-103094921D01*
X128184826Y-103094923D01*
X128447498Y-103152063D01*
X128460939Y-103154987D01*
X128672247Y-103170100D01*
X128672249Y-103170100D01*
X128813351Y-103170100D01*
X128813353Y-103170100D01*
X129024661Y-103154987D01*
X129107393Y-103136989D01*
X129300773Y-103094923D01*
X129300776Y-103094921D01*
X129300784Y-103094920D01*
X129565549Y-102996168D01*
X129813564Y-102860741D01*
X130039782Y-102691397D01*
X130239597Y-102491582D01*
X130408941Y-102265364D01*
X130544368Y-102017349D01*
X130643120Y-101752584D01*
X130643121Y-101752576D01*
X130643123Y-101752573D01*
X130703185Y-101476469D01*
X130703187Y-101476461D01*
X130723346Y-101194600D01*
X130703187Y-100912739D01*
X130700263Y-100899298D01*
X130643123Y-100636626D01*
X130643121Y-100636620D01*
X130643120Y-100636616D01*
X130544368Y-100371851D01*
X130408941Y-100123836D01*
X130239597Y-99897618D01*
X130239593Y-99897614D01*
X130239591Y-99897611D01*
X130039788Y-99697808D01*
X130039784Y-99697805D01*
X130039782Y-99697803D01*
X129813564Y-99528459D01*
X129813562Y-99528458D01*
X129813561Y-99528457D01*
X129565554Y-99393034D01*
X129300773Y-99294276D01*
X129024669Y-99234214D01*
X129024646Y-99234211D01*
X128841591Y-99221119D01*
X128813353Y-99219100D01*
X128672247Y-99219100D01*
X128645777Y-99220993D01*
X128460953Y-99234211D01*
X128460930Y-99234214D01*
X128184826Y-99294276D01*
X127920045Y-99393034D01*
X127672038Y-99528457D01*
X127445811Y-99697808D01*
X127246008Y-99897611D01*
X127076657Y-100123838D01*
X126941234Y-100371845D01*
X126842476Y-100636626D01*
X126782414Y-100912730D01*
X126782411Y-100912753D01*
X126762254Y-101194594D01*
X126762254Y-101194605D01*
X124912675Y-101194605D01*
X124932272Y-96569805D01*
X126736854Y-96569805D01*
X126757011Y-96851646D01*
X126757014Y-96851669D01*
X126817076Y-97127773D01*
X126817079Y-97127783D01*
X126817080Y-97127784D01*
X126897484Y-97343357D01*
X126915834Y-97392554D01*
X126982750Y-97515100D01*
X127051259Y-97640564D01*
X127220603Y-97866782D01*
X127220605Y-97866784D01*
X127220608Y-97866788D01*
X127420411Y-98066591D01*
X127420414Y-98066593D01*
X127420418Y-98066597D01*
X127646636Y-98235941D01*
X127646638Y-98235942D01*
X127894645Y-98371365D01*
X127894646Y-98371365D01*
X127894651Y-98371368D01*
X128159416Y-98470120D01*
X128159420Y-98470121D01*
X128159426Y-98470123D01*
X128422098Y-98527263D01*
X128435539Y-98530187D01*
X128646847Y-98545300D01*
X128646849Y-98545300D01*
X128787951Y-98545300D01*
X128787953Y-98545300D01*
X128999261Y-98530187D01*
X129081993Y-98512189D01*
X129275373Y-98470123D01*
X129275376Y-98470121D01*
X129275384Y-98470120D01*
X129540149Y-98371368D01*
X129788164Y-98235941D01*
X130014382Y-98066597D01*
X130214197Y-97866782D01*
X130383541Y-97640564D01*
X130518968Y-97392549D01*
X130617720Y-97127784D01*
X130617721Y-97127776D01*
X130617723Y-97127773D01*
X130677785Y-96851669D01*
X130677787Y-96851661D01*
X130697946Y-96569800D01*
X130677787Y-96287939D01*
X130674863Y-96274498D01*
X130617723Y-96011826D01*
X130617721Y-96011820D01*
X130617720Y-96011816D01*
X130518968Y-95747051D01*
X130383541Y-95499036D01*
X130214197Y-95272818D01*
X130214193Y-95272814D01*
X130214191Y-95272811D01*
X130014388Y-95073008D01*
X130014384Y-95073005D01*
X130014382Y-95073003D01*
X129788164Y-94903659D01*
X129788162Y-94903658D01*
X129788161Y-94903657D01*
X129540154Y-94768234D01*
X129275373Y-94669476D01*
X128999269Y-94609414D01*
X128999246Y-94609411D01*
X128816191Y-94596319D01*
X128787953Y-94594300D01*
X128646847Y-94594300D01*
X128620377Y-94596193D01*
X128435553Y-94609411D01*
X128435530Y-94609414D01*
X128159426Y-94669476D01*
X127894645Y-94768234D01*
X127646638Y-94903657D01*
X127420411Y-95073008D01*
X127220608Y-95272811D01*
X127051257Y-95499038D01*
X126915834Y-95747045D01*
X126817076Y-96011826D01*
X126757014Y-96287930D01*
X126757011Y-96287953D01*
X126736854Y-96569794D01*
X126736854Y-96569805D01*
X124932272Y-96569805D01*
X124967684Y-88212485D01*
X124985482Y-88164225D01*
X125030139Y-88138694D01*
X125042475Y-88137608D01*
X139460838Y-88061721D01*
X139509265Y-88079059D01*
G37*
%TD.AperFunction*%
%TA.AperFunction,Conductor*%
G36*
X54166538Y-64787593D02*
G01*
X54192258Y-64832142D01*
X54193400Y-64845200D01*
X54193400Y-67665600D01*
X62041399Y-67665600D01*
X62041399Y-64845200D01*
X62058992Y-64796862D01*
X62103541Y-64771142D01*
X62116599Y-64770000D01*
X62662800Y-64770000D01*
X62711138Y-64787593D01*
X62736858Y-64832142D01*
X62738000Y-64845200D01*
X62738000Y-133007044D01*
X62720407Y-133055382D01*
X62675858Y-133081102D01*
X62662800Y-133082244D01*
X62142000Y-133082244D01*
X62093662Y-133064651D01*
X62067942Y-133020102D01*
X62066800Y-133007044D01*
X62066800Y-130098800D01*
X54218801Y-130098800D01*
X54218801Y-133007044D01*
X54201208Y-133055382D01*
X54156659Y-133081102D01*
X54143601Y-133082244D01*
X53351000Y-133082244D01*
X53302662Y-133064651D01*
X53276942Y-133020102D01*
X53275800Y-133007044D01*
X53275800Y-126644782D01*
X54218799Y-126644782D01*
X54218800Y-129590800D01*
X57888800Y-129590800D01*
X57888800Y-126415800D01*
X58396799Y-126415800D01*
X58396800Y-129590800D01*
X62066799Y-129590800D01*
X62066799Y-126644783D01*
X62066798Y-126644782D01*
X62052062Y-126570694D01*
X61995923Y-126486675D01*
X61911905Y-126430537D01*
X61911903Y-126430536D01*
X61837818Y-126415800D01*
X58396799Y-126415800D01*
X57888800Y-126415800D01*
X54447784Y-126415800D01*
X54447782Y-126415801D01*
X54373694Y-126430537D01*
X54289675Y-126486676D01*
X54233537Y-126570694D01*
X54233536Y-126570696D01*
X54218799Y-126644782D01*
X53275800Y-126644782D01*
X53275800Y-109448600D01*
X54218801Y-109448600D01*
X54218801Y-112394617D01*
X54233537Y-112468705D01*
X54289676Y-112552724D01*
X54373694Y-112608862D01*
X54373696Y-112608863D01*
X54447782Y-112623599D01*
X57888799Y-112623599D01*
X58396799Y-112623599D01*
X61837816Y-112623599D01*
X61837817Y-112623598D01*
X61911905Y-112608862D01*
X61995924Y-112552723D01*
X62052062Y-112468705D01*
X62052063Y-112468703D01*
X62066800Y-112394617D01*
X62066800Y-109448600D01*
X58396800Y-109448600D01*
X58396799Y-112623599D01*
X57888799Y-112623599D01*
X57888800Y-109448600D01*
X54218801Y-109448600D01*
X53275800Y-109448600D01*
X53275800Y-105994582D01*
X54218799Y-105994582D01*
X54218800Y-108940600D01*
X57888800Y-108940600D01*
X57888800Y-105765600D01*
X58396799Y-105765600D01*
X58396800Y-108940600D01*
X62066799Y-108940600D01*
X62066799Y-105994583D01*
X62066798Y-105994582D01*
X62052062Y-105920494D01*
X61995923Y-105836475D01*
X61911905Y-105780337D01*
X61911903Y-105780336D01*
X61837818Y-105765600D01*
X58396799Y-105765600D01*
X57888800Y-105765600D01*
X54447784Y-105765600D01*
X54447782Y-105765601D01*
X54373694Y-105780337D01*
X54289675Y-105836476D01*
X54233537Y-105920494D01*
X54233536Y-105920496D01*
X54218799Y-105994582D01*
X53275800Y-105994582D01*
X53275800Y-88823800D01*
X54193401Y-88823800D01*
X54193401Y-91769817D01*
X54208137Y-91843905D01*
X54264276Y-91927924D01*
X54348294Y-91984062D01*
X54348296Y-91984063D01*
X54422382Y-91998799D01*
X57863399Y-91998799D01*
X57863400Y-88823800D01*
X58371400Y-88823800D01*
X58371400Y-91998799D01*
X61812416Y-91998799D01*
X61812417Y-91998798D01*
X61886505Y-91984062D01*
X61970524Y-91927923D01*
X62026662Y-91843905D01*
X62026663Y-91843903D01*
X62041400Y-91769817D01*
X62041400Y-88823800D01*
X58371400Y-88823800D01*
X57863400Y-88823800D01*
X54193401Y-88823800D01*
X53275800Y-88823800D01*
X53275800Y-85369782D01*
X54193399Y-85369782D01*
X54193400Y-88315800D01*
X57863400Y-88315800D01*
X57863399Y-85140800D01*
X58371400Y-85140800D01*
X58371400Y-88315800D01*
X62041399Y-88315800D01*
X62041399Y-85369783D01*
X62041398Y-85369782D01*
X62026662Y-85295694D01*
X61970523Y-85211675D01*
X61886505Y-85155537D01*
X61886503Y-85155536D01*
X61812418Y-85140800D01*
X58371400Y-85140800D01*
X57863399Y-85140800D01*
X54422384Y-85140800D01*
X54422382Y-85140801D01*
X54348294Y-85155537D01*
X54264275Y-85211676D01*
X54208137Y-85295694D01*
X54208136Y-85295696D01*
X54193399Y-85369782D01*
X53275800Y-85369782D01*
X53275800Y-78105000D01*
X56907210Y-78105000D01*
X56926333Y-78323582D01*
X56983124Y-78535531D01*
X56983125Y-78535535D01*
X57075852Y-78734388D01*
X57117673Y-78794115D01*
X57597656Y-78314131D01*
X57644277Y-78292391D01*
X57693964Y-78305705D01*
X57714093Y-78326649D01*
X57714094Y-78326650D01*
X57784238Y-78435797D01*
X57784241Y-78435800D01*
X57892897Y-78529950D01*
X57892900Y-78529952D01*
X57936728Y-78549968D01*
X57973388Y-78586052D01*
X57978278Y-78637259D01*
X57958662Y-78671546D01*
X57476882Y-79153325D01*
X57476883Y-79153326D01*
X57536607Y-79195145D01*
X57536607Y-79195146D01*
X57735464Y-79287874D01*
X57735468Y-79287875D01*
X57947417Y-79344666D01*
X58166000Y-79363789D01*
X58384582Y-79344666D01*
X58596531Y-79287875D01*
X58596535Y-79287874D01*
X58795389Y-79195147D01*
X58855116Y-79153325D01*
X58373336Y-78671546D01*
X58351596Y-78624926D01*
X58364910Y-78575239D01*
X58395267Y-78549969D01*
X58439100Y-78529952D01*
X58547761Y-78435798D01*
X58617907Y-78326647D01*
X58658838Y-78295497D01*
X58710219Y-78297944D01*
X58734341Y-78314131D01*
X59214325Y-78794116D01*
X59256147Y-78734389D01*
X59348874Y-78535535D01*
X59348875Y-78535531D01*
X59405666Y-78323582D01*
X59424789Y-78104999D01*
X59405666Y-77886417D01*
X59348875Y-77674468D01*
X59348874Y-77674464D01*
X59256145Y-77475607D01*
X59214326Y-77415883D01*
X59214325Y-77415882D01*
X58734341Y-77895867D01*
X58687721Y-77917607D01*
X58638034Y-77904293D01*
X58617905Y-77883349D01*
X58547762Y-77774203D01*
X58547758Y-77774199D01*
X58439102Y-77680049D01*
X58439097Y-77680046D01*
X58395270Y-77660031D01*
X58358609Y-77623948D01*
X58353719Y-77572741D01*
X58373335Y-77538452D01*
X58855115Y-77056673D01*
X58795388Y-77014852D01*
X58596535Y-76922125D01*
X58596531Y-76922124D01*
X58384582Y-76865333D01*
X58166000Y-76846210D01*
X57947417Y-76865333D01*
X57735468Y-76922124D01*
X57735464Y-76922125D01*
X57536608Y-77014853D01*
X57536606Y-77014854D01*
X57476883Y-77056672D01*
X57476883Y-77056674D01*
X57958663Y-77538453D01*
X57980403Y-77585073D01*
X57967089Y-77634760D01*
X57936729Y-77660031D01*
X57892900Y-77680047D01*
X57892897Y-77680049D01*
X57784241Y-77774199D01*
X57784237Y-77774203D01*
X57714094Y-77883350D01*
X57673161Y-77914503D01*
X57621779Y-77912055D01*
X57597658Y-77895868D01*
X57117674Y-77415883D01*
X57117672Y-77415883D01*
X57075854Y-77475606D01*
X57075853Y-77475608D01*
X56983125Y-77674464D01*
X56983124Y-77674468D01*
X56926333Y-77886417D01*
X56907210Y-78105000D01*
X53275800Y-78105000D01*
X53275800Y-68173600D01*
X54193401Y-68173600D01*
X54193401Y-71119617D01*
X54208137Y-71193705D01*
X54264276Y-71277724D01*
X54348294Y-71333862D01*
X54348296Y-71333863D01*
X54422382Y-71348599D01*
X57863399Y-71348599D01*
X57863400Y-68173600D01*
X58371400Y-68173600D01*
X58371400Y-71348599D01*
X61812416Y-71348599D01*
X61812417Y-71348598D01*
X61886505Y-71333862D01*
X61970524Y-71277723D01*
X62026662Y-71193705D01*
X62026663Y-71193703D01*
X62041400Y-71119617D01*
X62041400Y-68173600D01*
X58371400Y-68173600D01*
X57863400Y-68173600D01*
X54193401Y-68173600D01*
X53275800Y-68173600D01*
X53275800Y-64845200D01*
X53293393Y-64796862D01*
X53337942Y-64771142D01*
X53351000Y-64770000D01*
X54118200Y-64770000D01*
X54166538Y-64787593D01*
G37*
%TD.AperFunction*%
D22*
X53200300Y-141979900D02*
G75*
G03*
X55200300Y-143979900I2000000J0D01*
G01*
X147085300Y-143979900D02*
G75*
G03*
X149085300Y-141979900I0J2000000D01*
G01*
X149085300Y-55809900D02*
G75*
G03*
X147085300Y-53809900I-2000000J0D01*
G01*
X53200300Y-55809900D02*
X53200300Y-141979900D01*
X55200300Y-53809900D02*
G75*
G03*
X53200300Y-55809900I0J-2000000D01*
G01*
X55200300Y-143979900D02*
X64039500Y-143979900D01*
X149085300Y-141979900D02*
X149085300Y-55809900D01*
X137210800Y-143002000D02*
X65074800Y-143002000D01*
X64039500Y-143979900D02*
X65074800Y-143002000D01*
X147085300Y-143979900D02*
X138246100Y-143979900D01*
X65074800Y-54845200D02*
X64096900Y-53809900D01*
X137210800Y-54845200D02*
X65074800Y-54845200D01*
X137210800Y-54845200D02*
X138188700Y-53809900D01*
X147085300Y-53809900D02*
X138188700Y-53809900D01*
X64096900Y-53809900D02*
X55200300Y-53809900D01*
X138246100Y-143979900D02*
X137210800Y-143002000D01*
M02*
