0
SECTION
2
HEADER
9
$INSUNITS
70
4
9
$ACADVER
1
AC1014
9
$HANDSEED
5
FFFF
0
ENDSEC
0
SECTION
2
TABLES
0
TABLE
2
VPORT
5
8
100
AcDbSymbolTable
0
ENDTAB
0
TABLE
2
LTYPE
5
5
100
AcDbSymbolTable
0
LTYPE
5
14
100
AcDbSymbolTableRecord
100
AcDbLinetypeTableRecord
2
BYBLOCK
70
0
0
LTYPE
5
15
100
AcDbSymbolTableRecord
100
AcDbLinetypeTableRecord
2
BYLAYER
70
0
0
ENDTAB
0
TABLE
2
LAYER
5
2
100
AcDbSymbolTable
70
2
0
LAYER
5
50
100
AcDbSymbolTableRecord
100
AcDbLayerTableRecord
2
0
70
0
6
CONTINUOUS
0
ENDTAB
0
TABLE
2
STYLE
5
3
100
AcDbSymbolTable
70
1
0
STYLE
5
11
100
AcDbSymbolTableRecord
100
AcDbTextStyleTableRecord
2
STANDARD
70
0
0
ENDTAB
0
TABLE
2
VIEW
5
6
100
AcDbSymbolTable
70
0
0
ENDTAB
0
TABLE
2
UCS
5
7
100
AcDbSymbolTable
70
0
0
ENDTAB
0
TABLE
2
APPID
5
9
100
AcDbSymbolTable
70
2
0
APPID
5
12
100
AcDbSymbolTableRecord
100
AcDbRegAppTableRecord
2
ACAD
70
0
0
ENDTAB
0
TABLE
2
DIMSTYLE
5
A
100
AcDbSymbolTable
70
1
0
ENDTAB
0
TABLE
2
BLOCK_RECORD
5
1
100
AcDbSymbolTable
70
1
0
BLOCK_RECORD
5
1F
100
AcDbSymbolTableRecord
100
AcDbBlockTableRecord
2
*MODEL_SPACE
0
BLOCK_RECORD
5
1B
100
AcDbSymbolTableRecord
100
AcDbBlockTableRecord
2
*PAPER_SPACE
0
ENDTAB
0
ENDSEC
0
SECTION
2
BLOCKS
0
BLOCK
5
20
100
AcDbEntity
100
AcDbBlockBegin
2
*MODEL_SPACE
0
ENDBLK
5
21
100
AcDbEntity
100
AcDbBlockEnd
0
BLOCK
5
1C
100
AcDbEntity
100
AcDbBlockBegin
2
*PAPER_SPACE
0
ENDBLK
5
1D
100
AcDbEntity
100
AcDbBlockEnd
0
ENDSEC
0
SECTION
2
ENTITIES
0
CIRCLE
5
100
100
AcDbEntity
8
0
100
AcDbCircle
10
49
20
-49.10583094230379
30
0
40
7.9999999999999982
210
0
220
-0
230
1
0
CIRCLE
5
101
100
AcDbEntity
8
0
100
AcDbCircle
10
94.800000000000011
20
-27
30
0
40
1.6000000000000014
210
0
220
-0
230
1
0
CIRCLE
5
102
100
AcDbEntity
8
0
100
AcDbCircle
10
94.800000000000011
20
-71.000000000000014
30
0
40
1.6000000000000014
210
0
220
-0
230
1
0
LWPOLYLINE
5
103
100
AcDbEntity
8
0
100
AcDbPolyline
90
4
70
1
43
0.0
10
61.599999999999994
20
-10
10
61.599999999999994
20
-35.200000000000003
10
36.399999999999999
20
-35.200000000000003
10
36.399999999999999
20
-10
0
CIRCLE
5
104
100
AcDbEntity
8
0
100
AcDbCircle
10
71.000000000000014
20
-3.2000000000000006
30
0
40
1.6000000000000014
210
0
220
-0
230
1
0
CIRCLE
5
105
100
AcDbEntity
8
0
100
AcDbCircle
10
27
20
-94.800000000000011
30
0
40
1.6000000000000014
210
0
220
-0
230
1
0
CIRCLE
5
106
100
AcDbEntity
8
0
100
AcDbCircle
10
71.000000000000014
20
-94.800000000000011
30
0
40
1.6000000000000014
210
0
220
-0
230
1
0
CIRCLE
5
107
100
AcDbEntity
8
0
100
AcDbCircle
10
3.2000000000000006
20
-27
30
0
40
1.6000000000000003
210
0
220
-0
230
1
0
CIRCLE
5
108
100
AcDbEntity
8
0
100
AcDbCircle
10
27
20
-3.2000000000000006
30
0
40
1.6000000000000014
210
0
220
-0
230
1
0
CIRCLE
5
109
100
AcDbEntity
8
0
100
AcDbCircle
10
3.2000000000000006
20
-71.000000000000014
30
0
40
1.6000000000000028
210
0
220
-0
230
1
0
LWPOLYLINE
5
110
100
AcDbEntity
8
0
100
AcDbPolyline
90
12
70
1
43
0.0
10
7.7000000000000046
20
0
10
7.7000000000000046
20
-7.6999999999999957
10
0
20
-7.6999999999999957
10
0
20
-90.300000000000011
10
7.7000000000000046
20
-90.300000000000011
10
7.7000000000000046
20
-98
10
90.300000000000011
20
-98
10
90.300000000000011
20
-90.300000000000011
10
98
20
-90.300000000000011
10
98
20
-7.6999999999999957
10
90.300000000000011
20
-7.6999999999999957
10
90.300000000000011
20
0
0
ARC
5
111
100
AcDbEntity
8
0
100
AcDbCircle
10
69.000000000000043
20
-69.000000000000071
30
0
40
19.999999999999982
210
0
220
0
230
1
100
AcDbArc
50
-90.000000000000057
51
0
0
LINE
5
112
100
AcDbEntity
8
0
100
AcDbLine
10
89.000000000000028
20
-29.000000000000028
30
0
11
89.000000000000028
21
-69.000000000000071
31
0
0
ARC
5
113
100
AcDbEntity
8
0
100
AcDbCircle
10
69.000000000000028
20
-29.000000000000021
30
0
40
19.999999999999993
210
0
220
0
230
1
100
AcDbArc
50
0
51
89.999999999999972
0
LINE
5
114
100
AcDbEntity
8
0
100
AcDbLine
10
69.000000000000028
20
-9.0000000000000302
30
0
11
29.000000000000004
21
-9.0000000000000302
31
0
0
ARC
5
115
100
AcDbEntity
8
0
100
AcDbCircle
10
28.999999999999989
20
-29.000000000000018
30
0
40
19.999999999999986
210
0
220
-0
230
1
100
AcDbArc
50
89.999999999999972
51
180
0
LINE
5
116
100
AcDbEntity
8
0
100
AcDbLine
10
9.0000000000000124
20
-29.000000000000028
30
0
11
9.0000000000000124
21
-69.000000000000071
31
0
0
ARC
5
117
100
AcDbEntity
8
0
100
AcDbCircle
10
28.999999999999968
20
-69.000000000000099
30
0
40
19.999999999999957
210
0
220
0
230
1
100
AcDbArc
50
180
51
270.00000000000011
0
LINE
5
118
100
AcDbEntity
8
0
100
AcDbLine
10
69.000000000000028
20
-89.000000000000057
30
0
11
29.000000000000004
21
-89.000000000000057
31
0
0
ENDSEC
0
SECTION
2
OBJECTS
0
DICTIONARY
5
C
100
AcDbDictionary
3
ACAD_GROUP
350
D
3
ACAD_MLINESTYLE
350
17
0
DICTIONARY
5
D
100
AcDbDictionary
0
DICTIONARY
5
1A
330
C
100
AcDbDictionary
0
DICTIONARY
5
17
100
AcDbDictionary
0
ENDSEC
0
EOF
