0
SECTION
2
HEADER
9
$INSUNITS
70
4
9
$ACADVER
1
AC1014
9
$HANDSEED
5
FFFF
0
ENDSEC
0
SECTION
2
TABLES
0
TABLE
2
VPORT
5
8
100
AcDbSymbolTable
0
ENDTAB
0
TABLE
2
LTYPE
5
5
100
AcDbSymbolTable
0
LTYPE
5
14
100
AcDbSymbolTableRecord
100
AcDbLinetypeTableRecord
2
BYBLOCK
70
0
0
LTYPE
5
15
100
AcDbSymbolTableRecord
100
AcDbLinetypeTableRecord
2
BYLAYER
70
0
0
ENDTAB
0
TABLE
2
LAYER
5
2
100
AcDbSymbolTable
70
2
0
LAYER
5
50
100
AcDbSymbolTableRecord
100
AcDbLayerTableRecord
2
0
70
0
6
CONTINUOUS
0
ENDTAB
0
TABLE
2
STYLE
5
3
100
AcDbSymbolTable
70
1
0
STYLE
5
11
100
AcDbSymbolTableRecord
100
AcDbTextStyleTableRecord
2
STANDARD
70
0
0
ENDTAB
0
TABLE
2
VIEW
5
6
100
AcDbSymbolTable
70
0
0
ENDTAB
0
TABLE
2
UCS
5
7
100
AcDbSymbolTable
70
0
0
ENDTAB
0
TABLE
2
APPID
5
9
100
AcDbSymbolTable
70
2
0
APPID
5
12
100
AcDbSymbolTableRecord
100
AcDbRegAppTableRecord
2
ACAD
70
0
0
ENDTAB
0
TABLE
2
DIMSTYLE
5
A
100
AcDbSymbolTable
70
1
0
ENDTAB
0
TABLE
2
BLOCK_RECORD
5
1
100
AcDbSymbolTable
70
1
0
BLOCK_RECORD
5
1F
100
AcDbSymbolTableRecord
100
AcDbBlockTableRecord
2
*MODEL_SPACE
0
BLOCK_RECORD
5
1B
100
AcDbSymbolTableRecord
100
AcDbBlockTableRecord
2
*PAPER_SPACE
0
ENDTAB
0
ENDSEC
0
SECTION
2
BLOCKS
0
BLOCK
5
20
100
AcDbEntity
100
AcDbBlockBegin
2
*MODEL_SPACE
0
ENDBLK
5
21
100
AcDbEntity
100
AcDbBlockEnd
0
BLOCK
5
1C
100
AcDbEntity
100
AcDbBlockBegin
2
*PAPER_SPACE
0
ENDBLK
5
1D
100
AcDbEntity
100
AcDbBlockEnd
0
ENDSEC
0
SECTION
2
ENTITIES
0
CIRCLE
5
100
100
AcDbEntity
8
0
100
AcDbCircle
10
25.627194670525128
20
18.750000000002824
30
-8.8817841970012523e-15
40
7.9999999999999982
210
-0
220
0
230
1
0
LWPOLYLINE
5
101
100
AcDbEntity
8
0
100
AcDbPolyline
90
12
70
1
43
0.0
10
-26.666716666666677
20
38.548982884805419
42
0.31783724519578233
10
-40.000050000000009
20
19.692802053164144
10
-40.000050000000009
20
-19.400000000000162
42
0.31783724519578299
10
-26.66671666666673
20
-38.256180831641288
42
-0.24999697943383864
10
-20.313544109379109
20
-45.199999999999996
10
20.313453176882348
20
-45.199999999999996
42
-0.24999694904441125
10
26.666649999999983
20
-38.256204401734735
42
0.31783821836928805
10
40.000050000000002
20
-19.399999999999999
10
40.000050000000002
20
19.399999999999984
42
0.317838218369287
10
26.666649999999979
20
38.25620440173472
42
-0.24999694904441186
10
20.313453176882355
20
45.199999999999996
10
-20.393392731056259
20
45.199999999999996
42
-0.24195022112566034
0
CIRCLE
5
102
100
AcDbEntity
8
0
100
AcDbCircle
10
25.627194670525132
20
18.750000000002824
30
0
40
7.9999999999999982
210
0
220
-0
230
1
0
LWPOLYLINE
5
103
100
AcDbEntity
8
0
100
AcDbPolyline
90
12
70
1
43
0.0
10
-40.000050000000016
20
-19.400000000000162
10
-40.000050000000009
20
19.692802053164144
42
-0.31783724519578227
10
-26.666716666666677
20
38.548982884805419
42
0.24195022112565895
10
-20.393392731056256
20
45.199999999999996
10
20.313453176882348
20
45.199999999999996
42
0.2499969490444105
10
26.666649999999976
20
38.25620440173472
42
-0.31783821836928738
10
40.00004999999998
20
19.399999999999981
10
40.000050000000002
20
-19.400000000000006
42
-0.31783821836928783
10
26.666649999999976
20
-38.256204401734742
42
0.24999694904441155
10
20.313453176882348
20
-45.199999999999996
10
-20.313544109379116
20
-45.199999999999996
42
0.24999697943383839
10
-26.666716666666737
20
-38.256180831641295
42
-0.31783724519578299
0
CIRCLE
5
104
100
AcDbEntity
8
0
100
AcDbCircle
10
-36.600050000000003
20
-45.799999999999997
30
0
40
1.25
210
-0
220
0
230
1
0
CIRCLE
5
105
100
AcDbEntity
8
0
100
AcDbCircle
10
36.59995
20
45.799999999999997
30
0
40
1.25
210
-0
220
0
230
1
0
CIRCLE
5
106
100
AcDbEntity
8
0
100
AcDbCircle
10
-36.600050000000003
20
45.799999999999997
30
0
40
1.25
210
-0
220
0
230
1
0
CIRCLE
5
107
100
AcDbEntity
8
0
100
AcDbCircle
10
36.59995
20
-45.799999999999997
30
0
40
1.25
210
-0
220
0
230
1
0
LWPOLYLINE
5
108
100
AcDbEntity
8
0
100
AcDbPolyline
90
4
70
1
43
0.0
10
-41.300049999999985
20
-49
10
41.29995000000001
20
-49
10
41.29995000000001
20
49
10
-41.300049999999985
20
49
0
ENDSEC
0
SECTION
2
OBJECTS
0
DICTIONARY
5
C
100
AcDbDictionary
3
ACAD_GROUP
350
D
3
ACAD_MLINESTYLE
350
17
0
DICTIONARY
5
D
100
AcDbDictionary
0
DICTIONARY
5
1A
330
C
100
AcDbDictionary
0
DICTIONARY
5
17
100
AcDbDictionary
0
ENDSEC
0
EOF
