0
SECTION
2
HEADER
9
$INSUNITS
70
4
9
$ACADVER
1
AC1014
9
$HANDSEED
5
FFFF
0
ENDSEC
0
SECTION
2
TABLES
0
TABLE
2
VPORT
5
8
100
AcDbSymbolTable
0
ENDTAB
0
TABLE
2
LTYPE
5
5
100
AcDbSymbolTable
0
LTYPE
5
14
100
AcDbSymbolTableRecord
100
AcDbLinetypeTableRecord
2
BYBLOCK
70
0
0
LTYPE
5
15
100
AcDbSymbolTableRecord
100
AcDbLinetypeTableRecord
2
BYLAYER
70
0
0
ENDTAB
0
TABLE
2
LAYER
5
2
100
AcDbSymbolTable
70
2
0
LAYER
5
50
100
AcDbSymbolTableRecord
100
AcDbLayerTableRecord
2
0
70
0
6
CONTINUOUS
0
ENDTAB
0
TABLE
2
STYLE
5
3
100
AcDbSymbolTable
70
1
0
STYLE
5
11
100
AcDbSymbolTableRecord
100
AcDbTextStyleTableRecord
2
STANDARD
70
0
0
ENDTAB
0
TABLE
2
VIEW
5
6
100
AcDbSymbolTable
70
0
0
ENDTAB
0
TABLE
2
UCS
5
7
100
AcDbSymbolTable
70
0
0
ENDTAB
0
TABLE
2
APPID
5
9
100
AcDbSymbolTable
70
2
0
APPID
5
12
100
AcDbSymbolTableRecord
100
AcDbRegAppTableRecord
2
ACAD
70
0
0
ENDTAB
0
TABLE
2
DIMSTYLE
5
A
100
AcDbSymbolTable
70
1
0
ENDTAB
0
TABLE
2
BLOCK_RECORD
5
1
100
AcDbSymbolTable
70
1
0
BLOCK_RECORD
5
1F
100
AcDbSymbolTableRecord
100
AcDbBlockTableRecord
2
*MODEL_SPACE
0
BLOCK_RECORD
5
1B
100
AcDbSymbolTableRecord
100
AcDbBlockTableRecord
2
*PAPER_SPACE
0
ENDTAB
0
ENDSEC
0
SECTION
2
BLOCKS
0
BLOCK
5
20
100
AcDbEntity
100
AcDbBlockBegin
2
*MODEL_SPACE
0
ENDBLK
5
21
100
AcDbEntity
100
AcDbBlockEnd
0
BLOCK
5
1C
100
AcDbEntity
100
AcDbBlockBegin
2
*PAPER_SPACE
0
ENDBLK
5
1D
100
AcDbEntity
100
AcDbBlockEnd
0
ENDSEC
0
SECTION
2
ENTITIES
0
CIRCLE
5
100
100
AcDbEntity
8
0
100
AcDbCircle
10
-15.700000000000003
20
-38
30
0
40
1.25
210
0
220
-0
230
1
0
CIRCLE
5
101
100
AcDbEntity
8
0
100
AcDbCircle
10
-15.700000000000003
20
-10.999999999999993
30
0
40
1.25
210
0
220
-0
230
1
0
CIRCLE
5
102
100
AcDbEntity
8
0
100
AcDbCircle
10
15.700000000000003
20
-38
30
0
40
1.25
210
0
220
-0
230
1
0
CIRCLE
5
103
100
AcDbEntity
8
0
100
AcDbCircle
10
15.700000000000003
20
-10.999999999999993
30
0
40
1.25
210
0
220
-0
230
1
0
CIRCLE
5
104
100
AcDbEntity
8
0
100
AcDbCircle
10
0.68306116180206433
20
0.38014011412854998
30
0
40
8
210
0
220
-0
230
1
0
LWPOLYLINE
5
105
100
AcDbEntity
8
0
100
AcDbPolyline
90
4
70
1
43
0.0
10
-2.000000745058057
20
36.00000074505806
10
-2.000000745058057
20
11.000000745058053
10
-27.000000745058056
20
11.000000745058053
10
-27.000000745058056
20
36.00000074505806
0
LWPOLYLINE
5
106
100
AcDbEntity
8
0
100
AcDbPolyline
90
8
70
1
43
0.0
10
-20.000000000000028
20
-40
10
20.000000000000028
20
-40
42
0.41421356237309503
10
40
20
-20.000000000000028
10
40
20
20.000000000000028
42
0.41421356237309498
10
20.000000000000021
20
40
10
-20.000000000000028
20
40
42
0.41421356237309503
10
-40
20
20.000000000000028
10
-40
20
-20.000000000000028
42
0.41421356237309492
0
LWPOLYLINE
5
107
100
AcDbEntity
8
0
100
AcDbPolyline
90
4
70
1
43
0.0
10
-21.200000000000003
20
-7.9999999999999911
10
21.200000000000003
20
-7.9999999999999911
10
21.200000000000003
20
-41
10
-21.200000000000003
20
-41
0
LWPOLYLINE
5
108
100
AcDbEntity
8
0
100
AcDbPolyline
90
12
70
1
43
0.0
10
-49
20
41.300000000000011
10
-49
20
-41.300000000000011
10
-41.300000000000011
20
-41.300000000000011
10
-41.300000000000011
20
-49
10
41.300000000000011
20
-49
10
41.300000000000011
20
-41.300000000000011
10
49
20
-41.300000000000011
10
49
20
41.300000000000011
10
41.300000000000011
20
41.300000000000011
10
41.300000000000011
20
49
10
-41.300000000000011
20
49
10
-41.300000000000011
20
41.300000000000011
0
CIRCLE
5
109
100
AcDbEntity
8
0
100
AcDbCircle
10
45.800000745058057
20
22.000000745058049
30
0
40
1.25
210
-0
220
0
230
1
0
CIRCLE
5
110
100
AcDbEntity
8
0
100
AcDbCircle
10
22.000000745058067
20
45.800000745058057
30
0
40
1.25
210
-0
220
0
230
1
0
CIRCLE
5
111
100
AcDbEntity
8
0
100
AcDbCircle
10
-22.000000745058067
20
45.800000745058057
30
0
40
1.25
210
0
220
-0
230
1
0
CIRCLE
5
112
100
AcDbEntity
8
0
100
AcDbCircle
10
-45.800000745058057
20
22.000000745058049
30
0
40
1.25
210
0
220
-0
230
1
0
CIRCLE
5
113
100
AcDbEntity
8
0
100
AcDbCircle
10
-45.800000745058057
20
-22.000000745058049
30
0
40
1.25
210
0
220
0
230
1
0
CIRCLE
5
114
100
AcDbEntity
8
0
100
AcDbCircle
10
-22.000000745058067
20
-45.800000745058057
30
0
40
1.25
210
0
220
0
230
1
0
LWPOLYLINE
5
115
100
AcDbEntity
8
0
100
AcDbPolyline
90
8
70
1
43
0.0
10
-40
20
-20.000000000000028
10
-40
20
20.000000000000028
42
-0.41421356237309492
10
-20.000000000000028
20
40
10
20.000000000000028
20
40
42
-0.41421356237309509
10
40
20
20.000000000000021
10
40
20
-20.000000000000028
42
-0.41421356237309492
10
20.000000000000028
20
-40
10
-20.000000000000028
20
-40
42
-0.41421356237309503
0
CIRCLE
5
116
100
AcDbEntity
8
0
100
AcDbCircle
10
22.000000745058067
20
-45.800000745058057
30
0
40
1.25
210
0
220
-0
230
1
0
CIRCLE
5
117
100
AcDbEntity
8
0
100
AcDbCircle
10
45.800000745058057
20
-22.000000745058049
30
0
40
1.25
210
0
220
-0
230
1
0
ELLIPSE
5
118
100
AcDbEntity
8
0
100
AcDbEllipse
10
50.375269772220221
20
-24.499999999999989
30
5.5511151231257827e-16
11
-67.149882558651669
21
-6.6613381477509392e-15
31
0.0
40
0.69841528543100584
41
6.0793748866312125
42
6.4869957277279591
0
ELLIPSE
5
119
100
AcDbEntity
8
0
100
AcDbEllipse
10
-50.375269772220229
20
-24.499999999999915
30
5.5511151231257827e-16
11
67.149882558651669
21
0
31
0.0
40
0.69841528543100573
41
6.0793748866312125
42
6.4869957277279591
0
LWPOLYLINE
5
120
100
AcDbEntity
8
0
100
AcDbPolyline
90
4
70
1
43
0.0
10
-18.199999999999999
20
-13.999999999999993
10
-13.199999925494195
20
-13.999999999999993
10
-13.199999925494195
20
-35.000000312924378
10
-18.199999999999999
20
-35.000000312924378
0
LWPOLYLINE
5
121
100
AcDbEntity
8
0
100
AcDbPolyline
90
4
70
1
43
0.0
10
13.199999925494195
20
-13.999999999999993
10
18.199999999999999
20
-13.999999999999993
10
18.199999999999999
20
-35.000000312924378
10
13.199999925494195
20
-35.000000312924378
0
ENDSEC
0
SECTION
2
OBJECTS
0
DICTIONARY
5
C
100
AcDbDictionary
3
ACAD_GROUP
350
D
3
ACAD_MLINESTYLE
350
17
0
DICTIONARY
5
D
100
AcDbDictionary
0
DICTIONARY
5
1A
330
C
100
AcDbDictionary
0
DICTIONARY
5
17
100
AcDbDictionary
0
ENDSEC
0
EOF
