0
SECTION
2
HEADER
9
$INSUNITS
70
4
9
$ACADVER
1
AC1014
9
$HANDSEED
5
FFFF
0
ENDSEC
0
SECTION
2
TABLES
0
TABLE
2
VPORT
5
8
100
AcDbSymbolTable
0
ENDTAB
0
TABLE
2
LTYPE
5
5
100
AcDbSymbolTable
0
LTYPE
5
14
100
AcDbSymbolTableRecord
100
AcDbLinetypeTableRecord
2
BYBLOCK
70
0
0
LTYPE
5
15
100
AcDbSymbolTableRecord
100
AcDbLinetypeTableRecord
2
BYLAYER
70
0
0
ENDTAB
0
TABLE
2
LAYER
5
2
100
AcDbSymbolTable
70
2
0
LAYER
5
50
100
AcDbSymbolTableRecord
100
AcDbLayerTableRecord
2
0
70
0
6
CONTINUOUS
0
ENDTAB
0
TABLE
2
STYLE
5
3
100
AcDbSymbolTable
70
1
0
STYLE
5
11
100
AcDbSymbolTableRecord
100
AcDbTextStyleTableRecord
2
STANDARD
70
0
0
ENDTAB
0
TABLE
2
VIEW
5
6
100
AcDbSymbolTable
70
0
0
ENDTAB
0
TABLE
2
UCS
5
7
100
AcDbSymbolTable
70
0
0
ENDTAB
0
TABLE
2
APPID
5
9
100
AcDbSymbolTable
70
2
0
APPID
5
12
100
AcDbSymbolTableRecord
100
AcDbRegAppTableRecord
2
ACAD
70
0
0
ENDTAB
0
TABLE
2
DIMSTYLE
5
A
100
AcDbSymbolTable
70
1
0
ENDTAB
0
TABLE
2
BLOCK_RECORD
5
1
100
AcDbSymbolTable
70
1
0
BLOCK_RECORD
5
1F
100
AcDbSymbolTableRecord
100
AcDbBlockTableRecord
2
*MODEL_SPACE
0
BLOCK_RECORD
5
1B
100
AcDbSymbolTableRecord
100
AcDbBlockTableRecord
2
*PAPER_SPACE
0
ENDTAB
0
ENDSEC
0
SECTION
2
BLOCKS
0
BLOCK
5
20
100
AcDbEntity
100
AcDbBlockBegin
2
*MODEL_SPACE
0
ENDBLK
5
21
100
AcDbEntity
100
AcDbBlockEnd
0
BLOCK
5
1C
100
AcDbEntity
100
AcDbBlockBegin
2
*PAPER_SPACE
0
ENDBLK
5
1D
100
AcDbEntity
100
AcDbBlockEnd
0
ENDSEC
0
SECTION
2
ENTITIES
0
CIRCLE
5
100
100
AcDbEntity
8
0
100
AcDbCircle
10
94.800000000000011
20
-27
30
0
40
1.6000000000000014
210
0
220
-0
230
1
0
CIRCLE
5
101
100
AcDbEntity
8
0
100
AcDbCircle
10
49
20
-49.10583094230379
30
0
40
7.9999999999999982
210
0
220
-0
230
1
0
CIRCLE
5
102
100
AcDbEntity
8
0
100
AcDbCircle
10
71.000000000000014
20
-3.2000000000000006
30
0
40
1.6000000000000014
210
0
220
-0
230
1
0
CIRCLE
5
103
100
AcDbEntity
8
0
100
AcDbCircle
10
3.2000000000000006
20
-71.000000000000014
30
0
40
1.6000000000000028
210
0
220
-0
230
1
0
CIRCLE
5
104
100
AcDbEntity
8
0
100
AcDbCircle
10
27
20
-3.2000000000000006
30
0
40
1.6000000000000014
210
0
220
-0
230
1
0
CIRCLE
5
105
100
AcDbEntity
8
0
100
AcDbCircle
10
3.2000000000000006
20
-27
30
0
40
1.6000000000000003
210
0
220
-0
230
1
0
CIRCLE
5
106
100
AcDbEntity
8
0
100
AcDbCircle
10
27
20
-94.800000000000011
30
0
40
1.6000000000000014
210
0
220
-0
230
1
0
CIRCLE
5
107
100
AcDbEntity
8
0
100
AcDbCircle
10
71.000000000000014
20
-94.800000000000011
30
0
40
1.6000000000000014
210
0
220
-0
230
1
0
CIRCLE
5
108
100
AcDbEntity
8
0
100
AcDbCircle
10
94.800000000000011
20
-71.000000000000014
30
0
40
1.6000000000000014
210
0
220
-0
230
1
0
LWPOLYLINE
5
109
100
AcDbEntity
8
0
100
AcDbPolyline
90
4
70
1
43
0.0
10
41.20000000000001
20
-56.800000000000004
10
41.20000000000001
20
-82.000000000000014
10
15.999999999999996
20
-82.000000000000014
10
15.999999999999996
20
-56.800000000000004
0
CIRCLE
5
110
100
AcDbEntity
8
0
100
AcDbCircle
10
87.000000000000014
20
-54.606000000000002
30
0
40
1.6000000000000014
210
0
220
-0
230
1
0
CIRCLE
5
111
100
AcDbEntity
8
0
100
AcDbCircle
10
60.000000000000007
20
-43.606000000000009
30
0
40
1.6000000000000014
210
0
220
-0
230
1
0
CIRCLE
5
112
100
AcDbEntity
8
0
100
AcDbCircle
10
87.000000000000014
20
-43.606000000000009
30
0
40
1.6000000000000014
210
0
220
-0
230
1
0
CIRCLE
5
113
100
AcDbEntity
8
0
100
AcDbCircle
10
60.000000000000007
20
-54.606000000000002
30
0
40
1.6000000000000014
210
0
220
-0
230
1
0
LWPOLYLINE
5
114
100
AcDbEntity
8
0
100
AcDbPolyline
90
4
70
1
43
0.0
10
62.500000000000014
20
-51.606000000000009
10
84.500000000000014
20
-51.606000000000009
10
84.500000000000014
20
-56.606000000000009
10
62.500000000000014
20
-56.606000000000009
0
LWPOLYLINE
5
115
100
AcDbEntity
8
0
100
AcDbPolyline
90
4
70
1
43
0.0
10
62.5
20
-41.606000000000009
10
84.500000000000014
20
-41.606000000000009
10
84.500000000000014
20
-46.606000000000009
10
62.5
20
-46.606000000000009
0
LWPOLYLINE
5
116
100
AcDbEntity
8
0
100
AcDbPolyline
90
12
70
1
43
0.0
10
7.6999999999999957
20
0
10
7.6999999999999957
20
-7.7000000000000002
10
0
20
-7.7000000000000002
10
0
20
-90.300000000000011
10
7.6999999999999957
20
-90.300000000000011
10
7.6999999999999957
20
-98
10
90.300000000000011
20
-98
10
90.300000000000011
20
-90.300000000000011
10
98
20
-90.300000000000011
10
98
20
-7.6999999999999957
10
90.300000000000011
20
-7.7000000000000002
10
90.300000000000011
20
0
0
LINE
5
117
100
AcDbEntity
8
0
100
AcDbLine
10
88.999999254941969
20
-69.00000074505823
30
0
11
88.999999254941969
21
-29.000000745058088
31
0
0
ARC
5
118
100
AcDbEntity
8
0
100
AcDbCircle
10
68.999999254941983
20
-69.000000745058273
30
0
40
19.999999999999972
210
0
220
0
230
1
100
AcDbArc
50
-90
51
0
0
ARC
5
119
100
AcDbEntity
8
0
100
AcDbCircle
10
68.999999254941983
20
-29.000000745058085
30
0
40
19.999999999999982
210
0
220
0
230
1
100
AcDbArc
50
0
51
90
0
LINE
5
120
100
AcDbEntity
8
0
100
AcDbLine
10
68.999999254941983
20
-9.0000007450580721
30
0
11
28.999999254941926
21
-9.0000007450580721
31
0
0
ARC
5
121
100
AcDbEntity
8
0
100
AcDbCircle
10
28.999999254941894
20
-29.000000745058014
30
0
40
19.999999999999943
210
0
220
-0
230
1
100
AcDbArc
50
89.999999999999915
51
180
0
LINE
5
122
100
AcDbEntity
8
0
100
AcDbLine
10
8.9999992549419527
20
-69.00000074505823
30
0
11
8.9999992549419527
21
-29.000000745058088
31
0
0
LINE
5
123
100
AcDbEntity
8
0
100
AcDbLine
10
68.999999254941983
20
-89.00000074505823
30
0
11
28.999999254941926
21
-89.00000074505823
31
0
0
ARC
5
124
100
AcDbEntity
8
0
100
AcDbCircle
10
28.999999254941926
20
-69.00000074505823
30
0
40
19.999999999999972
210
0
220
0
230
1
100
AcDbArc
50
180
51
270
0
LWPOLYLINE
5
125
100
AcDbEntity
8
0
100
AcDbPolyline
90
4
70
1
43
0.0
10
88.999999254941969
20
-61.60583094230379
10
57.000000849366188
20
-61.60583094230379
10
57.000000849366188
20
-36.60583094230379
10
88.999999254941969
20
-36.60583094230379
0
ENDSEC
0
SECTION
2
OBJECTS
0
DICTIONARY
5
C
100
AcDbDictionary
3
ACAD_GROUP
350
D
3
ACAD_MLINESTYLE
350
17
0
DICTIONARY
5
D
100
AcDbDictionary
0
DICTIONARY
5
1A
330
C
100
AcDbDictionary
0
DICTIONARY
5
17
100
AcDbDictionary
0
ENDSEC
0
EOF
