0
SECTION
2
HEADER
9
$INSUNITS
70
4
9
$ACADVER
1
AC1014
9
$HANDSEED
5
FFFF
0
ENDSEC
0
SECTION
2
TABLES
0
TABLE
2
VPORT
5
8
100
AcDbSymbolTable
0
ENDTAB
0
TABLE
2
LTYPE
5
5
100
AcDbSymbolTable
0
LTYPE
5
14
100
AcDbSymbolTableRecord
100
AcDbLinetypeTableRecord
2
BYBLOCK
70
0
0
LTYPE
5
15
100
AcDbSymbolTableRecord
100
AcDbLinetypeTableRecord
2
BYLAYER
70
0
0
ENDTAB
0
TABLE
2
LAYER
5
2
100
AcDbSymbolTable
70
2
0
LAYER
5
50
100
AcDbSymbolTableRecord
100
AcDbLayerTableRecord
2
0
70
0
6
CONTINUOUS
0
ENDTAB
0
TABLE
2
STYLE
5
3
100
AcDbSymbolTable
70
1
0
STYLE
5
11
100
AcDbSymbolTableRecord
100
AcDbTextStyleTableRecord
2
STANDARD
70
0
0
ENDTAB
0
TABLE
2
VIEW
5
6
100
AcDbSymbolTable
70
0
0
ENDTAB
0
TABLE
2
UCS
5
7
100
AcDbSymbolTable
70
0
0
ENDTAB
0
TABLE
2
APPID
5
9
100
AcDbSymbolTable
70
2
0
APPID
5
12
100
AcDbSymbolTableRecord
100
AcDbRegAppTableRecord
2
ACAD
70
0
0
ENDTAB
0
TABLE
2
DIMSTYLE
5
A
100
AcDbSymbolTable
70
1
0
ENDTAB
0
TABLE
2
BLOCK_RECORD
5
1
100
AcDbSymbolTable
70
1
0
BLOCK_RECORD
5
1F
100
AcDbSymbolTableRecord
100
AcDbBlockTableRecord
2
*MODEL_SPACE
0
BLOCK_RECORD
5
1B
100
AcDbSymbolTableRecord
100
AcDbBlockTableRecord
2
*PAPER_SPACE
0
ENDTAB
0
ENDSEC
0
SECTION
2
BLOCKS
0
BLOCK
5
20
100
AcDbEntity
100
AcDbBlockBegin
2
*MODEL_SPACE
0
ENDBLK
5
21
100
AcDbEntity
100
AcDbBlockEnd
0
BLOCK
5
1C
100
AcDbEntity
100
AcDbBlockBegin
2
*PAPER_SPACE
0
ENDBLK
5
1D
100
AcDbEntity
100
AcDbBlockEnd
0
ENDSEC
0
SECTION
2
ENTITIES
0
LINE
5
100
100
AcDbEntity
8
0
100
AcDbLine
10
65.625000000000014
20
-53.77757287525381
30
0
11
65.106909330287394
21
-52.977572875253841
31
0
0
LINE
5
101
100
AcDbEntity
8
0
100
AcDbLine
10
65.106909330287394
20
-52.977572875253841
30
0
11
65.96270136969305
21
-51.656117632864891
31
0
0
ELLIPSE
5
102
100
AcDbEntity
8
0
100
AcDbEllipse
10
74.500000000000014
20
-38.473407919073011
30
0
11
0
21
-17.876094965181437
31
0.0
40
0.70710678118654768
41
5.5416746164476383
42
7.0246959979115333
0
LINE
5
103
100
AcDbEntity
8
0
100
AcDbLine
10
83.037298630306964
20
-51.656117632864913
30
0
11
83.893090669712635
21
-52.977572875253841
31
0
0
LINE
5
104
100
AcDbEntity
8
0
100
AcDbLine
10
83.893090669712635
20
-52.977572875253841
30
0
11
83.375
21
-53.77757287525381
31
0
0
ELLIPSE
5
105
100
AcDbEntity
8
0
100
AcDbEllipse
10
74.500000000000014
20
-40.07340791907302
30
0
11
0
21
-18.583201746367987
31
0.0
40
0.70710678118654746
41
5.5416746164476383
42
7.0246959979115342
0
LINE
5
106
100
AcDbEntity
8
0
100
AcDbLine
10
83.375
20
-44.4344271247462
30
0
11
83.893090669712592
21
-45.234427124746183
31
0
0
LINE
5
107
100
AcDbEntity
8
0
100
AcDbLine
10
83.893090669712592
20
-45.234427124746183
30
0
11
83.037298630306978
21
-46.555882367135112
31
0
0
ELLIPSE
5
108
100
AcDbEntity
8
0
100
AcDbEllipse
10
74.500000000000014
20
-59.738592080926992
30
0
11
-2.2204460492503131e-15
21
17.876094965181441
31
0.0
40
0.70710678118654757
41
5.5416746164476374
42
7.0246959979115342
0
LINE
5
109
100
AcDbEntity
8
0
100
AcDbLine
10
65.96270136969305
20
-46.555882367135112
30
0
11
65.10690933028738
21
-45.234427124746183
31
0
0
LINE
5
110
100
AcDbEntity
8
0
100
AcDbLine
10
65.10690933028738
20
-45.234427124746183
30
0
11
65.625000000000014
21
-44.4344271247462
31
0
0
ELLIPSE
5
111
100
AcDbEntity
8
0
100
AcDbEllipse
10
74.500000000000014
20
-58.138592080926998
30
0
11
-4.440892098500627e-15
21
18.58320174636798
31
0.0
40
0.70710678118654746
41
5.5416746164476391
42
7.0246959979115351
0
CIRCLE
5
112
100
AcDbEntity
8
0
100
AcDbCircle
10
49
20
-49.10583094230379
30
0
40
7.9999999999999982
210
0
220
-0
230
1
0
CIRCLE
5
113
100
AcDbEntity
8
0
100
AcDbCircle
10
27
20
-94.800000000000011
30
0
40
1.6000000000000014
210
0
220
-0
230
1
0
CIRCLE
5
114
100
AcDbEntity
8
0
100
AcDbCircle
10
62.000000000000014
20
-56.606000000000009
30
0
40
1.6000000000000014
210
0
220
-0
230
1
0
CIRCLE
5
115
100
AcDbEntity
8
0
100
AcDbCircle
10
71.000000000000014
20
-3.2000000000000006
30
0
40
1.6000000000000014
210
0
220
-0
230
1
0
CIRCLE
5
116
100
AcDbEntity
8
0
100
AcDbCircle
10
94.800000000000011
20
-71.000000000000014
30
0
40
1.6000000000000014
210
0
220
-0
230
1
0
CIRCLE
5
117
100
AcDbEntity
8
0
100
AcDbCircle
10
71.000000000000014
20
-94.800000000000011
30
0
40
1.6000000000000014
210
0
220
-0
230
1
0
CIRCLE
5
118
100
AcDbEntity
8
0
100
AcDbCircle
10
62.000000000000014
20
-41.606000000000009
30
0
40
1.6000000000000014
210
0
220
-0
230
1
0
CIRCLE
5
119
100
AcDbEntity
8
0
100
AcDbCircle
10
87.000000000000014
20
-56.606000000000009
30
0
40
1.6000000000000014
210
0
220
-0
230
1
0
LWPOLYLINE
5
120
100
AcDbEntity
8
0
100
AcDbPolyline
90
4
70
1
43
0.0
10
41.20000000000001
20
-56.800000000000004
10
41.20000000000001
20
-82.000000000000014
10
16.000000000000007
20
-82.000000000000014
10
16.000000000000007
20
-56.800000000000004
0
CIRCLE
5
121
100
AcDbEntity
8
0
100
AcDbCircle
10
87.000000000000014
20
-41.606000000000009
30
0
40
1.6000000000000014
210
0
220
-0
230
1
0
CIRCLE
5
122
100
AcDbEntity
8
0
100
AcDbCircle
10
94.800000000000011
20
-27
30
0
40
1.6000000000000014
210
0
220
-0
230
1
0
CIRCLE
5
123
100
AcDbEntity
8
0
100
AcDbCircle
10
3.2000000000000006
20
-71.000000000000014
30
0
40
1.6000000000000028
210
0
220
-0
230
1
0
CIRCLE
5
124
100
AcDbEntity
8
0
100
AcDbCircle
10
27
20
-3.2000000000000006
30
0
40
1.6000000000000014
210
0
220
-0
230
1
0
CIRCLE
5
125
100
AcDbEntity
8
0
100
AcDbCircle
10
3.2000000000000006
20
-27
30
0
40
1.6000000000000003
210
0
220
-0
230
1
0
LWPOLYLINE
5
126
100
AcDbEntity
8
0
100
AcDbPolyline
90
12
70
1
43
0.0
10
7.7000000000000046
20
0
10
7.7000000000000046
20
-7.6999999999999957
10
0
20
-7.6999999999999957
10
0
20
-90.300000000000011
10
7.7000000000000046
20
-90.300000000000011
10
7.7000000000000046
20
-98
10
90.300000000000011
20
-98
10
90.300000000000011
20
-90.300000000000011
10
98
20
-90.300000000000011
10
98
20
-7.6999999999999957
10
90.300000000000011
20
-7.6999999999999957
10
90.300000000000011
20
0
0
LINE
5
127
100
AcDbEntity
8
0
100
AcDbLine
10
85.084477708732337
20
-52.977572875253855
30
0
11
84.192181400467931
21
-54.355395500408257
31
0
0
SPLINE
5
128
100
AcDbEntity
8
0
100
AcDbSpline
70
0
71
3
72
14
73
10
74
0
42
0.000000001
43
0.0000000001
44
0.0000000001
40
-0.74400726680634566
40
-0.74400726680634566
40
-0.74400726680634566
40
-0.74400726680634566
40
-0.14862844728581959
40
-0.14862844728581959
40
-0.14862844728581959
40
0.40977426835057662
40
0.40977426835057662
40
0.40977426835057662
40
0.7440072668062826
40
0.7440072668062826
40
0.7440072668062826
40
0.7440072668062826
10
64.807818599531458
20
-54.355395500407404
30
0
10
66.844408371647333
20
-57.005206299664117
30
0
10
69.499245197383402
20
-58.827015996705548
30
0
10
72.346998670966713
20
-59.430038932259635
30
0
10
75.017891925772986
20
-59.995611024789916
30
0
10
77.821603338079569
20
-59.467167076390652
30
0
10
80.258544567356154
20
-57.970198323849054
30
0
10
81.717180335617385
20
-57.074184854096757
30
0
10
83.0491523870283
20
-55.843136831719569
30
0
10
84.192181400467931
20
-54.355395500408257
30
0
0
LINE
5
129
100
AcDbEntity
8
0
100
AcDbLine
10
64.807818599531458
20
-54.355395500407404
30
0
11
63.915522291267692
21
-52.977572875253848
31
0
0
LINE
5
130
100
AcDbEntity
8
0
100
AcDbLine
10
63.915522291267692
20
-52.977572875253848
30
0
11
65.93019250476641
21
-49.866657614623833
31
0
0
SPLINE
5
131
100
AcDbEntity
8
0
100
AcDbSpline
70
0
71
3
72
14
73
10
74
0
42
0.000000001
43
0.0000000001
44
0.0000000001
40
-0.84024198311315035
40
-0.84024198311315035
40
-0.84024198311315035
40
-0.84024198311315035
40
-0.4856979636328107
40
-0.4856979636328107
40
-0.4856979636328107
40
0.32569231543536048
40
0.32569231543536048
40
0.32569231543536048
40
0.84024198311314446
40
0.84024198311314446
40
0.84024198311314446
40
0.84024198311314446
10
65.93019250476641
20
-49.866657614623819
30
0
10
66.87417019643668
20
-51.340104925783692
30
0
10
67.986278400189292
20
-52.576653542488486
30
0
10
69.197396902533484
20
-53.48078702955263
30
0
10
71.969097243275414
20
-55.549938057566337
30
0
10
75.187556720647649
20
-55.904822069959586
30
0
10
78.113478447591206
20
-54.507382595227092
30
0
10
79.968975230198708
20
-53.621185119273598
30
0
10
81.704165136108003
20
-52.008427133040847
30
0
10
83.069807495233562
20
-49.86665761462389
30
0
0
LINE
5
132
100
AcDbEntity
8
0
100
AcDbLine
10
83.06980749523359
20
-49.866657614623875
30
0
11
85.084477708732337
21
-52.977572875253855
31
0
0
LINE
5
133
100
AcDbEntity
8
0
100
AcDbLine
10
63.91552230902073
20
-45.234427124746176
30
0
11
64.807818611713216
21
-43.856604508195389
31
0
0
SPLINE
5
134
100
AcDbEntity
8
0
100
AcDbSpline
70
0
71
3
72
14
73
10
74
0
42
0.000000001
43
0.0000000001
44
0.0000000001
40
-0.74400726677072615
40
-0.74400726677072615
40
-0.74400726677072615
40
-0.74400726677072615
40
-0.14862844641016681
40
-0.14862844641016681
40
-0.14862844641016681
40
0.40977427032590541
40
0.40977427032590541
40
0.40977427032590541
40
0.74400726677077555
40
0.74400726677077555
40
0.74400726677077555
40
0.74400726677077555
10
84.192181388286272
20
-43.856604508194728
30
0
10
82.155591614984772
20
-41.206793707569247
30
0
10
79.500754787453474
20
-39.384984011709577
30
0
10
76.653001313381395
20
-38.781961079657606
30
0
10
73.982108056625265
20
-38.216388990096121
30
0
10
71.178396643320212
20
-38.744832944431096
30
0
10
68.741455414581608
20
-40.241801704734321
30
0
10
67.282819658290464
20
-41.137815171977159
30
0
10
65.950847617332272
20
-42.368863187164614
30
0
10
64.807818611713216
20
-43.856604508195389
30
0
0
LINE
5
135
100
AcDbEntity
8
0
100
AcDbLine
10
84.192181388286272
20
-43.856604508194728
30
0
11
85.084477690979242
21
-45.234427124746176
31
0
0
LINE
5
136
100
AcDbEntity
8
0
100
AcDbLine
10
85.084477690979242
20
-45.234427124746176
30
0
11
83.069807495371762
21
-48.345342357749843
31
0
0
SPLINE
5
137
100
AcDbEntity
8
0
100
AcDbSpline
70
0
71
3
72
14
73
10
74
0
42
0.000000001
43
0.0000000001
44
0.0000000001
40
-0.8402419815467399
40
-0.8402419815467399
40
-0.8402419815467399
40
-0.8402419815467399
40
-0.48569795716536235
40
-0.48569795716536235
40
-0.48569795716536235
40
0.32569231552143274
40
0.32569231552143274
40
0.32569231552143274
40
0.84024198154673513
40
0.84024198154673513
40
0.84024198154673513
40
0.84024198154673513
10
83.069807495371762
20
-48.345342357749843
30
0
10
82.12582978829542
20
-46.871895027140468
30
0
10
81.013721564238722
20
-45.635346398196539
30
0
10
79.802603040102483
20
-44.731212909028045
30
0
10
77.030902709601733
20
-42.662061921074717
30
0
10
73.812443253590217
20
-42.307177925434338
30
0
10
70.886521545055658
20
-43.704617391771365
30
0
10
69.031024765488269
20
-44.590814866524497
30
0
10
67.295834862913367
20
-46.203572847534993
30
0
10
65.93019250462828
20
-48.3453423577498
30
0
0
LINE
5
138
100
AcDbEntity
8
0
100
AcDbLine
10
65.93019250462828
20
-48.345342357749807
30
0
11
63.91552230902073
21
-45.234427124746176
31
0
0
LWPOLYLINE
5
139
100
AcDbEntity
8
0
100
AcDbPolyline
90
4
70
1
43
0.0
10
89.000001326203346
20
-62.606000000000002
10
57.000000849366188
20
-62.606000000000002
10
57.000000849366188
20
-35.606000000000009
10
89.000001326203346
20
-35.606000000000009
0
LINE
5
140
100
AcDbEntity
8
0
100
AcDbLine
10
28.999999999999982
20
-89.000000000000057
30
0
11
69.000000000000028
21
-89.000000000000057
31
0
0
ARC
5
141
100
AcDbEntity
8
0
100
AcDbCircle
10
69.000000000000043
20
-69.000000000000071
30
0
40
19.999999999999993
210
0
220
0
230
1
100
AcDbArc
50
-90.000000000000057
51
0
0
LINE
5
142
100
AcDbEntity
8
0
100
AcDbLine
10
89.000000000000028
20
-69.000000000000057
30
0
11
89.000000000000028
21
-29.000000000000014
31
0
0
ARC
5
143
100
AcDbEntity
8
0
100
AcDbCircle
10
69.000000000000028
20
-29.000000000000004
30
0
40
20
210
0
220
0
230
1
100
AcDbArc
50
0
51
89.999999999999972
0
LINE
5
144
100
AcDbEntity
8
0
100
AcDbLine
10
28.999999999999982
20
-9.0000000000000036
30
0
11
69.000000000000028
21
-9.0000000000000036
31
0
0
ARC
5
145
100
AcDbEntity
8
0
100
AcDbCircle
10
28.999999999999968
20
-28.999999999999993
30
0
40
19.999999999999993
210
0
220
-0
230
1
100
AcDbArc
50
89.999999999999943
51
180
0
LINE
5
146
100
AcDbEntity
8
0
100
AcDbLine
10
8.9999999999999769
20
-69.000000000000057
30
0
11
8.9999999999999769
21
-29.000000000000014
31
0
0
ARC
5
147
100
AcDbEntity
8
0
100
AcDbCircle
10
28.999999999999957
20
-69.000000000000085
30
0
40
19.999999999999982
210
0
220
0
230
1
100
AcDbArc
50
180
51
270.00000000000011
0
LWPOLYLINE
5
148
100
AcDbEntity
8
0
100
AcDbPolyline
90
4
70
1
43
0.0
10
89.000001326203346
20
-62.606000000000002
10
92.000001326203346
20
-62.606000000000002
10
92.000001326203346
20
-35.606000000000009
10
89.000001326203346
20
-35.606000000000009
0
ENDSEC
0
SECTION
2
OBJECTS
0
DICTIONARY
5
C
100
AcDbDictionary
3
ACAD_GROUP
350
D
3
ACAD_MLINESTYLE
350
17
0
DICTIONARY
5
D
100
AcDbDictionary
0
DICTIONARY
5
1A
330
C
100
AcDbDictionary
0
DICTIONARY
5
17
100
AcDbDictionary
0
ENDSEC
0
EOF
