0
SECTION
2
HEADER
9
$INSUNITS
70
4
9
$ACADVER
1
AC1014
9
$HANDSEED
5
FFFF
0
ENDSEC
0
SECTION
2
TABLES
0
TABLE
2
VPORT
5
8
100
AcDbSymbolTable
0
ENDTAB
0
TABLE
2
LTYPE
5
5
100
AcDbSymbolTable
0
LTYPE
5
14
100
AcDbSymbolTableRecord
100
AcDbLinetypeTableRecord
2
BYBLOCK
70
0
0
LTYPE
5
15
100
AcDbSymbolTableRecord
100
AcDbLinetypeTableRecord
2
BYLAYER
70
0
0
ENDTAB
0
TABLE
2
LAYER
5
2
100
AcDbSymbolTable
70
2
0
LAYER
5
50
100
AcDbSymbolTableRecord
100
AcDbLayerTableRecord
2
0
70
0
6
CONTINUOUS
0
ENDTAB
0
TABLE
2
STYLE
5
3
100
AcDbSymbolTable
70
1
0
STYLE
5
11
100
AcDbSymbolTableRecord
100
AcDbTextStyleTableRecord
2
STANDARD
70
0
0
ENDTAB
0
TABLE
2
VIEW
5
6
100
AcDbSymbolTable
70
0
0
ENDTAB
0
TABLE
2
UCS
5
7
100
AcDbSymbolTable
70
0
0
ENDTAB
0
TABLE
2
APPID
5
9
100
AcDbSymbolTable
70
2
0
APPID
5
12
100
AcDbSymbolTableRecord
100
AcDbRegAppTableRecord
2
ACAD
70
0
0
ENDTAB
0
TABLE
2
DIMSTYLE
5
A
100
AcDbSymbolTable
70
1
0
ENDTAB
0
TABLE
2
BLOCK_RECORD
5
1
100
AcDbSymbolTable
70
1
0
BLOCK_RECORD
5
1F
100
AcDbSymbolTableRecord
100
AcDbBlockTableRecord
2
*MODEL_SPACE
0
BLOCK_RECORD
5
1B
100
AcDbSymbolTableRecord
100
AcDbBlockTableRecord
2
*PAPER_SPACE
0
ENDTAB
0
ENDSEC
0
SECTION
2
BLOCKS
0
BLOCK
5
20
100
AcDbEntity
100
AcDbBlockBegin
2
*MODEL_SPACE
0
ENDBLK
5
21
100
AcDbEntity
100
AcDbBlockEnd
0
BLOCK
5
1C
100
AcDbEntity
100
AcDbBlockBegin
2
*PAPER_SPACE
0
ENDBLK
5
1D
100
AcDbEntity
100
AcDbBlockEnd
0
ENDSEC
0
SECTION
2
ENTITIES
0
LWPOLYLINE
5
100
100
AcDbEntity
8
0
100
AcDbPolyline
90
24
70
1
43
0.0
10
49.007725302123845
20
-42.124215005493042
10
-48.992074697876177
20
-42.124215005492943
42
-0.4142135623730846
10
-49.992074697876163
20
-41.124215005492921
10
-49.992124697876136
20
-36.713165005492918
10
-48.976024697876184
20
-35.69706500549291
10
-48.976074697876172
20
-12.583215005492914
10
-49.992274697876134
20
-11.567115005492923
10
-49.99207469787612
20
9.1374849945070853
10
-48.975974697876097
20
10.153584994507074
10
-48.976024697876085
20
33.267434994507084
10
-49.992224697876068
20
34.283534994507079
10
-49.992274697876091
20
38.875784994507079
42
-0.41421356237309503
10
-48.992274697876098
20
39.875784994507072
10
49.007725302123944
20
39.875784994506979
42
-0.41421356237309503
10
50.007725302123951
20
38.875784994506972
10
50.007775302123946
20
34.28013499450698
10
48.991675302123944
20
33.263934994506982
10
48.991725302123911
20
10.150084994506976
10
50.007825302123912
20
9.1339849945069673
10
50.007625302123898
20
-11.567015005493033
10
48.991525302123875
20
-12.58321500549302
10
48.991575302123849
20
-35.697065005493016
10
50.007675302123864
20
-36.713165005493025
10
50.007725302123873
20
-41.124215005493028
42
-0.41421356237310025
0
CIRCLE
5
101
100
AcDbEntity
8
0
100
AcDbCircle
10
-18.369174697876094
20
3.8033849945070486
30
0
40
0.50000000000000022
210
-3.5664483175810458e-32
220
3.9090152822637561e-47
230
1
0
CIRCLE
5
102
100
AcDbEntity
8
0
100
AcDbCircle
10
-18.369174697876094
20
-5.5946150054929689
30
8.8817841970012523e-15
40
0.50000000000000022
210
-3.5664483175810458e-32
220
3.9090152822637561e-47
230
1
0
CIRCLE
5
103
100
AcDbEntity
8
0
100
AcDbCircle
10
-37.570999697876161
20
-38.700996005492939
30
0
40
1.7000000000000004
210
1.3639323400502955e-32
220
-1.494941714127114e-47
230
1
0
CIRCLE
5
104
100
AcDbEntity
8
0
100
AcDbCircle
10
-1.9861746978761197
20
-1.1242150054929745
30
0
40
4.6250000000000009
210
-3.5664483175810288e-32
220
3.9090152822637376e-47
230
1
0
CIRCLE
5
105
100
AcDbEntity
8
0
100
AcDbCircle
10
37.570998302123861
20
-38.70099600549301
30
8.8817841970012523e-15
40
1.7000000000000004
210
1.3639323400502955e-32
220
-1.494941714127114e-47
230
1
0
CIRCLE
5
106
100
AcDbEntity
8
0
100
AcDbCircle
10
37.570998302123954
20
36.441003994506985
30
0
40
1.7000000000000004
210
1.3639323400502955e-32
220
-1.494941714127114e-47
230
1
0
CIRCLE
5
107
100
AcDbEntity
8
0
100
AcDbCircle
10
-37.57099969787609
20
36.441003994507064
30
0
40
1.7000000000000004
210
1.3639323400502955e-32
220
-1.494941714127114e-47
230
1
0
ARC
5
108
100
AcDbEntity
8
0
100
AcDbCircle
10
-27.945399697876809
20
-8.5604960055440618
30
0
40
1.4149999999999996
210
-5.3105185987349089e-32
220
-9.8607613152663741e-32
230
1
100
AcDbArc
50
270.00000000004007
51
360
0
ARC
5
109
100
AcDbEntity
8
0
100
AcDbCircle
10
-27.945399697876809
20
-8.5604960055440618
30
0
40
1.4149999999999996
210
-1.097739524312568e-32
220
-9.860761315263427e-32
230
1
100
AcDbArc
50
270.00000000004007
51
360
0
LWPOLYLINE
5
110
100
AcDbEntity
8
0
100
AcDbPolyline
90
14
70
1
43
0.0
10
-26.53039969787681
20
-8.5604960055440653
10
-26.53039969787681
20
-8.4859314676230646
10
-26.530399697876806
20
-8.3854500365530669
10
-26.530399697876806
20
-7.7437996229590658
10
-26.530399697876806
20
-7.4409146479050658
10
-26.530399697876803
20
-6.2521803813550658
10
-26.530399697876806
20
-6.0866013019960654
10
-26.530399697876796
20
-4.6843907090890653
10
-26.530399697876803
20
-4.5188116297310668
10
-26.530399697876796
20
-3.3300773631810658
10
-26.530399697876792
20
-3.0271923881260658
10
-26.530399697876792
20
-2.3855419745330662
10
-26.530399697876792
20
-2.2850605434630658
10
-26.530399697876796
20
-2.210496005542061
0
LINE
5
111
100
AcDbEntity
8
0
100
AcDbLine
10
-29.909186770731814
20
-9.9754960055440538
30
0
11
-30.20539969787681
21
-9.975496005544052
31
-1.8538104595141748e-33
0
LINE
5
112
100
AcDbEntity
8
0
100
AcDbLine
10
-30.20539969787681
20
-9.975496005544052
30
-1.8538104595141748e-33
11
-29.909186770731814
21
-9.9754960055440538
31
0
0
LINE
5
113
100
AcDbEntity
8
0
100
AcDbLine
10
-29.909186770731814
20
-9.9754960055440538
30
0
11
-29.805399697876812
21
-9.975496005544052
31
-3.1687369434069685e-17
0
LINE
5
114
100
AcDbEntity
8
0
100
AcDbLine
10
-29.720783590363812
20
-9.9754960055440538
30
0
11
-29.805399697876812
21
-9.975496005544052
31
-3.1687369434069685e-17
0
LINE
5
115
100
AcDbEntity
8
0
100
AcDbLine
10
-29.720783590363812
20
-9.9754960055440538
30
0
11
-28.505399697876811
21
-9.9754960055440556
31
1.5239875059917953e-32
0
LINE
5
116
100
AcDbEntity
8
0
100
AcDbLine
10
-28.505399697876811
20
-9.9754960055440556
30
1.5239875059917953e-32
11
-28.369391756782814
21
-9.9754960055440556
31
-4.1524765626965317e-17
0
LINE
5
117
100
AcDbEntity
8
0
100
AcDbLine
10
-28.505399697876811
20
-9.9754960055440556
30
1.5239875059917953e-32
11
-29.15539969787681
21
-9.9754960055440538
31
5.3073725467238015e-33
0
LINE
5
118
100
AcDbEntity
8
0
100
AcDbLine
10
-29.15539969787681
20
-9.9754960055440538
30
5.3073725467238015e-33
11
-29.305399697876815
21
-9.9754960055440538
31
4.5796699765788149e-17
0
LINE
5
119
100
AcDbEntity
8
0
100
AcDbLine
10
-29.15539969787681
20
-9.9754960055440538
30
5.3073725467238015e-33
11
-29.305399697876815
21
-9.9754960055440538
31
4.5796699765788149e-17
0
LINE
5
120
100
AcDbEntity
8
0
100
AcDbLine
10
-29.15539969787681
20
-9.9754960055440538
30
5.3073725467238015e-33
11
-27.945399697875818
21
-9.9754960055440556
31
2.4727601488864103e-32
0
LINE
5
121
100
AcDbEntity
8
0
100
AcDbLine
10
-27.945399697875818
20
-9.9754960055440556
30
2.4727601488864103e-32
11
-28.270886569242315
21
-9.9754960055440591
31
3.5116718931436801e-33
0
LINE
5
122
100
AcDbEntity
8
0
100
AcDbLine
10
-28.270886569242315
20
-9.9754960055440591
30
3.5116718931436801e-33
11
-28.362479964463041
21
-9.9754960055440591
31
2.7964501476352869e-17
0
LINE
5
123
100
AcDbEntity
8
0
100
AcDbLine
10
-28.454139120525813
20
-9.9754960055440591
30
0
11
-28.362479964463041
21
-9.9754960055440591
31
2.7964501476352869e-17
0
LINE
5
124
100
AcDbEntity
8
0
100
AcDbLine
10
-28.454139120525813
20
-9.9754960055440591
30
0
11
-29.15539969787681
21
-9.9754960055440538
31
5.3073725467238015e-33
0
LINE
5
125
100
AcDbEntity
8
0
100
AcDbLine
10
-29.15539969787681
20
-9.9754960055440538
30
5.3073725467238015e-33
11
-29.305399697876815
21
-9.9754960055440538
31
4.5796699765788149e-17
0
LINE
5
126
100
AcDbEntity
8
0
100
AcDbLine
10
-29.15539969787681
20
-9.9754960055440538
30
5.3073725467238015e-33
11
-29.305399697876815
21
-9.9754960055440538
31
4.5796699765788149e-17
0
LINE
5
127
100
AcDbEntity
8
0
100
AcDbLine
10
-29.15539969787681
20
-9.9754960055440538
30
5.3073725467238015e-33
11
-28.505399697876811
21
-9.9754960055440556
31
1.5239875059917953e-32
0
LINE
5
128
100
AcDbEntity
8
0
100
AcDbLine
10
-28.505399697876811
20
-9.9754960055440556
30
1.5239875059917953e-32
11
-28.369391756782814
21
-9.9754960055440556
31
-4.1524765626965317e-17
0
LINE
5
129
100
AcDbEntity
8
0
100
AcDbLine
10
-28.505399697876811
20
-9.9754960055440556
30
1.5239875059917953e-32
11
-29.720783590363812
21
-9.9754960055440538
31
0
0
LINE
5
130
100
AcDbEntity
8
0
100
AcDbLine
10
-29.720783590363812
20
-9.9754960055440538
30
0
11
-29.805399697876812
21
-9.975496005544052
31
-3.1687369434069685e-17
0
LINE
5
131
100
AcDbEntity
8
0
100
AcDbLine
10
-29.909186770731814
20
-9.9754960055440538
30
0
11
-29.805399697876812
21
-9.975496005544052
31
-3.1687369434069685e-17
0
ARC
5
132
100
AcDbEntity
8
0
100
AcDbCircle
10
-27.945399697876795
20
-2.2104960055420624
30
0
40
1.4150000000000018
210
-5.8801593565995004e-35
220
1.3219339062367198e-49
230
1
100
AcDbArc
50
0
51
89.999999999999716
0
ARC
5
133
100
AcDbEntity
8
0
100
AcDbCircle
10
-27.945399697876795
20
-2.2104960055420624
30
0
40
1.4150000000000018
210
-5.8801593565995004e-35
220
3.5094879836722531e-44
230
1
100
AcDbArc
50
0
51
89.999999999999716
0
LINE
5
134
100
AcDbEntity
8
0
100
AcDbLine
10
-29.909186770731793
20
-0.79549600554205468
30
0
11
-30.205399697876793
21
-0.79549600554205402
31
-1.8538104595141748e-33
0
LINE
5
135
100
AcDbEntity
8
0
100
AcDbLine
10
-30.205399697876793
20
-0.79549600554205402
30
-1.8538104595141748e-33
11
-29.909186770731793
21
-0.79549600554205468
31
0
0
LINE
5
136
100
AcDbEntity
8
0
100
AcDbLine
10
-29.909186770731793
20
-0.79549600554205468
30
0
11
-29.805399697876794
21
-0.7954960055420558
31
-3.1687369434070116e-17
0
LINE
5
137
100
AcDbEntity
8
0
100
AcDbLine
10
-29.720783590363794
20
-0.79549600554205613
30
0
11
-29.805399697876794
21
-0.7954960055420558
31
-3.1687369434070116e-17
0
LINE
5
138
100
AcDbEntity
8
0
100
AcDbLine
10
-29.720783590363794
20
-0.79549600554205613
30
0
11
-28.505399697876793
21
-0.7954960055420589
31
1.5239875059917953e-32
0
LINE
5
139
100
AcDbEntity
8
0
100
AcDbLine
10
-28.505399697876793
20
-0.7954960055420589
30
1.5239875059917953e-32
11
-28.369391756782797
21
-0.79549600554205968
31
-4.1524765626965749e-17
0
LINE
5
140
100
AcDbEntity
8
0
100
AcDbLine
10
-28.505399697876793
20
-0.7954960055420589
30
1.5239875059917953e-32
11
-29.155399697876796
21
-0.79549600554205768
31
5.3073725467238015e-33
0
LINE
5
141
100
AcDbEntity
8
0
100
AcDbLine
10
-29.155399697876796
20
-0.79549600554205768
30
5.3073725467238015e-33
11
-29.305399697876794
21
-0.79549600554205668
31
4.5796699765788796e-17
0
LINE
5
142
100
AcDbEntity
8
0
100
AcDbLine
10
-29.155399697876796
20
-0.79549600554205768
30
5.3073725467238015e-33
11
-29.305399697876794
21
-0.79549600554205668
31
4.5796699765788796e-17
0
LINE
5
143
100
AcDbEntity
8
0
100
AcDbLine
10
-29.155399697876796
20
-0.79549600554205768
30
5.3073725467238015e-33
11
-28.454139120525795
21
-0.79549600554206168
31
-3.196324856118876e-33
0
LINE
5
144
100
AcDbEntity
8
0
100
AcDbLine
10
-28.454139120525795
20
-0.79549600554206168
30
-3.196324856118876e-33
11
-28.362479964463478
21
-0.79549600554206235
31
-2.7984579006474854e-17
0
LINE
5
145
100
AcDbEntity
8
0
100
AcDbLine
10
-28.27088656924229
20
-0.79549600554206279
30
0
11
-28.362479964463478
21
-0.79549600554206235
31
-2.7984579006474854e-17
0
LINE
5
146
100
AcDbEntity
8
0
100
AcDbLine
10
-28.27088656924229
20
-0.79549600554206279
30
0
11
-27.945399697876788
21
-0.79549600554206346
31
-1.8919111446479434e-32
0
LINE
5
147
100
AcDbEntity
8
0
100
AcDbLine
10
-27.945399697876788
20
-0.79549600554206346
30
-1.8919111446479434e-32
11
-29.155399697876796
21
-0.79549600554205768
31
5.3073725467238015e-33
0
LINE
5
148
100
AcDbEntity
8
0
100
AcDbLine
10
-29.155399697876796
20
-0.79549600554205768
30
5.3073725467238015e-33
11
-29.305399697876794
21
-0.79549600554205668
31
4.5796699765788796e-17
0
LINE
5
149
100
AcDbEntity
8
0
100
AcDbLine
10
-29.155399697876796
20
-0.79549600554205768
30
5.3073725467238015e-33
11
-29.305399697876794
21
-0.79549600554205668
31
4.5796699765788796e-17
0
LINE
5
150
100
AcDbEntity
8
0
100
AcDbLine
10
-29.155399697876796
20
-0.79549600554205768
30
5.3073725467238015e-33
11
-28.505399697876793
21
-0.7954960055420589
31
1.5239875059917953e-32
0
LINE
5
151
100
AcDbEntity
8
0
100
AcDbLine
10
-28.505399697876793
20
-0.7954960055420589
30
1.5239875059917953e-32
11
-28.369391756782797
21
-0.79549600554205968
31
-4.1524765626965749e-17
0
LINE
5
152
100
AcDbEntity
8
0
100
AcDbLine
10
-28.505399697876793
20
-0.7954960055420589
30
1.5239875059917953e-32
11
-29.720783590363794
21
-0.79549600554205613
31
0
0
LINE
5
153
100
AcDbEntity
8
0
100
AcDbLine
10
-29.720783590363794
20
-0.79549600554205613
30
0
11
-29.805399697876794
21
-0.7954960055420558
31
-3.1687369434070116e-17
0
LINE
5
154
100
AcDbEntity
8
0
100
AcDbLine
10
-29.909186770731793
20
-0.79549600554205468
30
0
11
-29.805399697876794
21
-0.7954960055420558
31
-3.1687369434070116e-17
0
ARC
5
155
100
AcDbEntity
8
0
100
AcDbCircle
10
-28.505399697876808
20
-8.56049600554406
30
0
40
1.2000000000000011
210
3.8326411333118773e-32
220
9.8607613152626388e-32
230
1
100
AcDbArc
50
180
51
269.99999999995197
0
ARC
5
156
100
AcDbEntity
8
0
100
AcDbCircle
10
-28.505399697876808
20
-8.56049600554406
30
0
40
1.2000000000000011
210
3.8326411333118773e-32
220
9.8607613152626432e-32
230
1
100
AcDbArc
50
180
51
269.99999999995197
0
LINE
5
157
100
AcDbEntity
8
0
100
AcDbLine
10
-29.705399697876814
20
-8.5604960055440529
30
0
11
-29.7053996978768
21
-5.5354960055430595
31
4.9303806576313238e-31
0
LINE
5
158
100
AcDbEntity
8
0
100
AcDbLine
10
-29.705399697876803
20
-5.3854960055431906
30
8.8817841970012523e-15
11
-29.7053996978768
21
-5.5354960055430595
31
4.9303806576313238e-31
0
LINE
5
159
100
AcDbEntity
8
0
100
AcDbLine
10
-29.705399697876803
20
-5.3854960055431906
30
8.8817841970012523e-15
11
-29.705399697876803
21
-5.1854960055430555
31
8.8810903076110042e-15
0
LINE
5
160
100
AcDbEntity
8
0
100
AcDbLine
10
-29.705399697876803
20
-5.1854960055430555
30
8.8810903076110042e-15
11
-29.705399697876803
21
-5.035496005543056
31
1.1657341758545409e-16
0
LINE
5
161
100
AcDbEntity
8
0
100
AcDbLine
10
-29.705399697876803
20
-5.1854960055430555
30
8.8810903076110042e-15
11
-29.705399697876803
21
-5.035496005543056
31
1.1657341758545409e-16
0
LINE
5
162
100
AcDbEntity
8
0
100
AcDbLine
10
-29.705399697876803
20
-5.1854960055430555
30
8.8810903076110042e-15
11
-29.705399697876803
21
-5.3854960055431906
31
8.8817841970012523e-15
0
LINE
5
163
100
AcDbEntity
8
0
100
AcDbLine
10
-29.705399697876803
20
-5.3854960055431906
30
8.8817841970012523e-15
11
-29.7053996978768
21
-5.5354960055430595
31
4.9303806576313238e-31
0
LINE
5
164
100
AcDbEntity
8
0
100
AcDbLine
10
-29.705399697876803
20
-5.3854960055431906
30
8.8817841970012523e-15
11
-29.7053996978768
21
-5.5354960055430595
31
4.9303806576313238e-31
0
LINE
5
165
100
AcDbEntity
8
0
100
AcDbLine
10
-29.705399697876803
20
-5.3854960055431906
30
8.8817841970012523e-15
11
-29.705399697876803
21
-5.1854960055430555
31
8.8810903076110042e-15
0
LINE
5
166
100
AcDbEntity
8
0
100
AcDbLine
10
-29.705399697876803
20
-5.1854960055430555
30
8.8810903076110042e-15
11
-29.705399697876803
21
-5.035496005543056
31
1.1657341758545409e-16
0
LINE
5
167
100
AcDbEntity
8
0
100
AcDbLine
10
-29.705399697876803
20
-5.1854960055430555
30
8.8810903076110042e-15
11
-29.705399697876803
21
-5.035496005543056
31
1.1657341758545409e-16
0
LINE
5
168
100
AcDbEntity
8
0
100
AcDbLine
10
-29.705399697876803
20
-5.1854960055430555
30
8.8810903076110042e-15
11
-29.705399697876803
21
-5.3854960055431906
31
8.8817841970012523e-15
0
LINE
5
169
100
AcDbEntity
8
0
100
AcDbLine
10
-29.705399697876803
20
-5.3854960055431906
30
8.8817841970012523e-15
11
-29.7053996978768
21
-5.5354960055430595
31
4.9303806576313238e-31
0
LINE
5
170
100
AcDbEntity
8
0
100
AcDbLine
10
-29.7053996978768
20
-5.5354960055430595
30
4.9303806576313238e-31
11
-29.705399697876814
21
-8.5604960055440529
31
0
0
LINE
5
171
100
AcDbEntity
8
0
100
AcDbLine
10
-29.705399697876803
20
-5.5054960055430557
30
8.8817841970012523e-15
11
-29.705399697876796
21
-2.2104960055430585
31
8.8817841970012523e-15
0
LINE
5
172
100
AcDbEntity
8
0
100
AcDbLine
10
-29.705399697876796
20
-2.2104960055430585
30
8.8817841970012523e-15
11
-29.705399697876803
21
-5.5054960055430557
31
8.8817841970012523e-15
0
LINE
5
173
100
AcDbEntity
8
0
100
AcDbLine
10
-29.705399697876803
20
-5.5054960055430557
30
8.8817841970012523e-15
11
-29.705399697876803
21
-5.4004960055430296
31
8.1601392310029579e-17
0
LINE
5
174
100
AcDbEntity
8
0
100
AcDbLine
10
-29.705399697876803
20
-5.4004960055430296
30
8.1601392310029579e-17
11
-29.705399697876803
21
-5.2004960055430525
31
-6.9388939041446632e-19
0
LINE
5
175
100
AcDbEntity
8
0
100
AcDbLine
10
-29.705399697876803
20
-5.0054960055430531
30
0
11
-29.705399697876803
21
-5.2004960055430525
31
-6.9388939041446632e-19
0
LINE
5
176
100
AcDbEntity
8
0
100
AcDbLine
10
-29.705399697876803
20
-5.0054960055430531
30
0
11
-29.705399697876803
21
-5.2004960055430525
31
-6.9388939041446632e-19
0
LINE
5
177
100
AcDbEntity
8
0
100
AcDbLine
10
-29.705399697876803
20
-5.2004960055430525
30
-6.9388939041446632e-19
11
-29.705399697876803
21
-5.4004960055430296
31
8.1601392310029579e-17
0
LINE
5
178
100
AcDbEntity
8
0
100
AcDbLine
10
-29.705399697876803
20
-5.5054960055430557
30
8.8817841970012523e-15
11
-29.705399697876803
21
-5.4004960055430296
31
8.1601392310029579e-17
0
LINE
5
179
100
AcDbEntity
8
0
100
AcDbLine
10
-29.705399697876803
20
-5.5054960055430557
30
8.8817841970012523e-15
11
-29.705399697876803
21
-5.4004960055430296
31
8.1601392310029579e-17
0
LINE
5
180
100
AcDbEntity
8
0
100
AcDbLine
10
-29.705399697876803
20
-5.4004960055430296
30
8.1601392310029579e-17
11
-29.705399697876803
21
-5.2004960055430525
31
-6.9388939041446632e-19
0
LINE
5
181
100
AcDbEntity
8
0
100
AcDbLine
10
-29.705399697876803
20
-5.0054960055430531
30
0
11
-29.705399697876803
21
-5.2004960055430525
31
-6.9388939041446632e-19
0
LINE
5
182
100
AcDbEntity
8
0
100
AcDbLine
10
-29.705399697876803
20
-5.0054960055430531
30
0
11
-29.705399697876803
21
-5.2004960055430525
31
-6.9388939041446632e-19
0
LINE
5
183
100
AcDbEntity
8
0
100
AcDbLine
10
-29.705399697876803
20
-5.2004960055430525
30
-6.9388939041446632e-19
11
-29.705399697876803
21
-5.4004960055430296
31
8.1601392310029579e-17
0
LINE
5
184
100
AcDbEntity
8
0
100
AcDbLine
10
-29.705399697876803
20
-5.5054960055430557
30
8.8817841970012523e-15
11
-29.705399697876803
21
-5.4004960055430296
31
8.1601392310029579e-17
0
ARC
5
185
100
AcDbEntity
8
0
100
AcDbCircle
10
-28.505399697876793
20
-2.2104960055430611
30
0
40
1.1999999999999997
210
-9.2606762375218709e-33
220
5.0391349017812444e-47
230
1
100
AcDbArc
50
89.999999999999673
51
180
0
ARC
5
186
100
AcDbEntity
8
0
100
AcDbCircle
10
-28.505399697876793
20
-2.2104960055430611
30
0
40
1.1999999999999997
210
-1.2694114248867314e-32
220
7.5803895243271927e-47
230
1
100
AcDbArc
50
89.999999999999673
51
180
0
ENDSEC
0
SECTION
2
OBJECTS
0
DICTIONARY
5
C
100
AcDbDictionary
3
ACAD_GROUP
350
D
3
ACAD_MLINESTYLE
350
17
0
DICTIONARY
5
D
100
AcDbDictionary
0
DICTIONARY
5
1A
330
C
100
AcDbDictionary
0
DICTIONARY
5
17
100
AcDbDictionary
0
ENDSEC
0
EOF
